<svg xmlns="http://www.w3.org/2000/svg" xml:space="preserve" id="Layer_1" x="0" y="0" style="enable-background:new 0 0 290 290" version="1.1" viewBox="0 0 290 290"><style>.st0{fill:#fff}</style><path d="m169.2 89.7-12 28.6 41.3-19.4-11 20.3L224.8 86l19.4-32.1zm-1.4 33.4-8.1 18.7 56.4-26.7-18.2 30.9-66.2 31 11.7-27.5z" class="st0" style="fill:#fff"/><path d="m223.4 112.9 9-4.1-24.3 40.7-73.8 31.6 67.2-31.6zM57.6 236.1l64-27.2 11.9-27.4-7.3 3.4-10.3 23.9z" class="st0" style="fill:#fff"/><path d="m77.5 113.5-31.7 73.8 42.1-19.6-31.3 65 53.9-25.2L170 69.7l-92.5 43.8zm29.1 22.7-15.4 7.3 6.1-14.5 15.3-7-6 14.2z" class="st0" style="fill:#fff"/></svg>