<svg xmlns="http://www.w3.org/2000/svg" xmlns:xlink="http://www.w3.org/1999/xlink" id="Layer_1" data-name="Layer 1" viewBox="0 0 949.53 1063.07"><defs><linearGradient id="linear-gradient" x1="23.18" x2="927.39" y1="478.38" y2="478.38" gradientUnits="userSpaceOnUse"><stop offset=".28" stop-color="#d3d3d3"/><stop offset="1" stop-color="#9e99a7"/></linearGradient><linearGradient id="linear-gradient-2" x1="116.09" x2="791.41" y1="277.02" y2="277.02" gradientUnits="userSpaceOnUse"><stop offset=".28" stop-color="#dddcdf"/><stop offset="1" stop-color="#c5c2c8"/></linearGradient><linearGradient id="linear-gradient-3" x1="47.53" x2="143.76" y1="784.07" y2="784.07" gradientUnits="userSpaceOnUse"><stop offset="0" stop-color="#e3e1e7"/><stop offset=".19" stop-color="#dcdae1"/><stop offset=".46" stop-color="#cbc5d0"/><stop offset=".79" stop-color="#ada4b6"/><stop offset="1" stop-color="#988ca2"/></linearGradient><linearGradient id="linear-gradient-4" x1="47.49" x2="352.55" y1="403.83" y2="403.83" gradientUnits="userSpaceOnUse"><stop offset="0" stop-color="#fff"/><stop offset=".13" stop-color="#f8f7f8"/><stop offset=".32" stop-color="#e4e1e6"/><stop offset=".56" stop-color="#c3bec7"/><stop offset=".83" stop-color="#968d9d"/><stop offset="1" stop-color="#776c80"/></linearGradient><linearGradient xlink:href="#linear-gradient-3" id="linear-gradient-5" x1="395.17" x2="395.17" y1="909.9" y2="739.6"/><linearGradient id="linear-gradient-6" x1="5704.08" x2="5704.08" y1="910.07" y2="739.6" gradientTransform="matrix(-1 0 0 1 6430.18 0)" gradientUnits="userSpaceOnUse"><stop offset="0" stop-color="#fff"/><stop offset="1" stop-color="#776c80"/></linearGradient><linearGradient id="linear-gradient-7" x1="288.76" x2="660.78" y1="765.82" y2="765.82" gradientUnits="userSpaceOnUse"><stop offset="0" stop-color="#dddddc"/><stop offset="1" stop-color="#776c80"/></linearGradient><linearGradient id="linear-gradient-8" x1="805.86" x2="902.08" y1="801.06" y2="801.06" gradientUnits="userSpaceOnUse"><stop offset="0" stop-color="#e5e2e7"/><stop offset=".04" stop-color="#d9d5dc"/><stop offset=".15" stop-color="#bbb5c0"/><stop offset=".27" stop-color="#a29aa8"/><stop offset=".4" stop-color="#8f8696"/><stop offset=".54" stop-color="#81778a"/><stop offset=".72" stop-color="#796f82"/><stop offset="1" stop-color="#776c80"/></linearGradient><linearGradient xlink:href="#linear-gradient-3" id="linear-gradient-9" x1="326.97" x2="592.98" y1="93.33" y2="93.33"/><linearGradient id="linear-gradient-10" x1="148.08" x2="800.18" y1="273.63" y2="925.73" gradientUnits="userSpaceOnUse"><stop offset=".11" stop-color="#fff"/><stop offset="1" stop-color="silver"/></linearGradient><linearGradient id="linear-gradient-11" x1="149.69" x2="352.51" y1="314.06" y2="314.06" gradientUnits="userSpaceOnUse"><stop offset="0" stop-color="#f1eff3"/><stop offset=".17" stop-color="#eae8ed"/><stop offset=".42" stop-color="#d8d3dc"/><stop offset=".72" stop-color="#bab2c1"/><stop offset="1" stop-color="#988ca2"/></linearGradient><linearGradient id="linear-gradient-12" x1="570.86" x2="902.26" y1="372.83" y2="372.83" gradientUnits="userSpaceOnUse"><stop offset="0" stop-color="#fff"/><stop offset="1" stop-color="#9890a0"/></linearGradient><linearGradient xlink:href="#linear-gradient-3" id="linear-gradient-13" x1="570.81" x2="746.72" y1="228.04" y2="228.04"/><linearGradient id="linear-gradient-14" x1="807.19" x2="807.19" y1="321.11" y2="98.54" gradientUnits="userSpaceOnUse"><stop offset=".27" stop-color="#279145"/><stop offset="1" stop-color="#288943"/></linearGradient><linearGradient xlink:href="#linear-gradient-14" id="linear-gradient-15" x1="145.25" x2="145.25" y1="321.11" y2="103.34"/><linearGradient xlink:href="#linear-gradient-14" id="linear-gradient-16" x1="475.33" x2="263.43" y1="931.2" y2="931.2"/><style>.cls-14{fill:#09783f}.cls-18{fill:#342c3a}</style></defs><g id="Alliance_Logo_Full_Color" data-name="Alliance Logo Full Color"><g id="core"><path id="bg" d="M911.3 658.08 610.55 30.83l-81.74-11.39-111.6 26.11-95.37 47.79L23.18 682.22l108.48 255.09 190.18-112.56h324.53l159.45 112.56 96.22-145.27 25.35-80.21-16.09-53.75z" style="fill:url(#linear-gradient)"/><path id="reflection_front" d="M791.41 394.71 610.55 30.83l-81.74-11.39-111.6 26.11-95.37 47.79L116.09 534.6l675.32-139.89z" data-name="reflection front" style="fill:url(#linear-gradient-2)"/><path id="emboss" d="m105.68 699.93-13-41.86-34 10.83-11.15 23.16a541.85 541.85 0 0 0 96.23 218c-49.82-144.94-38.08-210.13-38.08-210.13Z" style="fill:url(#linear-gradient-3)" transform="translate(-.04)"/><path id="emboss-2" d="M352.55 141.12 327 107.78 47.53 692.06l58.15 7.87Z" data-name="emboss" style="fill:url(#linear-gradient-4)" transform="translate(-.04)"/><path id="emboss-3" d="m143.96 909.9 159.21-117.86h343.21L288.76 739.6l-144.8 170.3z" data-name="emboss" style="fill:url(#linear-gradient-5)"/><path id="emboss-4" d="M805.81 910.08 646.38 792.04l14.4-52.44 145.03 170.48z" data-name="emboss" style="fill:url(#linear-gradient-6)"/><path id="emboss-5" d="m660.78 739.6-14.41 52.44H303.16l-14.4-52.44h372.02z" data-name="emboss" style="fill:url(#linear-gradient-7)"/><path id="emboss-6" d="M843.94 699.93s11.74 65.19-38.08 210.14a541.69 541.69 0 0 0 96.22-218Z" data-name="emboss" style="fill:url(#linear-gradient-8)" transform="translate(-.04)"/><path id="emboss-7" d="M593 45.73c-4.6-.12-9.15-.18-13.61-.18A542.86 542.86 0 0 0 327 107.78l25.58 33.34c55.89-39.51 148.37-59.56 218.31-59.29Z" data-name="emboss" style="fill:url(#linear-gradient-9)" transform="translate(-.04)"/><path d="M579.37 45.55c4.46 0 9 .06 13.61.17l309.1 646.33a541.69 541.69 0 0 1-96.22 218L646.64 792.21h-343.2l1.18-.17h-1.41L144 909.9l144.8-170.3h372l145 170.47c49.82-145 38.08-210.14 38.08-210.14L570.86 81.79h-1.37c-69.77 0-161.42 20-216.94 59.29L105.68 699.93s-11.74 65.19 38.08 210.14a541.85 541.85 0 0 1-96.23-218L327 107.78l19.63 25.58L327 107.78l-.11.06.18-.09h-.06.09a542.8 542.8 0 0 1 252.33-62.2M579.37 39.34a549.72 549.72 0 0 0-250.64 60.53l-3-3.9-4.37 9.13L41.93 689.38l-.93 1.85.4 2a550.15 550.15 0 0 0 94.45 216.6L124 932.43l18.47-13.67 20.23 27.32-11.59-33.72L305 798.42h339.59l157.57 116.64 5 3.7 3.7-5a550.17 550.17 0 0 0 97.33-220.52l.39-2-.88-1.85L598.58 43.05l-1.64-3.43-3.8-.1c-4.72-.12-9.35-.18-13.77-.18ZM357.53 145.21c56.14-38.94 144.78-56.69 209.3-57.16l271.09 613.63c1 7 7.64 69.33-34.44 196L665.55 735.57l-1.86-2.18H285.93l-1.86 2.18-137.91 162.2c-42.08-126.68-35.42-189.08-34.46-196.09l245.83-556.47Z" style="fill:url(#linear-gradient-10)" transform="translate(-.04)"/><path id="emboss-8" d="m184.98 520.33 167.53-379.21-25.58-33.33-177.24 370.59 35.29 41.95z" data-name="emboss" style="fill:url(#linear-gradient-11)"/><path id="emboss-9" d="M570.86 81.79 593 45.73l309.1 646.33-58.14 7.87Z" data-name="emboss" style="fill:url(#linear-gradient-12)" transform="translate(-.04)"/><path id="emboss-10" d="M746.72 367.28 592.94 45.73 570.81 81.8l145.15 328.55 30.76-43.07z" data-name="emboss" style="fill:url(#linear-gradient-13)"/><path id="triangle_hole" d="m474.78 448.73-69.79 145.91h139.57l-69.78-145.91z" class="cls-14" data-name="triangle hole"/></g><g id="shield"><g id="right_wing" data-name="right wing"><path id="bg-2" d="M908 191.27c-9.13.73-17.56 1.32-25.54 1.75 10.86-43 17.67-70.12 17.67-70.12-55.75 14.77-142.68 42.18-220.33 42.18l182 377.37c3.86-14.82 7.72-29.72 11.57-44.58l12.5 20.65C881 356.86 908 191.27 908 191.27Z" class="cls-14" data-name="bg" transform="translate(-.04)"/><path id="grad" d="M690.91 159.87c77.65 0 180.3-42.22 232.56-61.33 0 0-5.69 2-21.81 21-2.39 2.81-2 57.57-2.66 61.84-5.72 37.17-68.22 96.52-135.11 139.74Z" style="fill:url(#linear-gradient-14)" transform="translate(-.04)"/><path id="seam" d="M874.29 149.25c-46.81 12.87-107 29-165.37 33.33L844.64 464l6.44-24.93 24 23.61c-.56-108.52 7.83-208.24 12-251.26l-3.67.21-25.23 1.37 6.21-24.55c3.85-15.22 7.19-28.46 9.9-39.21M718.44 188c49.82-4.68 99.78-17.06 147.23-30-2.16 8.54-4.6 18.22-7.3 28.88l-6.21 24.56-2.07 8.19 8.43-.46 21.75-1.2c-3.9 41.28-11.18 131.31-11.4 229.83l-13.44-13.2-7.67-7.55-2.69 10.42-2.2 8.52L718.44 188Z" class="cls-14" transform="translate(-.04)"/></g><g id="left_wing" data-name="left wing"><path id="bg-3" d="M41.63 191.27c9.13.73 17.56 1.32 25.54 1.75-10.86-43-17.67-70.12-17.67-70.12 55.75 14.77 142.68 42.18 220.33 42.18l-182 377.37c-3.86-14.82-7.72-29.72-11.57-44.58l-12.5 20.65c4.87-161.66-22.13-327.25-22.13-327.25Z" class="cls-14" data-name="bg" transform="translate(-.04)"/><path id="grad-2" d="M259.75 159.87c-77.66 0-176.74-37.27-229-56.37 0 0 2.13-2.92 18.25 16 2.39 2.81 2 57.57 2.66 61.84 5.72 37.17 68.21 96.52 135.11 139.74Z" data-name="grad" style="fill:url(#linear-gradient-15)" transform="translate(-.04)"/><path id="seam-2" d="M75.36 149.25c46.81 12.87 107 29 165.37 33.33L105 464l-6.44-24.93-24 23.61c.56-108.52-7.83-208.24-12-251.26l3.67.21L91.47 213l-6.21-24.55c-3.85-15.22-7.19-28.46-9.9-39.21M231.21 188c-49.82-4.68-99.78-17.06-147.23-30 2.16 8.54 4.6 18.22 7.3 28.88l6.21 24.56 2.07 8.19-8.43-.46L69.38 218c3.9 41.28 11.18 131.31 11.4 229.83l13.44-13.2 7.67-7.55 2.69 10.42 2.2 8.52L231.21 188Z" class="cls-14" data-name="seam" transform="translate(-.04)"/></g><g id="shield_tip" data-name="shield tip"><path id="bg-4" d="M343.57 820.42h-23.26l-57.39 42.49c58.71 72.51 128.6 134.82 211.9 179.06C558.11 997.73 628 935.43 686.71 862.92l-57.41-42.5Z" class="cls-14" data-name="bg" transform="translate(-.04)"/><path id="grad-3" d="M475.33 820.42h-154.5l-57.4 42.49C322.14 935.42 392 997.73 475.33 1042Z" data-name="grad" style="fill:url(#linear-gradient-16)" transform="translate(-.04)"/><path id="seam-3" d="M474.82 1020.78c67.23-37.22 129.35-89.14 185-154.6l-36.65-27.13H326.46l-36.63 27.12c55.63 65.46 117.76 117.39 185 154.61M328.51 845.26H621.1l29.64 22c-53.16 61.5-112.3 110.74-175.92 146.46-63.63-35.73-122.78-85-175.94-146.48l29.63-21.93Z" class="cls-14" data-name="seam" transform="translate(-.04)"/></g></g><g id="outline"><path d="M354.83 604.65h239.9l-119.95-250.8Zm61.5-21.86 58.45-122.21 58.45 122.21Z" class="cls-18"/><path d="m946.35 679.12-66-138.07c-.62-8.88-1.15-16.28-1.6-22.49l35.77 35.15-1.39-46.34C908.34 349 926.28 195 926.46 193.46l2.67-22.59-22.36 1.8c7.14-28.29 11.39-45.24 11.39-45.24l7.67-30.63-30.52 8.09c-7.85 2.08-16.32 4.41-25.3 6.88-50 13.75-117.27 32.27-178.52 34.45l-42.38-88.6-26.87-56.21-13.56-.68C598.76.24 588.89 0 579.33 0a588.34 588.34 0 0 0-280.62 71.22l-6.47 3.53-34.19 71.47c-61.25-2.18-128.55-20.7-178.51-34.45-9-2.47-17.44-4.8-25.3-6.88L23.72 96.8l7.67 30.63s4.25 16.95 11.39 45.24l-22.36-1.8 2.67 22.59C23.27 195 41.21 349 36.46 507.32l-1.39 46.34 35.77-35.15c-.46 6.2-1 13.59-1.61 22.46l-66 138.1-3.27 6.7L1.32 693a587.34 587.34 0 0 0 120.29 262.94l13.71 17L255.9 883.7c62.47 75 133.1 133.81 210.14 174.73l8.74 4.64 8.74-4.64c77-40.92 147.66-99.7 210.13-174.72L814.21 973l13.71-17a587.36 587.36 0 0 0 120.3-263l1.32-7.25Zm-72.1-529.87c-2.71 10.75-6 24-9.9 39.21L858.14 213l25.3-1.38 3.67-.21c-4.22 43-12.61 142.74-12 251.26l-24-23.6L844.6 464 708.88 182.58c58.38-4.36 118.56-20.46 165.37-33.33ZM62.44 211.42l3.67.21L91.4 213l-6.2-24.55c-3.85-15.22-7.19-28.46-9.9-39.21 46.81 12.87 107 29 165.37 33.33l-.09.17L104.96 464l-6.45-24.93-24 23.6c.54-108.51-7.85-208.23-12.07-251.25Zm412.34 809.36c-67.23-37.22-129.36-89.14-185-154.61l36.63-27.12h296.7l36.65 27.13c-55.63 65.46-117.75 117.39-184.98 154.6Zm331-110.71L646.37 792h-343.2L143.72 910a541.85 541.85 0 0 1-96.23-218l279.47-584.22a542.79 542.79 0 0 1 252.37-62.23q6.71 0 13.61.17l29.57 61.84c0 .08.05.14.09.22l279.44 584.28a541.69 541.69 0 0 1-96.22 218.01Z" class="cls-18"/></g></g></svg>