<svg width="234" height="286" viewBox="0 0 234 286" fill="none" xmlns="http://www.w3.org/2000/svg">
<path d="M52.1998 200.1L84.5998 223.7L96.9998 185.6L88.4998 179.4L64.5998 162H-0.200195L52.1998 200.1Z" fill="#FF0000"/>
<path d="M169.5 162L156.2 171.7L137.1 185.6L149.5 223.7L181.9 200.1L234.2 162H169.5Z" fill="#FF0000"/>
<path d="M137.1 62.3L117.1 0.699951L96.9996 62.3L76.9996 123.9L64.5996 162H104.7L117.1 124L129.4 162H169.5L157.1 123.9L137.1 62.3Z" fill="#FF0000"/>
<path d="M64.5996 285.3L117.1 247.2L149.4 223.7L117.1 200.1L84.6996 223.7H84.5996L64.5996 285.3Z" fill="#FF0000"/>
</svg>
