<svg width="799" height="961" viewBox="0 0 799 961" fill="none" xmlns="http://www.w3.org/2000/svg">
<g clip-path="url(#clip0_678_7026)">
<mask id="mask0_678_7026" style="mask-type:luminance" maskUnits="userSpaceOnUse" x="-933" y="-850" width="2667" height="2667">
<path d="M-933 -850H1733.67V1816.67H-933V-850Z" fill="white"/>
</mask>
<g mask="url(#mask0_678_7026)">
<path d="M72.3437 69.3265C69.9477 119.069 67.2303 168.794 62.7223 218.39L0.333011 904.666C0.333011 904.666 -4.54566 960.497 45.497 960.837H420.305C420.305 960.837 555.545 961.4 666.181 885.034C788.182 800.822 832.874 640.362 771.864 505.256C748.392 453.278 706.677 402.284 633.072 373.944C633.072 373.944 602.402 363.721 634.078 337.538C642.422 330.642 650.149 323.026 656.82 314.5C680.385 284.381 716.509 219.714 674.932 141.106C673.093 137.629 671.309 134.121 669.614 130.572C659.234 108.824 603.333 13.2784 418.262 1.99973H261.718C229.96 1.99973 178.009 0.91443 146.258 0.18243C120.62 -0.408236 75.3263 7.4038 72.3437 69.3265Z" fill="white"/>
<path d="M278.688 373.262C278.688 373.262 265.525 481.972 305.014 582.284L243.877 562.158C238.992 560.549 234.202 558.676 229.382 556.88C224.824 555.18 215.421 555.056 211.789 580.212C211.588 581.602 211.35 582.99 211.122 584.377C208.266 601.7 195.637 721.073 386.262 737.064C386.262 737.064 497.489 742.812 545.464 656.854C564.469 622.805 567.269 581.756 551.121 546.261C545.054 532.925 535.958 519.357 522.362 507.704C514.561 501.018 506.688 494.424 499.041 487.562C473.778 464.892 411.398 413.013 300.021 343.986C300.021 343.986 201.07 283.164 177.922 250.028C154.773 216.893 142.972 168.326 211.964 104.326C211.964 104.326 286.858 32.1558 439.822 63.0211C439.822 63.0211 596.418 89.1931 595.316 210.382C595.282 214.076 595.36 217.773 595.33 221.466C595.24 233.28 587.585 272.564 500.106 323.334C492.802 327.572 485.282 331.438 477.662 335.076C466.574 340.37 445.762 353.694 475.284 369.177C475.284 369.177 582.642 432.525 621.345 473.665C625.589 478.176 629.945 482.569 634.324 486.949C653.666 506.3 704.829 569.356 683.852 678.65C683.486 680.55 683.128 682.453 682.797 684.357C679.888 701.07 654.53 818.79 510.276 872.182C460.95 890.438 407.97 896.813 355.649 891.456C289.185 884.649 192.153 859.636 132.858 775.977C131.506 774.07 130.161 772.17 128.754 770.302C117.364 755.173 47.209 653.07 118.829 519.729C119.816 517.89 120.797 516.046 121.749 514.19C128.898 500.252 174.313 418.616 278.688 373.262Z" fill="#231F20"/>
<path d="M363.631 267.796C368.655 271.84 377.451 275.662 388.319 266.802C391.832 263.937 395.523 261.306 399.5 259.13C419.339 248.277 474.812 216.832 489.608 196.774C490.589 195.444 491.571 194.12 492.596 192.824C498.839 184.934 519.845 150.606 456.391 106.369C456.391 106.369 370.944 49.5182 280.049 122.029C280.049 122.029 240.933 154.342 274.179 197.244C279.284 203.832 285.417 209.554 292.164 214.449L336.575 246.673C345.839 253.394 354.716 260.618 363.631 267.796Z" fill="white"/>
</g>
</g>
<defs>
<clipPath id="clip0_678_7026">
<rect width="799" height="961" fill="white"/>
</clipPath>
</defs>
</svg>
