<svg width="617" height="886" viewBox="0 0 617 886" fill="none" xmlns="http://www.w3.org/2000/svg">
<path d="M613.8 348.2C613.8 346.2 613.5 338.3 613.5 335.3C613.9 311.5 607.7 279.1 604.4 262.8C596.7 232.1 587.6 205.4 572.9 182.2C568 174.4 552.4 155.7 548.9 155C548.8 155 548.7 155.1 548.7 155.2C546.4 173.9 544.1 192.7 541.8 211.4C541.3 216 540.8 220.6 540.3 225.2C538.1 241.2 536 257.2 533.8 273.3C532.3 282.4 531.2 291.8 529.7 299.4C529.1 302.6 528.5 305.9 527.8 309.1C528 317.3 539.1 324.4 533.2 331.1C527.3 335.9 522.5 341.7 518.9 346.9C516.9 350.2 514.8 353.5 512.8 356.8C513 333.2 513.2 311.3 510.5 292.6C507.2 272.7 499.4 251.4 507 236.9C510.3 221.2 505.9 198.6 502.2 186.5C490.7 149.2 477.1 115.5 457 87C446.8 73.3 441.6 66 430 59.3C429.8 61.4 427 86.6 425.5 100.1C423.6 117.7 421.7 135.4 419.7 153C416.3 177.5 415.9 201.9 416.9 211.4C418.1 219.1 424.2 217.3 414.4 230.7C404.2 242.7 393.8 262.8 388.6 278.8C383.4 242.6 369.9 222.2 364.9 214.7C360.9 208.6 366.1 197.1 367.1 192.4C370.3 173.9 364.5 151.7 363 144.5C352.8 95.8 343.8 47.3 319.4 12.6C316 8.20001 312.9 4.90001 308.5 0.200012C304.1 4.80001 301 8.20001 297.6 12.6C273.3 47.2 264.3 95.8 254 144.5C252.5 151.7 246.7 174 249.9 192.4C250.9 197.1 256.1 208.7 252.1 214.7C247.1 222.1 233.6 242.6 228.4 278.8C223.2 262.8 212.8 242.7 202.6 230.7C192.8 217.4 198.9 219.1 200.1 211.4C201.1 202 200.8 177.5 197.3 153C195.4 135.4 193.5 117.7 191.5 100.1C190 86.6 187.2 61.4 187 59.3C175.5 66 170.2 73.3 160 87C139.8 115.4 126.3 149.1 114.8 186.5C111.1 198.6 106.6 221.3 110 236.9C117.6 251.4 109.9 272.7 106.5 292.6C103.9 311.3 104.1 333.2 104.2 356.8C102.2 353.5 100.1 350.2 98.0996 346.9C94.3996 341.7 89.5996 335.8 83.7996 331.1C77.8996 324.4 88.9996 317.4 89.1996 309.1C88.5996 305.9 87.9996 302.6 87.2996 299.4C85.7996 291.9 84.6996 282.4 83.1996 273.3C80.9996 257.3 78.8996 241.3 76.6996 225.2C76.1996 220.6 75.6996 216 75.1996 211.4C72.8996 192.7 70.5996 173.9 68.2996 155.2C68.2996 155.1 68.2996 155 68.0996 155C64.5996 155.7 48.9996 174.4 44.0996 182.2C29.4996 205.4 20.2996 232.1 12.5996 262.8C9.29962 279.1 3.09961 311.4 3.49961 335.3C3.49961 338.4 3.29961 346.3 3.19961 348.2C2.89961 363.6 -1.80039 388 0.899608 417.1C1.89961 426.2 1.79962 427.6 4.79962 440.1C8.89962 456.8 13.1996 469.3 22.0996 480.9C22.6996 481.7 22.8996 482.2 23.4996 483.2C28.9996 492.7 26.5996 512.1 23.2996 517.7C22.9996 518.3 22.4996 519.2 22.0996 519.8C19.3996 523.4 18.6996 529.7 18.6996 536.6C18.6996 540.2 26.1996 610.2 31.0996 629.6C33.7996 643.1 47.7996 708.4 97.1996 778.7C108.1 794.2 124.3 812.5 140 823.1C154.1 832.6 173.8 838.2 197.3 838.2C210.5 838.2 222.7 838.3 231.4 834.3C234 836.9 231.9 851.2 232.7 856.3C234.2 866.6 235.6 870.8 242.2 875.9C251.2 882.8 261 882.3 275 884.5C282.8 885.7 308.3 885.8 308.3 885.8C308.4 885.8 308.9 885.8 309 885.8C321.5 885.9 334.5 885.6 342.3 884.5C356.3 882.4 366.1 882.8 375.1 875.9C381.7 870.8 383.1 866.6 384.6 856.3C385.4 851.2 383.3 836.9 385.9 834.3C394.6 838.3 406.7 838.2 420 838.2C443.4 838.2 463.1 832.6 477.3 823.1C493 812.6 509.2 794.2 520.1 778.7C569.5 708.4 583.5 643.1 586.2 629.6C591.1 610.2 598.6 540.2 598.6 536.6C598.6 529.7 597.9 523.5 595.2 519.8C594.8 519.2 594.2 518.3 594 517.7C590.7 512.1 588.3 492.7 593.8 483.2C594.3 482.2 594.6 481.7 595.2 480.9C604.1 469.3 608.4 456.7 612.5 440.1C615.6 427.6 615.4 426.2 616.4 417.1C618.7 387.9 614.1 363.6 613.8 348.2ZM138.4 195.6C147.1 164.2 157.4 136.4 170.6 110.1C172 111.7 176.6 192 175.4 199.9C173.9 200.7 171.1 200.4 169.4 201C165.2 202.5 161.1 204.9 157.7 207.3C148.6 213.7 141.8 222.7 133.1 228.9H133C131.7 226.5 136.4 203 138.4 195.6ZM166.1 246C189.7 244.4 211.5 282.6 214.8 331.2C218.1 379.9 201.6 420.6 178.1 422.2C154.5 423.8 132.7 385.6 129.4 337C126.1 288.4 142.5 247.6 166.1 246ZM22.1996 327.3C24.3996 300.4 31.0996 237 54.8996 198.5C55.6996 221.8 65.9996 306.4 65.9996 307.1C51.5996 308.6 31.4996 314 22.1996 327.3ZM24.2996 422.7C16.6996 371.6 36.4996 353 42.3996 349.6C49.9996 344.1 65.9996 342.1 84.1996 378.8C104 425.3 97.8996 462.5 75.0996 473.5C48.0996 482.8 30.5996 453.1 24.2996 422.7ZM222.8 806.4C218.8 809.7 209 814 200.5 814.1C193.1 813.8 168.2 812.5 158.7 806.4C148 800.3 126.4 779.7 107.2 747.9C85.8996 715.3 68.6996 671.7 58.4996 633C55.3996 621.3 43.9996 562.1 44.5996 543.2C44.5996 538.6 46.0996 535.8 48.7996 534.1C85.6996 514.4 146.6 486.3 196.4 480.5C220.1 481 225.4 494 231.2 505.6C244.5 532.1 240.6 574.3 235.4 598.9C232.2 613.7 221.1 623.9 214.5 629.5C208.8 634.2 210.2 639.3 215.2 642C219.3 644.7 240 655.5 246.5 708.2C251.4 774.4 237.9 793 222.8 806.4ZM307.7 39L308.7 36.6L309.7 39C309.7 39 337.7 114.9 343 180.4C343 181.1 342.5 181.6 341.9 181.3C308.9 172.8 307.8 172.9 276.3 181.1C275.2 181.6 274.5 180.7 274.6 179.9C279.9 114.5 307.7 39 307.7 39ZM308.2 210.5C338.8 210.5 361.3 253 361.3 303.6C361.3 354.3 344.2 403.1 308.2 403.1C272.2 403.1 255.1 354.3 255.1 303.6C255.1 252.9 277.6 210.5 308.2 210.5ZM359.2 497.2C358.2 498.4 352.4 499.9 352.2 515.3C352.1 517.6 351.9 522 351.9 522L350.2 640.7V663.7L351.9 782.4C351.9 782.4 352.1 786.8 352.2 789.1C352.3 804.6 358.1 806 359.2 807.2C361.9 808.8 362.1 811.6 362 814.2C362.2 819.1 362 846.6 361.3 856C361.3 858.1 360.4 858.9 355.7 859.6C343.8 861 317.9 862.7 308.4 862.5C298.9 862.8 273.1 861 261.1 859.6C256.4 858.9 255.5 858.2 255.5 856C254.8 846.6 254.6 819.2 254.8 814.2C254.7 811.6 254.9 808.9 257.6 807.2C258.6 806 264.4 804.5 264.6 789.1C264.7 786.8 264.9 782.4 264.9 782.4L266.6 663.7V640.7L264.9 522C264.9 522 264.7 517.6 264.6 515.3C264.5 499.8 258.7 498.4 257.6 497.2C254.9 495.6 254.7 492.8 254.8 490.2C254.6 485.3 254.8 457.8 255.5 448.4C255.5 446.3 256.4 445.5 261.1 444.8C273 443.4 298.9 441.7 308.4 441.9C317.9 441.6 343.7 443.4 355.7 444.8C360.4 445.5 361.3 446.2 361.3 448.4C362 457.8 362.2 485.2 362 490.2C362.2 492.8 362 495.6 359.2 497.2ZM445.5 110.2C458.8 136.5 469.1 164.2 477.7 195.7C479.7 203.1 484.4 226.5 483.1 229H482.9C474.2 222.8 467.5 213.8 458.3 207.4C454.9 205 450.8 202.5 446.6 201.1C444.9 200.5 442.1 200.7 440.6 200C439.5 192 444 111.8 445.5 110.2ZM402.7 331.2C406 282.5 427.8 244.4 451.4 246C475 247.6 491.4 288.3 488.1 337C484.8 385.7 463 423.8 439.4 422.2C415.9 420.6 399.4 379.9 402.7 331.2ZM563.9 614.2C563.5 618.4 560.8 619.3 557.7 618.3C531.2 612.3 492.9 603.6 490.9 603.1C487.8 602.2 483.5 601 483.9 594.7C484.3 588.5 484.4 586.3 485.3 565.5C486.2 544.6 456.9 537.7 456.1 558.5C455.3 579.3 450.7 723 449.8 746.5C448.9 763.8 476.8 766.5 479 747.9C480.3 733.3 481.1 711.6 481.1 704C480.8 699 478.4 698.8 474.8 698.4C471.1 698.1 469.9 698.5 470 695.8C470.2 686.3 471 653.1 471.7 638.6C471.5 635 472.7 633 477.2 633.7C494.8 634.4 524.9 639.1 549 643.4C553.7 644.2 557.2 645.3 554.3 651.5C543.9 685.1 528.9 720.4 510.9 747.8C491.7 779.6 470 800.2 459.4 806.3C449.9 812.4 425.6 814.5 417.6 814C409.2 813.9 399.3 809.6 395.3 806.3C380.1 792.9 371.6 764.2 370.9 710.9C369.3 626.6 369.9 545.6 387.6 505.5C392.8 493.6 398 481 421.7 480.4C471.6 486.2 532.5 514.3 569.3 534C572 535.7 573.5 538.5 573.5 543.1C574.1 556.9 568.3 591.6 563.9 614.2ZM591.8 422.7C585.5 453.1 568 482.8 541 473.5C518.2 462.5 512.1 425.2 531.9 378.8C550.1 342.1 566.1 344.1 573.7 349.6C579.6 352.9 599.4 371.6 591.8 422.7ZM550 307.1C550.1 306.4 560.4 221.8 561.1 198.5C584.9 237.1 591.7 300.4 593.8 327.3C584.6 314 564.5 308.6 550 307.1ZM153.8 673.4C151.8 673 139.6 673.1 137.8 673.4C134.1 673.5 134.2 676.8 134.3 680.4C134 687.2 134.7 729 135 731.9C135 736 134.8 743.3 139.9 743C142.7 743.5 151 744.3 156.6 743C169.6 740.9 170.7 678.8 153.8 673.4ZM137.1 614.9C139.5 614.8 147 614.6 151 612.8C161.1 610.5 163.3 553.8 149.6 555C144.6 555.1 134.7 555.4 132.9 555.7C129.2 555.8 129.3 559.1 129.4 562.7C129.5 568.9 130.5 605.7 130.8 608.7C130.8 612.7 132.1 615.2 137.1 614.9Z" fill="white"/>
</svg>
