<svg data-name="Layer 2" xmlns="http://www.w3.org/2000/svg" width="520.9" height="630.5">
    <path d="M140.1 0C-8.6 75.7-30.8 269.4 100.5 347c79.7 47.1 171.4 7.9 201.1 125.9C217.1 351.7 77 475.6 0 240.8c5.3 292.3 253.1 214.8 248.7 329.9-50.3-52.3-134.5-42.9-199.7-93.8 53.5 77 144.5 125.9 204.8 153.6 62-27.5 147.9-71.6 158.5-146.2 7.6-53.7-13.1-106.8-72-148.9 82.2 10.9 129 83.3 107.6 155.2 93.1-112.2 12.7-221.3-141.1-240.4 127.2-4.3 218.4 37.5 194.8 146.9 47.8-138 .2-153-74-181.7-19.1-7.4-35.3-14-49.2-29.5-41.1-46-6.6-130.7 66.5-88 3.1-45-12.9-57.8-63.3-58.2-93.2-37.4-153.7 3.1-199.8 122.8l32.2 58c-85.8-46.3-84.3-110.9-4.6-220.5-104.7 42.8-165.3 167.5-67.1 261.7C36.7 218.5 50.4 104.4 140.1 0Z" style="fill:#01be6e;fill-rule:evenodd" data-name="Layer 1"/>
</svg>
