<svg width="579" height="564" viewBox="0 0 579 564" fill="none" xmlns="http://www.w3.org/2000/svg">
<path d="M575.726 106.102C577.823 102.53 578.783 98.3511 578.405 94.1765C577.946 89.0951 577.231 85.1031 576.217 81.9725C574.175 75.6591 569.167 69.8845 559.474 62.6591C552.293 57.3071 543.474 51.9084 533.97 47.0484C516.213 37.9671 489.086 27.1418 460.699 27.1418C459.814 27.1418 458.93 27.1511 458.047 27.1738C457.602 27.1845 457.155 27.1898 456.707 27.1898C441.923 27.1898 424.506 21.2885 409.139 16.0805C400.855 13.2738 393.033 10.6218 385.563 8.78978C380.003 7.42444 369.139 5.11912 358.858 5.00979L358.654 5.00845C329.257 5.00845 311.651 10.1485 297.506 14.2778C293.945 15.3178 290.582 16.3005 287.405 17.0765C271.266 21.0231 258.409 22.7071 244.407 22.7071C217.229 22.7085 184.829 16.0458 139.35 1.10448C137.119 0.372475 134.797 0.000471499 132.443 0.000471499C123.306 0.000471499 115.199 5.44179 111.789 13.8658C103.507 34.3351 106.75 59.4898 120.25 79.5138C122.194 82.3991 124.297 85.1125 126.545 87.6485C65.598 116.719 34.3953 162.582 18.7313 197.394C9.53663 217.831 3.42729 239.61 1.06329 260.376C-1.12338 279.579 0.0886183 296.498 4.45928 307.974C5.97262 311.976 8.75531 315.279 12.2393 317.49C4.10198 383.559 26.9673 442.732 61.8353 473.912C65.4713 477.168 70.1553 478.96 75.026 478.96C76.7913 478.96 78.5326 478.722 80.2073 478.263C87.4033 490.794 95.8993 502.068 105.666 512.031C133.818 540.744 171.858 557.894 218.717 563.003L220.85 563.119C228.317 563.119 234.898 558.964 238.174 552.584C259.289 558.36 281.502 561.107 301.106 561.107C392.166 561.107 406.649 510.598 408.717 497.668C394.235 502.84 379.745 501.519 372.122 500.962C362.577 500.256 348.994 495.004 341.378 490.335L341.357 490.338L341.362 490.33C329.429 483.026 300.617 458.978 301.286 414.767C302.286 348.675 363.297 332.752 384.261 333.76C403.506 334.687 421.618 340.116 436.583 352.142L436.666 352.21C436.91 352.408 437.154 352.604 437.398 352.815L438.146 353.435C450.125 362.867 465.11 368.06 480.338 368.06C492.815 368.06 505.027 364.651 515.651 358.206C536.227 345.727 548.51 323.926 548.506 299.892C548.506 293.951 547.874 288.491 546.577 283.2L546.587 283.178C546.514 282.883 546.437 282.598 546.354 282.307L546.346 282.279C544.61 275.628 541.866 269.484 537.811 263.218C534.527 247.831 530.686 236.892 521.151 223.168C520.105 221.664 518.874 220.327 517.501 219.179C517.679 219.183 517.858 219.186 518.038 219.186C520.674 219.186 523.251 218.68 525.689 217.687C547.198 208.942 554.602 189.064 557.649 178.686L558.25 178.158C559.257 176.888 565.006 169.09 568.018 162.642C568.018 162.642 568.409 161.768 568.454 161.667L568.449 161.655C568.449 161.652 568.451 161.65 568.451 161.65C569.07 160.319 569.601 159.054 570.066 157.799C574.082 147.73 576.827 136.947 578.229 125.748C579.075 118.987 578.149 112.244 575.726 106.102Z" fill="white"/>
<path d="M385.016 72.5003C388.297 70.3483 391.079 67.4256 393.293 63.2683C393.593 63.3696 393.892 63.4829 394.193 63.5763C395.877 64.1056 397.556 64.6029 399.265 64.9229C400.969 65.2709 402.696 65.4336 404.443 65.4616C406.189 65.4936 407.96 65.3229 409.777 65.2389C405.981 67.6309 396.54 75.5216 385.016 72.5003ZM353.008 66.5229C350.975 61.1203 350.813 55.7216 354.08 51.3523C356.156 48.575 351.757 45.3056 343.344 48.3829C345.399 46.6443 348.097 45.7043 350.781 45.3416C353.485 44.9576 356.229 45.099 358.903 45.519C364.229 46.4296 369.405 48.4549 373.677 51.6989C373.675 51.6989 373.673 51.6976 373.673 51.6976C377.361 53.9616 381.081 57.0296 385.553 59.7856C385.204 63.4923 384.081 67.363 381.673 71.4736C372.66 68.555 364.183 65.2963 353.008 66.5229ZM549.247 102.672C540.057 96.9576 531.991 89.2963 527.749 82.8896C526.949 81.6816 528.371 80.2336 529.607 80.9896C537.031 85.5256 549.493 92.9789 558.209 96.5989C558.76 96.8269 559.351 96.3923 559.297 95.8003C558.973 92.2229 558.499 89.4309 557.964 87.7776C555.357 79.7216 504.049 45.1296 458.519 46.2523C431.671 46.9136 402.381 32.5683 380.989 27.3203C375.509 25.9763 366.409 24.1736 358.653 24.0909C324.549 24.0909 308.396 31.591 291.959 35.611C252.977 45.143 216.044 46.3936 133.374 19.2336C131.886 18.7443 130.156 19.5163 129.569 20.9683C116.319 53.739 145.994 102.158 195.416 91.6896C196.132 91.5376 196.568 92.459 195.999 92.9163C187.455 99.7816 169.42 101.956 158.027 98.5523C155.804 97.8869 153.507 97.6483 151.255 97.8243C151.255 97.811 151.253 97.7989 151.253 97.7856C27.6722 145.478 9.93215 270.743 22.6628 301.75C30.5202 273.816 42.5682 258.791 53.6922 247.747C8.41617 336.288 33.9522 424.842 76.2522 460.936C69.5722 440.255 69.4842 418.638 73.7855 400.382C86.8655 480.874 134.003 535.071 222.703 544.032C203.725 535.614 190.336 516.178 185.855 503.424C223.521 544.272 338.72 556.732 371.995 520.072C358.047 519.408 340.839 512.408 331.351 506.591L331.345 506.592C304.679 490.271 282.332 459.668 281.305 417.431C280.672 391.37 291.676 361.788 318.084 337.832C263.663 348.13 181.967 302.731 187.993 215.176C193.975 315.79 285.784 341.438 343.087 323.063C343.089 323.062 343.092 323.062 343.092 323.062C355.705 317.551 369.621 314.475 384.259 314.475C408.637 314.475 431.044 322.959 448.659 337.135C449.111 337.503 449.561 337.868 450.012 338.262C458.355 344.828 468.896 348.776 480.339 348.776C489.639 348.776 498.319 346.182 505.704 341.702C519.879 333.104 529.324 317.548 529.321 299.791C529.32 295.239 528.825 291.256 527.937 287.643C527.941 287.642 527.947 287.64 527.951 287.638C527.925 287.535 527.893 287.438 527.867 287.334C527.847 287.255 527.823 287.179 527.803 287.099C526.195 280.894 523.407 275.775 519.833 270.806C519.817 270.767 519.8 270.728 519.784 270.69C516.691 255.212 513.844 246.178 505.403 234.026C504.793 233.148 503.416 233.562 503.379 234.628C503.2 239.916 502.668 244.611 501.831 248.794C501.211 252.451 500.053 258.799 498.692 263.826C496.584 271.612 504.437 271.603 508.019 272.086C507.127 274.703 496.529 274.118 496.009 272.272C496.004 272.164 496 272.059 495.993 271.951C496.032 270.959 495.872 269.248 495.617 267.271C494.412 255.632 490.789 242.052 480.052 233.23C479.039 232.398 477.555 233.558 477.371 235.324C475.873 249.704 472.449 265.624 468.228 274.679C468.144 274.859 468.116 275.046 468.12 275.22C454.229 272.726 436.616 265.758 417.883 263.664C385.447 260.04 368.996 256.344 367.344 237.979C367.283 237.296 368.221 237.03 368.541 237.636C373.319 246.716 377.657 255.088 404.431 259.376C405.385 259.53 405.841 258.246 405.003 257.766C384.623 246.076 385.477 237.522 386.613 222.136C386.675 221.306 386.836 220.502 387.031 219.714C391.799 195.115 411.468 178.328 425.715 169.83C426.535 169.34 426.105 168.076 425.157 168.192C405.359 170.614 386.107 179.196 372.157 200.634C373.605 196.371 375.607 191.931 378.433 187.586C402.155 151.103 447.235 158.539 479.923 164.336C481.704 173.882 481.264 187.927 479.303 200.458C479.037 202.156 480.464 203.571 481.88 203.01C499.753 195.936 507.639 180.332 511.729 168.538C515.256 169.131 522.088 170.192 528.993 169.884C529.128 169.878 529.137 170.039 529.007 170.052C523.197 170.82 517.639 170.926 517.08 170.843C516.805 170.802 516.672 171.232 516.752 171.544C518.401 177.963 518.188 188.656 516.753 198.078C516.577 199.235 517.523 200.198 518.461 199.815C536.12 192.635 539.072 172.555 540.907 167.395C541.511 167.118 542.087 166.806 542.645 166.472C542.735 166.52 542.828 166.563 542.916 166.611C543.013 166.426 543.111 166.262 543.205 166.139C543.212 166.135 543.219 166.131 543.224 166.127C544.225 164.867 548.704 158.556 550.636 154.42C550.685 154.315 550.724 154.202 550.775 154.096C550.876 153.891 550.964 153.678 551.061 153.47C551.061 153.47 551.055 153.468 551.051 153.467C551.452 152.607 551.824 151.732 552.148 150.831C555.84 141.643 558.068 132.254 559.193 123.264C560.219 115.06 556.267 107.039 549.247 102.672Z" fill="black"/>
</svg>
