<?xml version="1.0" encoding="UTF-8"?>
<svg id="Layer_1" data-name="Layer 1" xmlns="http://www.w3.org/2000/svg" width="1080" height="1080" xmlns:xlink="http://www.w3.org/1999/xlink" viewBox="0 0 1080 1080">
  <defs>
    <style>
      .cls-1 {
        fill: #fff;
      }

      .cls-2 {
        fill: none;
      }

      .cls-3 {
        clip-path: url(#clippath-1);
      }

      .cls-4 {
        fill: #ec1a39;
      }

      .cls-5 {
        clip-path: url(#clippath);
      }
    </style>
    <clipPath id="clippath">
      <rect class="cls-2" y="0" width="1080" height="1080"/>
    </clipPath>
    <clipPath id="clippath-1">
      <rect class="cls-2" y="0" width="1080" height="1080"/>
    </clipPath>
  </defs>
  <g id="Layer_4" data-name="Layer 4">
    <g class="cls-5">
      <g class="cls-3">
        <path d="M286.515,688.301v-427.869h190.387c.545,0,.727-.182.909-.728l12.365-45.46c0-.545,0-1.273-.546-1.636l-64.916-52.188c-1.092-.728-.91-1.273.363-1.273l83.465-4.182c.545,0,1.091-.364,1.273-.91l29.821-78.373c.364-.909.728-.909,1.091,0l29.822,78.191c.182.546.727.91,1.273.91l83.464,4.182c1.273,0,1.455.545.364,1.273l-65.099,52.37c-.545.363-.545.909-.545,1.454l12.365,45.097c.182.727.727,1.091,1.455,1.091h189.113c.364,0,.546,0,.546.545v431.506c0,3.455-.182,6.91-.546,10.547-3.455,30.185-14.002,56.916-31.822,80.191-4.364,5.819-12.729,14.729-24.73,26.73-64.008,63.826-129.106,128.925-195.114,194.751-.728.545-1.273.727-2,0-3.274-3.091-6.728-6.546-10.365-10.183-61.826-61.644-123.469-123.288-185.295-184.931-11.82-11.82-20.184-20.73-24.73-26.731-20.73-27.094-31.458-58.734-32.368-94.374M556.729,174.967c-.182,0-.363,0-.545-.364l-15.457-40.914c0-.363-.545-.545-.727-.363,0,0-.364.181-.364.363l-15.456,40.914c0,.182-.364.364-.546.364l-43.641,2c-.364,0-.546.364-.546.546,0,0,0,.363.182.363l34.186,27.276c.182,0,.182.364.182.546l-11.638,42.187c0,.363,0,.727.364.727h.545l36.55-24.003h.727l36.55,24.003h.909v-.546l-11.637-42.186c0-.182,0-.546.182-.546l34.185-27.276c.182-.182.364-.545,0-.909l-.363-.182-43.642-2ZM757.48,304.982c0-.545-.545-1.091-1.091-1.091h-432.233c-.545,0-1.091.546-1.091,1.091v84.919c0,.546.546,1.092,1.091,1.092h432.233c.546,0,1.091-.546,1.091-1.092v-84.919ZM627.283,743.398v-309.673s0-.364-.364-.364h-303.49c-.182,0-.364.182-.364.364v239.119c0,16.911.727,28.913,2,36.186,5.274,28.549,18.548,48.915,39.278,69.645,15.092,14.911,30.003,29.822,44.732,44.732.182.182.728.182.91,0,0,0,.181-.363.181-.545v-170.929c0-.728.364-1.091,1.091-1.091h84.92c.545,0,1.091-.546,1.091-1.091v-84.738c0-.727-.364-1.273-1.273-1.273h-84.919c-.546,0-.91-.363-.91-.909v-40.914c0-.545.364-.909.91-.909h127.833c.545,0,.909.364.909.909v431.324c0,1.091.364,1.273,1.091.546,56.37-56.371,112.741-112.741,169.111-169.111,12.183-12.184,20.366-21.094,24.548-26.731,15.275-21.275,22.912-46.005,22.912-74.19v-250.03c0-.182-.182-.364-.363-.364h-86.374c-.182,0-.364.182-.364.364v199.114c0,17.093-.545,29.277-1.637,36.368-4.546,29.095-18.183,54.007-40.913,74.373q-.364.182-.364-.182h-.182Z"/>
        <path class="cls-4" d="M556.562,174.966l43.642,2c.363,0,.545.364.545.546,0,0,0,.363-.182.363l-34.186,27.276c-.182,0-.182.364-.182.546l11.638,42.187c0,.363,0,.727-.363.727h-.546l-36.55-24.003h-.727l-36.55,24.003h-.909v-.545l11.638-42.187c0-.182,0-.546-.182-.546l-34.186-27.276c-.182-.182-.364-.545,0-.909l.364-.182,43.641-2c.182,0,.364,0,.546-.364l15.456-40.914c0-.363.546-.545.727-.363,0,0,.364.182.364.363l15.456,40.914c0,.182.364.364.546.364"/>
        <path class="cls-1" d="M756.117,303.891h-432.233c-.603,0-1.091.489-1.091,1.091v84.919c0,.602.488,1.091,1.091,1.091h432.233c.602,0,1.091-.489,1.091-1.091v-84.919c0-.602-.489-1.091-1.091-1.091"/>
        <path class="cls-1" d="M627.192,743.396c0,.364,0,.546.364.182,22.73-20.548,36.368-45.278,40.914-74.373,1.091-7.091,1.636-19.093,1.636-36.368v-199.114c0-.182.182-.364.364-.364h86.374c.182,0,.363.182.363.364v250.03c0,28.185-7.637,52.915-22.911,74.19-4.001,5.637-12.184,14.547-24.549,26.731-56.552,56.37-112.922,112.74-169.111,169.111-.727.727-1.091.545-1.091-.546v-431.324c0-.545-.363-.909-.909-.909h-127.833c-.546,0-.909.364-.909.909v40.914c0,.546.363.909.909.909h84.919c.727,0,1.273.364,1.273,1.273v84.738c0,.545-.546,1.091-1.091,1.091h-84.919c-.728,0-1.091.363-1.091,1.091v170.929c0,.364-.182.727-.546.727-.182,0-.364,0-.545-.182-14.73-14.729-29.64-29.639-44.733-44.732-20.912-20.73-34.004-40.914-39.277-69.645-1.455-7.273-2.001-19.275-2.001-36.186v-239.119c0-.182.182-.364.364-.364h303.672s.364,0,.364.364v309.673Z"/>
      </g>
    </g>
  </g>
</svg>