<svg width="216" height="247" viewBox="0 0 216 247" fill="none" xmlns="http://www.w3.org/2000/svg">
<path d="M89.9 121.6L90.4 126.9C90.4 126.9 94.3 128.5 98 129.2C101.8 130.1 106.9 130.4 106.9 130.4L106.5 117.6C106.5 117.6 103.2 112.3 95.3 105.8C87.5 99.3 81.7 95.2 72 90.5C62.3 85.8 54.1 82.9 54.1 82.9C54.1 82.9 54 96 54.6 108.5C55.2 121.1 55.5 128 56.8 135.1C58.3 142.3 61.2 152.1 68.6 164.2C76 176.3 82.5 183.7 88.7 189.7C94.9 195.7 106.3 203.4 106.3 203.4C106.3 203.4 106.4 177.6 106.4 167.3C106.4 157.1 106.4 134.9 106.4 134.9C106.4 134.9 101.7 134.4 93.2 132.6C84.8 130.6 74.2 125.3 74.2 125.3C74.2 125.3 75.2 131.3 75.9 135.9C77.1 141.9 79.5 147.6 79.5 147.6C79.5 147.6 81.8 148.7 85.7 149.9C88.2 150.8 90.4 151.6 90.4 151.6L90.8 170.8C90.8 170.8 88 167.6 83.2 160.4C78.3 153.2 76.3 147.9 74.3 141.9C72.3 135.9 71.1 125.5 70.6 119.1C70.2 112.7 69.6 106.5 69.6 106.5C69.6 106.5 74.8 109.6 79.6 113.2C85 116.8 89.9 121.6 89.9 121.6Z" fill="white"/>
<path d="M146.201 147.6C152.001 145.8 158.301 143.3 158.301 143.3C158.301 143.3 159.701 138.7 161.001 131.6C162.301 124.5 163.001 116.3 163.501 104.7C164.001 93.1 163.901 82.5 163.901 82.5C163.901 82.5 152.601 86.9 146.901 89.5C141.201 92.1 138.901 93.6 132.701 97.6C126.501 101.8 122.501 105.6 118.501 109.1C114.401 112.6 110.201 117.6 110.201 117.6L110.301 130.5C110.301 130.5 114.901 130.1 119.201 129.4C122.701 128.8 127.301 127.1 127.301 127.1V122C127.301 122 129.801 120.2 131.701 118.7C133.701 117.2 136.901 115 136.901 115C136.901 115 139.101 112.2 139.601 111.3C140.201 110.3 143.101 105.1 144.301 102.9C145.401 100.7 148.501 94.3 148.501 94.3C148.501 94.3 146.001 101.8 145.201 104.5C144.301 107.2 143.001 111.2 143.001 111.2C143.001 111.2 144.601 110.2 146.101 109.5C147.601 108.6 149.601 107.8 149.601 107.8C149.601 107.8 149.601 112.5 148.601 115.4C147.601 118.5 146.001 121.8 145.101 122.8C144.201 123.8 142.601 125.4 140.701 126.9C138.701 128.3 134.901 130.1 134.901 130.1C134.901 130.1 129.701 139.6 128.101 142.1C126.401 144.6 123.001 148.8 123.001 148.8C123.001 148.8 125.201 143.6 126.501 140.4C127.901 137.1 130.101 131.9 130.101 131.9C130.101 131.9 124.301 133.4 118.901 134.2C113.601 135.1 110.101 135.2 110.101 135.2V203.9C110.101 203.9 120.201 197.9 125.901 192.6C131.701 187.3 135.501 183.4 142.701 173.4C149.901 163.3 155.601 149.2 155.601 149.2C155.601 149.2 150.401 151.5 146.401 152.7C142.601 153.7 136.801 155.3 136.801 155.3C136.801 155.3 133.501 161.6 131.601 164.1C129.601 166.7 125.301 171.3 125.401 171.5L125.901 152.4C126.201 152 139.401 149.7 146.201 147.6Z" fill="white"/>
<path d="M63.9998 81.4C71.8998 84.6 76.7998 87.3 83.4998 91.3C89.9998 95.4 96.8998 100.9 100.5 104.1C104 107.4 108.3 113.1 108.3 113.1C108.3 113.1 112.5 107.3 116.1 104.1C119.6 100.8 126.5 95.2 133.1 91.3C139.6 87.2 144.6 84.6 152.6 81.4C160.5 78.2 177.8 71.8 183.8 68.7C190 65.5 194.7 61.5 194.7 61.5C194.7 61.5 180.6 60.5 172.8 58.2C165 56 158.6 51.7 158.6 51.7C158.6 51.7 151.9 62.3 144.7 69.3C138 75.8 130.4 80.6 130.4 80.6C130.4 80.6 142.9 66.7 146.3 61.1C150 55.3 151.8 51.4 153.7 46.5C155.7 41.7 157 36.4 157.3 32.7C157.7 28.9 157.4 25.2 156.4 20.5C155.4 15.8 153.4 10.3 150.5 5.80002C147.7 1.20002 145 -0.0999756 145 -0.0999756C145 -0.0999756 142.8 4.00003 140.3 7.10003C137.2 10.9 133.1 14.3 133.1 14.3C133.1 14.3 136.2 18.2 137.3 21C138.4 23.8 139.6 28.4 139 33.7C138.4 39 136.7 43.6 136.7 43.6C136.7 43.6 132.5 42.1 129.1 39.8C125.6 37.6 124.4 37 119 32.5C113.5 28.1 108.6 23.7 108.6 23.7C108.6 23.7 103.7 28 98.1998 32.5C92.6998 37 91.4998 37.6 88.0998 39.8C84.5998 42 80.4998 43.6 80.4998 43.6C80.4998 43.6 78.7998 39 78.1998 33.7C77.5998 28.4 78.7998 23.8 79.8998 21C80.9998 18.2 84.0998 14.3 84.0998 14.3C84.0998 14.3 79.9998 10.8 76.8998 7.10003C74.3998 4.10003 72.1998 -0.0999756 72.1998 -0.0999756C72.1998 -0.0999756 69.4998 1.40002 66.6998 5.80002C63.8998 10.4 61.7998 15.7 60.7998 20.5C59.7998 25.2 59.5998 29 59.8998 32.7C60.2998 36.5 61.5998 41.7 63.4998 46.5C65.4998 51.3 67.2998 55.4 70.8998 61.1C74.3998 66.6 86.7998 80.6 86.7998 80.6C86.7998 80.6 78.9998 76 72.2998 69.3C65.0998 62.1 58.3998 51.7 58.3998 51.7C58.3998 51.7 52.0998 55.9 44.1998 58.2C36.3998 60.4 22.2998 61.5 22.2998 61.5C22.2998 61.5 26.6998 65.4 32.4998 68.7C38.8998 71.8 55.9998 78.2 63.9998 81.4Z" fill="white"/>
<path d="M194.9 121.2C188.6 113.7 185.8 107.5 182.4 97.4C179.1 87.3 179.1 76.9 179.1 76.9C179.1 76.9 176.1 77.9 172.6 79.1C169.1 80.3 167.3 81.1 167.3 81.1C167.3 81.1 167.7 87.6 167.4 95.3C167.2 103.1 167 117.9 165.8 128.8C164.7 139.8 162.3 146.4 158.5 155.1C154.7 163.9 144.7 180 131.9 192.8C119 205.7 107.9 210 107.9 210C107.9 210 97.0002 205.6 84.1002 192.9C71.3002 180.1 61.3002 163.9 57.5002 155.2C53.7002 146.4 51.3002 139.9 50.2002 128.9C49.1002 117.9 49.0002 103.1 48.6002 95.4C48.6002 87.8 49.0002 81.2 49.0002 81.2C49.0002 81.2 47.3002 80.5 43.7002 79.2C40.2002 78 37.2002 77 37.2002 77C37.2002 77 37.3002 87.4 33.9002 97.5C30.6002 107.6 27.7002 113.8 21.4002 121.3C15.0002 128.8 0.200195 139.2 0.200195 139.2C0.200195 139.2 10.6002 154.9 17.6002 164.2C24.6002 173.4 30.9002 181.2 37.3002 188.5C43.7002 195.7 52.3002 204.3 52.3002 204.3C52.3002 204.3 56.4002 198.3 59.0002 194.7C61.6002 191.2 67.4002 184.7 67.4002 184.7C67.4002 184.7 66.3002 187.8 65.2002 191.5C64.1002 195.2 63.0002 199.1 63.0002 199.1C63.0002 199.1 72.9002 208.7 78.2002 213.3C83.4002 218 90.7002 224.2 90.7002 224.2C90.7002 224.2 88.7002 225.7 85.8002 227.9C82.8002 230.1 81.4002 231.1 81.4002 231.1C81.4002 231.1 85.6002 234.9 89.2002 237.8C92.7002 240.6 100.9 246.2 100.9 246.2L108.4 241L115.9 246.2C115.9 246.2 124.3 240.7 127.6 237.8C131.1 235 135.4 231.1 135.4 231.1C135.4 231.1 133.9 230.1 131 227.9C128 225.7 126.1 224.2 126.1 224.2C126.1 224.2 133.3 217.9 138.6 213.3C143.8 208.7 153.8 199.1 153.8 199.1C153.8 199.1 152.7 195.2 151.6 191.5C150.6 187.7 149.4 184.7 149.4 184.7C149.4 184.7 155.2 191.2 157.8 194.7C160.4 198.2 164.5 204.3 164.5 204.3C164.5 204.3 173.3 195.5 179.5 188.5C186 181.2 192.2 173.6 199.2 164.2C206.2 154.8 216.2 139.2 216.2 139.2C216.2 139.2 201 128.7 194.9 121.2Z" fill="white"/>
<path fill-rule="evenodd" clip-rule="evenodd" d="M140 115.4C140.4 115.5 140.7 118.7 139.1 119.8C137.1 121.3 135 120.3 134.4 119.2C132.2 120.8 130.7 121.9 130.7 121.9V128.1C130.7 128.1 135.4 127.1 139.8 123.9C144.2 120.7 145.2 112.4 145.2 112.4C144.2 112.8 142.1 113.9 140 115.4Z" fill="#EE3D23"/>
</svg>
