<svg width="460" height="255" viewBox="0 0 460 255" fill="none" xmlns="http://www.w3.org/2000/svg">
<g clip-path="url(#clip0_1828_664)">
<path d="M167.748 255.412L182.368 214.215L102.201 225.833C99.781 226.269 83.612 228.931 65.506 227.721C53.6458 226.946 43.2377 224.671 34.5723 220.944C23.0507 216.054 14.5305 208.647 9.15701 199.014C7.94671 196.835 3.9287 189.283 1.9923 180.231C-0.234595 170.21 -1.68689 153.605 3.78341 131.627C4.07391 130.562 6.54281 120.735 11.9647 110.665C17.6287 100.015 28.7146 83.314 49.1921 63.901C50.4992 62.643 59.8423 53.638 74.946 44.053C89.808 34.613 113.626 22.462 142.866 18.299H143.011L283.545 0L275.751 22.753L354.805 11.667L348.366 29.917L307.75 147.651L460 126.06L375.766 224.235L371.361 224.962L167.748 255.412ZM217.03 185.749L202.507 226.753L363.712 202.645L402.295 157.672L273.379 175.922L320.288 39.89L241.525 50.927L249.416 27.739L145.964 41.197C120.887 44.828 100.216 55.381 87.291 63.562C73.591 72.276 65.458 80.312 65.361 80.361L65.119 80.603C46.8684 97.837 37.1864 112.36 32.3454 121.461C28.2305 129.206 26.2457 137.049 26.2457 137.097C21.8888 154.719 22.9538 167.499 24.5998 175.099C25.7132 180.182 28.1337 185.314 29.3924 187.541V187.637C32.2002 192.672 36.9928 196.642 43.6249 199.45C49.9182 202.112 57.8091 203.806 67.007 204.436C83.031 205.501 97.651 202.935 98.183 202.838H98.377L98.619 202.741L217.03 185.749Z" fill="#0096D7"/>
<path d="M290.468 161.787L337.281 26.0927L337.377 25.7547L258.517 36.8397L266.36 13.8457L144.318 29.7237C117.16 33.6447 94.891 44.9727 80.998 53.8317C65.942 63.4177 57.1799 72.1307 57.083 72.2277C37.6706 90.5757 27.3108 106.212 22.0341 116.088C17.2415 125.044 15.0147 133.854 14.8695 134.387C9.98 154.138 11.2387 168.806 13.1751 177.714C14.9663 185.895 18.9359 192.963 19.1779 193.35C23.2444 200.709 29.8766 206.373 38.9777 210.245C46.4812 213.44 55.5823 215.425 66.136 216.103C84.096 217.313 100.071 214.36 100.216 214.312L199.602 199.934L185.176 240.695L185.079 241.034L369.57 213.44H369.667L431.051 141.842L290.468 161.787ZM106.122 201.193C84.822 205.356 65.7 202.161 61.634 201.338C60.956 201.193 60.327 201.096 59.6488 200.999C46.9653 198.821 37.719 193.157 32.055 184.201C21.3564 167.257 27.0204 143.343 28.1822 139.083C28.3759 138.453 28.5211 137.824 28.6663 137.195C33.4589 117.927 46.1424 101.177 56.0664 90.4297C67.056 78.5217 77.076 71.2117 77.173 71.1627C103.992 49.6207 136.718 43.6657 137.008 43.6177L249.271 27.4487L234.603 68.8877L144.076 81.6677C136.379 82.7327 128.827 84.8147 121.71 87.8157C116.579 89.9947 113.142 92.0277 111.206 93.3347C109.802 94.2547 108.398 95.1747 106.994 96.0457C84.532 109.601 79.061 134.338 79.013 134.629C77.657 142.229 79.061 148.377 83.176 152.879C92.81 163.288 114.159 161.351 114.401 161.351L183.869 151.282H184.014L191.421 129.159L104.477 141.6L147.368 100.935L254.403 85.2987L221.096 184.879L106.122 201.193ZM361.486 201.919L203.766 225.93L213.399 197.949L229.084 195.722H229.229L272.847 64.3857L272.944 64.0947L259.921 65.4987L266.069 48.4097L318.836 40.9067L271.491 177.133L271.394 177.472H271.733C272.992 177.23 394.356 158.011 402.634 156.752C399.826 160.141 374.944 187.299 361.486 201.919Z" fill="white"/>
<path d="M402.634 156.703C399.826 160.14 374.943 187.298 361.533 201.918L203.813 225.93L213.447 197.949L229.132 195.722H229.277L272.895 64.3852L272.991 64.0952L259.969 65.4992L266.117 48.4102L318.884 40.9062L271.539 177.132L271.442 177.471H271.781C272.991 177.181 394.356 157.962 402.634 156.703Z" fill="#161D31"/>
<path d="M254.305 85.1542L220.999 184.734L106.122 201.241C82.208 205.937 61.052 201.241 60.81 201.241C47.546 199.208 37.864 193.496 32.0548 184.249C20.3395 165.66 28.2788 138.744 28.3756 138.454C32.9261 118.654 45.9485 101.468 56.0662 90.4792C67.055 78.5702 77.076 71.2602 77.173 71.2122C103.992 49.6692 136.717 43.7152 137.008 43.6672L249.271 27.4492L234.603 68.8882L149.498 80.8942C134.878 82.9762 120.79 87.8652 108.059 95.3202C107.478 95.6592 107.09 95.9012 106.945 95.9982C84.483 109.553 79.013 134.29 78.964 134.581C77.609 142.181 79.013 148.329 83.127 152.831C92.761 163.24 114.11 161.303 114.352 161.303L183.82 151.234H183.966L191.372 129.11L104.428 141.552L147.319 100.887L254.305 85.1542Z" fill="#161D31"/>
</g>
<defs>
<clipPath id="clip0_1828_664">
<rect width="460" height="255" fill="white"/>
</clipPath>
</defs>
</svg>
