<svg width="1335" height="1176" viewBox="0 0 1335 1176" fill="none" xmlns="http://www.w3.org/2000/svg">
<g clip-path="url(#clip0_685_6922)">
<mask id="mask0_685_6922" style="mask-type:luminance" maskUnits="userSpaceOnUse" x="-140" y="-213" width="1600" height="1600">
<path d="M-140 -213H1460V1387H-140V-213Z" fill="white"/>
</mask>
<g mask="url(#mask0_685_6922)">
<path d="M1215.1 569.619C1207.9 610.19 1185.5 645.745 1152.01 669.737L980.243 792.789L967.359 938.498L667.159 1153.2L367.213 937.249L356.118 794.111L187.287 676.335C152.994 652.411 130.041 616.571 122.654 575.419L25.4354 33.8007L668.742 366.19L1310.08 33.7594L1215.1 569.619ZM668.73 345.171L0.374023 -0.160656L104.282 578.717C112.547 624.767 138.233 664.873 176.607 691.646L338.189 804.366L349.271 947.333L667.123 1176.18L985.198 948.69L998.082 802.971L1162.88 684.913C1200.36 658.063 1225.43 618.275 1233.48 572.878L1335.06 -0.21396L668.73 345.171Z" fill="#FF0000"/>
<path d="M668.742 366.19L25.4355 33.8003L122.654 575.419C130.041 616.571 152.993 652.411 187.286 676.335L356.117 794.111L367.213 937.248L667.16 1153.2L967.359 938.498L980.244 792.788L1152.01 669.736C1185.5 645.744 1207.9 610.19 1215.1 569.619L1310.08 33.759L668.742 366.19Z" fill="black"/>
<path d="M326.846 467.559L306.983 243.59L101.513 136.892L141.429 357.026L326.846 467.559Z" fill="white"/>
<path d="M349.512 718.226L333.375 539.25L154.846 434.226L177.027 560.259C181.61 586.292 196.268 609.471 217.826 624.77L349.512 718.226Z" fill="white"/>
<path d="M1008.92 467.559L1028.78 243.59L1234.25 136.892L1194.34 357.026L1008.92 467.559Z" fill="white"/>
<path d="M986.252 718.226L1002.39 539.25L1180.92 434.226L1158.74 560.259C1154.15 586.292 1139.5 609.471 1117.94 624.77L986.252 718.226Z" fill="white"/>
<path d="M366.846 274.226L578.267 383.559L590.267 534.226L667.874 478.226L745.786 534.226L757.786 383.559L969.207 274.226L913.207 907.559L696.452 1063.56L696.599 906.28C696.642 860.31 718.947 817.208 756.452 790.624L845.512 727.5L854.846 627.5L668.784 738.654L481.207 627.5L490.54 727.5L580.004 790.37C618.008 817.078 640.539 860.692 640.324 907.143L639.6 1063.56L422.846 907.559L366.846 274.226Z" fill="white"/>
</g>
</g>
<defs>
<clipPath id="clip0_685_6922">
<rect width="1335" height="1176" fill="white"/>
</clipPath>
</defs>
</svg>
