<svg width="210" height="216" viewBox="0 0 210 216" fill="none" xmlns="http://www.w3.org/2000/svg">
<path fill-rule="evenodd" clip-rule="evenodd" d="M63.81 174.74C60.87 174.95 58.84 174.97 58.15 174.97H51.7L4.09 127.36H14.5C11.59 124.03 8.99002 120.42 6.77002 116.57L0 104.88L6.77002 93.18C11.54 84.93 18.04 77.72 25.75 72.1C24.28 62.7 24.78 52.97 27.23 43.78L30.72 30.72L43.78 27.23C49.53 25.69 55.48 24.91 61.46 24.91C65.03 24.91 68.6 25.19 72.11 25.74C77.72 18.05 84.95 11.52 93.19 6.76001L104.89 0L116.59 6.76999C124.85 11.55 132.05 18.05 137.67 25.75C141.2 25.2 144.77 24.91 148.32 24.91C154.29 24.91 160.24 25.69 166 27.23L179.05 30.72L182.54 43.78C185 52.99 185.5 62.69 184.03 72.1C191.73 77.72 198.25 84.95 203.01 93.18L209.78 104.88L203.01 116.58C200.79 120.42 198.2 124.04 195.28 127.36H205.7L158.09 174.97H151.64C150.95 174.97 148.92 174.95 145.97 174.74L104.91 215.8L63.81 174.74Z" fill="#FFF7E2"/>
<path fill-rule="evenodd" clip-rule="evenodd" d="M174.52 134.58C174.19 134.77 173.86 134.97 173.52 135.15H186.86L154.83 167.18H151.61C150.93 167.18 147.68 167.15 143.01 166.65L104.88 204.78L66.75 166.65C62.09 167.15 58.84 167.18 58.16 167.18H54.93L22.9 135.15H36.23C35.9 134.96 35.57 134.77 35.23 134.58C26.24 129.28 18.73 121.7 13.51 112.68L9 104.88L13.51 97.0795C18.56 88.3495 25.75 80.9795 34.35 75.7095L33.9 73.4895C32.06 64.3595 32.35 54.7795 34.75 45.7896L37.07 37.0895L45.77 34.7695C50.87 33.4095 56.14 32.7195 61.44 32.7195C66.22 32.7195 70.99 33.2795 75.63 34.3995L76.88 32.5195C82.03 24.7495 89.01 18.1895 97.07 13.5295L104.87 9.01953L112.67 13.5295C121.41 18.5795 128.78 25.7695 134.04 34.3795L136.25 33.9295C140.2 33.1295 144.25 32.7195 148.3 32.7195C153.59 32.7195 158.86 33.4095 163.96 34.7795L172.66 37.0995L174.98 45.7996C177.59 55.5496 177.71 65.8495 175.36 75.6495L177.24 76.8995C185 82.0595 191.57 89.0395 196.22 97.0895L200.73 104.89L196.22 112.69C191.01 121.7 183.5 129.27 174.52 134.58Z" fill="#2D231C"/>
<path fill-rule="evenodd" clip-rule="evenodd" d="M191.75 104.89L189.49 108.79C184.94 116.66 178.39 123.26 170.56 127.88C162.48 132.64 153.23 135.16 143.81 135.16C134.39 135.16 125.14 132.64 117.06 127.88C110.19 123.83 104.3 118.25 99.8902 111.62C99.2702 110.69 98.6902 109.75 98.1302 108.79L97.6102 107.9C89.2602 94.3197 74.9202 90.1997 65.9302 90.1997C54.2702 90.1997 43.3102 95.7297 36.3302 104.89C43.3102 114.05 54.2702 119.58 65.9302 119.58C80.1902 119.58 90.3502 110.9 90.3502 110.9L91.3902 112.69C92.0302 113.8 92.7102 114.89 93.4102 115.93C95.1502 118.54 97.0902 121.01 99.2102 123.32C97.1502 125 94.9702 126.52 92.6802 127.87C84.6002 132.63 75.3502 135.15 65.9302 135.15C56.5102 135.15 47.2602 132.63 39.1802 127.87C31.3502 123.25 24.8002 116.65 20.2502 108.78L17.9902 104.88L20.2502 100.98C24.8002 93.1098 31.3502 86.5097 39.1802 81.8897C47.2602 77.1297 56.5102 74.6098 65.9302 74.6098C75.3502 74.6098 84.6002 77.1297 92.6802 81.8897C94.9702 83.2397 97.1602 84.7598 99.2102 86.4298L104.87 91.7798C105.32 92.2698 105.76 92.7697 106.19 93.2697C106.79 93.9797 107.38 94.6998 107.93 95.4298C107.93 95.4298 113.03 102.04 114.66 104.29C118.45 109.52 122.71 115.37 136.06 118.73C138.58 119.27 141.18 119.56 143.81 119.56C155.47 119.56 166.43 114.03 173.41 104.87C171.13 101.88 168.42 99.2698 165.41 97.1198C168.51 92.8698 171.04 88.2598 172.94 83.3698C179.72 87.8698 185.41 93.9098 189.49 100.97L191.75 104.89ZM85.1002 105.12C84.2502 105.78 81.0902 108.08 76.5002 109.79C76.4702 109.81 76.4302 109.82 76.3902 109.83C75.6502 110.1 74.8702 110.36 74.0602 110.6C67.6202 108.09 61.7102 104.32 56.6902 99.4898C56.9002 99.4198 57.1102 99.3498 57.3202 99.2898C57.4802 99.2398 57.6502 99.1897 57.8102 99.1397C58.0002 99.0797 58.1802 99.0298 58.3802 98.9798C58.6902 98.8898 59.0002 98.8198 59.3202 98.7398C59.3902 98.7198 59.4702 98.6998 59.5502 98.6898C59.7602 98.6398 59.9702 98.5998 60.1802 98.5498C60.3802 98.4998 60.5902 98.4598 60.8002 98.4298C60.9502 98.3998 61.0902 98.3798 61.2502 98.3498C61.4102 98.3298 61.5602 98.2998 61.7102 98.2798C61.9802 98.2298 62.2502 98.1998 62.5202 98.1698C62.6802 98.1498 62.8402 98.1298 62.9902 98.1198C63.1602 98.0998 63.3302 98.0897 63.4902 98.0697C63.5802 98.0597 63.6602 98.0498 63.7402 98.0498C63.8802 98.0398 64.0202 98.0297 64.1602 98.0197C64.3602 98.0097 64.5502 97.9998 64.7502 97.9898C64.9502 97.9798 65.1502 97.9698 65.3402 97.9698C65.5302 97.9698 65.7402 97.9597 65.9302 97.9597C66.1102 97.9597 66.2802 97.9598 66.4602 97.9698C71.8902 98.0898 78.9702 100.04 84.8202 104.87C84.9202 104.94 85.0102 105.03 85.1002 105.1V105.12ZM159.12 92.5398C159.29 92.3098 159.46 92.0798 159.62 91.8398C159.41 92.1497 159.19 92.4498 158.96 92.7498L159.12 92.5398ZM56.5902 67.5598C55.9802 63.9098 55.9102 60.1498 56.4102 56.4198C62.7802 55.5598 69.2202 56.3698 75.1102 58.6998C79.7702 60.5398 84.0902 63.3197 87.7302 66.9597C88.6802 67.9097 89.5702 68.9098 90.4002 69.9398C91.2002 70.9298 91.9402 71.9597 92.6202 73.0197C93.9802 73.6897 95.3202 74.4097 96.6302 75.1797C102.49 78.6397 107.73 83.0598 112.11 88.2298C112.81 89.0498 113.47 89.8798 114.12 90.7298C114.05 89.1398 113.89 87.5397 113.67 85.9597C113.4 83.9597 113 81.9698 112.49 79.9998C110.14 70.9198 105.38 62.5998 98.7202 55.9398C97.0002 54.2198 95.1702 52.6298 93.2402 51.1698C89.0602 47.9998 84.4302 45.4697 79.5002 43.6797C77.9102 43.0997 76.2902 42.5898 74.6502 42.1698C65.8502 39.8998 56.5502 39.9398 47.7702 42.2798L43.4202 43.4398L42.2602 47.7898C40.1602 55.6698 39.9102 63.9598 41.5202 71.9398C46.3302 69.8398 51.3902 68.3598 56.5902 67.5598ZM84.8202 104.89C78.9702 100.07 71.8902 98.1098 66.4602 97.9998C73.1902 98.1198 79.7002 100.61 84.8202 104.89ZM74.0602 110.6C74.8702 110.37 75.6502 110.11 76.3902 109.83C75.6402 110.12 74.8702 110.38 74.0902 110.61C74.0902 110.61 74.0802 110.61 74.0602 110.6ZM167.58 74.6898C167.16 76.3298 166.65 77.9498 166.07 79.5398C165.96 79.8498 165.84 80.1497 165.73 80.4597C165.5 81.0697 165.25 81.6797 164.99 82.2697C164.87 82.5597 164.74 82.8597 164.6 83.1497C164.59 83.1797 164.58 83.2098 164.56 83.2398C164.46 83.4598 164.36 83.6797 164.25 83.8997C164.19 84.0198 164.14 84.1497 164.07 84.2697C163.98 84.4497 163.9 84.6298 163.81 84.7998C163.78 84.8798 163.74 84.9598 163.7 85.0298C163.57 85.2998 163.43 85.5597 163.3 85.8197C163.15 86.0997 163.01 86.3898 162.85 86.6598C162.56 87.1998 162.26 87.7298 161.94 88.2498C161.8 88.4898 161.66 88.7297 161.51 88.9597C161.51 88.9697 161.5 88.9798 161.49 88.9898C161.36 89.1998 161.23 89.4197 161.09 89.6297C161.07 89.6597 161.05 89.6998 161.03 89.7298C160.88 89.9598 160.73 90.1898 160.58 90.4298C160.42 90.6698 160.26 90.9097 160.1 91.1397C159.94 91.3797 159.78 91.6097 159.61 91.8398C159.45 92.0698 159.28 92.3098 159.11 92.5398L158.96 92.7498C158.83 92.9298 158.71 93.0997 158.57 93.2697C157.11 95.1997 155.52 97.0298 153.8 98.7498C150.47 102.08 146.72 104.94 142.67 107.25C140.34 108.58 137.92 109.73 135.41 110.7C131.07 109.79 128.5 108.63 126.69 107.22L128.23 105.45C129.05 104.51 129.88 103.49 130.67 102.44C132.07 100.59 133.38 98.6397 134.55 96.6497C135.32 95.3398 136.05 93.9897 136.71 92.6297C137.77 91.9497 138.8 91.2098 139.78 90.4098C140.82 89.5798 141.82 88.6898 142.77 87.7398C146.42 84.0998 149.2 79.7897 151.03 75.1198C152.75 70.7698 153.65 66.0998 153.65 61.3898C153.65 59.7398 153.54 58.0698 153.32 56.4198C149.59 55.9198 145.84 55.9898 142.18 56.5998C141.37 51.4098 139.89 46.3498 137.78 41.5498C145.76 39.9298 154.05 40.1798 161.93 42.2898L166.28 43.4498L167.44 47.7998C169.79 56.5798 169.82 65.8797 167.55 74.6797L167.58 74.6898ZM104.87 36.3498C109.98 40.2498 113.96 45.3797 116.48 51.1797C118.48 55.7797 119.56 60.7898 119.56 65.9498C119.56 67.2898 119.49 68.6198 119.35 69.9498C119.21 71.2198 119.01 72.4698 118.74 73.6998C119.23 75.1398 119.67 76.5898 120.05 78.0698C120.63 80.3198 121.08 82.6298 121.4 84.9198C121.65 86.7198 121.82 88.5697 121.91 90.3797L122.38 100.35C123.11 99.5098 123.81 98.6398 124.48 97.7498C125.7 96.1398 126.83 94.4497 127.86 92.6997C132.62 84.6197 135.14 75.3698 135.14 65.9498C135.14 63.5198 134.97 61.0898 134.64 58.6998C133.92 53.4998 132.44 48.4398 130.22 43.6898C129.51 42.1598 128.72 40.6598 127.86 39.1998C123.24 31.3598 116.64 24.8197 108.77 20.2697L104.87 18.0098L100.97 20.2697C93.9102 24.3497 87.8702 30.0398 83.3802 36.8198C88.2602 38.7198 92.8802 41.2498 97.1302 44.3498C99.2802 41.3298 101.89 38.6298 104.87 36.3498ZM141.45 142.89C131.45 142.5 121.7 139.65 113.11 134.57C110.22 132.86 107.46 130.91 104.88 128.74C102.3 130.91 99.5402 132.87 96.6502 134.57C88.0502 139.64 78.3002 142.5 68.3102 142.89C58.1602 142.94 58.2202 142.94 58.1602 142.94H41.7002L58.1602 159.4C58.6902 159.4 71.2502 159.35 83.9802 155.11C91.9202 152.46 98.3502 148.72 103.09 143.98C103.72 143.35 104.32 142.71 104.88 142.05C105.45 142.71 106.04 143.36 106.67 143.98C111.41 148.72 117.84 152.46 125.78 155.11C138.51 159.36 151.08 159.4 151.6 159.4L168.06 142.94H151.6C151.55 142.94 151.61 142.94 141.45 142.89ZM116.7 159.92L104.87 171.75L93.0402 159.92C90.9402 160.86 88.7402 161.72 86.4302 162.49C82.9502 163.65 79.5102 164.53 76.2802 165.18L104.87 193.77L133.46 165.18C130.23 164.52 126.79 163.65 123.31 162.49C121 161.72 118.8 160.86 116.7 159.92Z" fill="#FCC600"/>
</svg>
