<?xml version="1.0" encoding="UTF-8"?>
<svg id="Layer_1" xmlns="http://www.w3.org/2000/svg" version="1.1" viewBox="0 0 1080 1080">
  <!-- Generator: Adobe Illustrator 29.4.0, SVG Export Plug-In . SVG Version: 2.1.0 Build 152)  -->
  <defs>
    <style>
      .st0 {
        fill: #010101;
      }

      .st1 {
        fill: #fff;
      }

      .st2 {
        fill: #d7fc00;
      }
    </style>
  </defs>
  <g id="Layer_11" data-name="Layer_1">
    <g>
      <path class="st1" d="M504.45,191.49c8.24.31,15.39.97,22.33,2.91,2.96.81,4.82.13,6.36-2.75,3.48-6.47,7.07-12.96,11.12-19.05,9.68-14.55,23.71-21.52,40.96-22.2,14.16-.58,27.56,3.17,40.7,7.93,10.18,3.69,20.26,7.7,30.02,12.41,3.06,1.49,5.58,1.39,8.56-.24,9.13-5,18.43-9.76,27.67-14.58,24.68-12.85,51.12-16.91,78.58-14.95,31.57,2.25,60.8,12.07,88.26,27.56,11.75,6.65,20.76,15.76,26.17,28.29,7.35,17.04,5.97,33.48-3.25,49.42-6.86,11.86-13.64,23.74-20.57,35.57-1.54,2.64-3.46,5.1-5.44,7.41-1.73,1.99-1.47,3.4.34,5.08,5,4.58,9.4,9.68,13.3,15.23,5.86,8.32,9.82,17.35,10.94,27.61,1.1,9.92-.92,19.13-5.52,27.82-3.35,6.31-6.94,12.51-10.68,18.61-1.44,2.36-1.23,3.69.68,5.71,5.47,5.81,10.44,11.99,14.42,19,10.6,18.64,11.12,36.98.08,55.8-18.85,32.06-37.3,64.39-55.86,96.61-17.64,30.62-35.23,61.33-52.9,91.95-15.84,27.43-31.8,54.81-47.69,82.21-4.5,7.77-8.87,15.65-13.32,23.45-5.5,9.66-12.83,17.54-23.03,22.22-2.7,1.23-3.53,2.64-3.53,5.5.08,14.37-3.72,27.88-9.48,40.91-10.13,22.88-22.67,44.42-36.8,64.99-10.65,15.5-23.5,28.95-40.62,37.51-21.83,10.91-44.63,12.51-68.16,6.81-18.79-4.53-36.46-11.96-53.89-20.1-21.31-9.95-42.48-20.18-62.48-32.67-14.74-9.19-27.98-20-36.72-35.41-.81-1.44-1.81-2.02-3.4-2.04-20.34-.1-38.35-7.67-55.38-17.85-31.28-18.71-61.41-39.18-89.46-62.53-18.87-15.7-31.1-35.65-35.41-60.02-1.81-10.18-1.68-20.49.92-30.49,6.15-23.58,17.12-44.6,35.1-61.48,1.62-1.52,2.12-3.3,2.8-5.23,6.94-19.97,16.96-38.03,32.53-52.69,3.9-3.66,8.17-6.83,12.72-9.58,1.81-1.07,2.51-2.33,2.41-4.42-.47-10.81,3.17-20.44,8.53-29.63,12.28-20.99,24.5-42.04,36.64-63.11,13.9-24.08,27.67-48.21,41.54-72.29,10.21-17.72,20.57-35.34,30.81-53.03,12.07-20.89,24.03-41.83,36.09-62.71,8.38-14.53,16.8-29,25.23-43.5,11.41-19.6,29.47-26.28,47.77-25.99l.03.03ZM828.88,290.38c8.79-3.64,15.47-9.16,20-16.99,6.26-10.78,12.43-21.59,18.56-32.46,1.99-3.53,4.4-6.86,5.52-10.91,5.5-20.08-3.25-37.9-20.05-47.59-27.9-16.07-57.79-25.81-90.17-26.72-20.49-.58-40.44,2.38-59.05,11.46-12.64,6.2-25.13,12.77-37.53,19.47-3.72,2.02-6.73,2.46-10.71.44-9.63-4.92-19.71-8.93-29.81-12.8-11.1-4.27-22.33-8.04-34.31-8.74-16.91-.99-29.29,4.92-37.43,20.21-4.14,7.75-8.66,15.29-13.09,22.88-2.59,4.45-2.67,4.45-7.51,3.01-10.84-3.22-21.78-5.68-33.19-4.95-12.41.79-22.77,5.76-29.26,16.52-11.7,19.42-22.85,39.18-34.18,58.84-12.14,21.07-24.24,42.17-36.38,63.21-10.1,17.51-20.34,34.97-30.44,52.51-12.04,20.89-24,41.83-36.04,62.69-11.96,20.7-24.11,41.3-35.94,62.06-3.56,6.26-5.71,13.09-5.23,20.52.24,3.64,3.32,7.75,1.52,10.42-1.75,2.62-6.41,3.11-9.55,4.97-19.71,11.67-30.68,30.13-38.45,50.75-2.43,6.47-3.53,13.43-10.37,17.14-.5.29-.79.92-1.2,1.36-12.14,12.62-20.39,27.61-25.68,44.13-5.03,15.7-4.45,31.44,1.7,46.88,5.81,14.61,15.18,26.46,27.14,36.54,13.64,11.49,28.24,21.67,42.8,31.88,16.25,11.39,32.67,22.51,50.18,31.88,15.57,8.32,31.83,14.06,49.91,11.41,2.07-.31,2.88.65,3.64,2.33,1.44,3.14,2.75,6.33,4.63,9.32,7.15,11.36,17.12,19.74,28.19,26.88,19.63,12.67,40.6,22.8,61.67,32.72,17.2,8.11,34.65,15.57,53.21,20.08,20.68,5,40.65,3.46,59.52-6.78,14.97-8.11,25.62-20.78,35.13-34.52,7.67-11.12,14.37-22.82,20.94-34.6,6.47-11.6,12.59-23.4,16.62-36.12,3.64-11.46,5.16-23.14,2.8-35.1-.73-3.77-.71-3.85,3.35-4.5,8.4-1.39,15.42-5.18,21.04-11.6,2.98-3.4,5.13-7.38,7.38-11.28,13.9-24.05,27.67-48.19,41.56-72.24,12.17-21.04,24.5-42.01,36.64-63.08,15.73-27.25,31.3-54.57,47.04-81.82,14-24.24,27.93-48.53,42.22-72.58,7.77-13.09,8.82-25.97,1.44-39.5-5.26-9.66-12.46-17.67-20.39-25.13-3.61-3.4-3.66-3.38-1.26-7.54,4.61-7.96,9.19-15.94,13.9-23.84,6.6-11.1,8.11-22.38,2.43-34.47-3.64-7.75-8.87-14.16-14.68-20.21-5.63-5.84-12.12-10.71-18.66-16.39l-.1-.05Z"/>
      <path class="st0" d="M828.88,290.38c6.54,5.68,13.06,10.55,18.66,16.39,5.84,6.05,11.05,12.46,14.68,20.21,5.71,12.09,4.16,23.35-2.43,34.47-4.69,7.9-9.29,15.86-13.9,23.84-2.41,4.16-2.36,4.16,1.26,7.54,7.93,7.46,15.13,15.44,20.39,25.13,7.38,13.56,6.33,26.41-1.44,39.5-14.29,24.08-28.22,48.34-42.22,72.58-15.73,27.25-31.3,54.57-47.04,81.82-12.14,21.07-24.47,42.01-36.64,63.08-13.9,24.05-27.67,48.19-41.56,72.24-2.25,3.9-4.4,7.85-7.38,11.28-5.6,6.39-12.64,10.21-21.04,11.6-4.06.68-4.08.76-3.35,4.5,2.36,11.96.84,23.64-2.8,35.1-4.03,12.72-10.16,24.53-16.62,36.12-6.57,11.78-13.27,23.48-20.94,34.6-9.5,13.74-20.15,26.41-35.13,34.52-18.87,10.26-38.84,11.78-59.52,6.78-18.58-4.5-36.02-11.96-53.21-20.08-21.07-9.92-42.06-20.05-61.67-32.72-11.1-7.17-21.07-15.52-28.19-26.88-1.86-2.98-3.19-6.18-4.63-9.32-.76-1.68-1.57-2.62-3.64-2.33-18.09,2.64-34.34-3.06-49.91-11.41-17.51-9.37-33.95-20.52-50.18-31.88-14.58-10.21-29.18-20.39-42.8-31.88-11.94-10.05-21.31-21.93-27.14-36.54-6.15-15.44-6.73-31.17-1.7-46.88,5.29-16.52,13.53-31.51,25.68-44.13.42-.44.71-1.1,1.2-1.36,6.81-3.72,7.9-10.68,10.37-17.14,7.8-20.63,18.77-39.08,38.45-50.75,3.14-1.86,7.8-2.36,9.55-4.97,1.81-2.67-1.28-6.78-1.52-10.42-.47-7.43,1.68-14.27,5.23-20.52,11.83-20.76,24-41.36,35.94-62.06,12.07-20.86,24-41.8,36.04-62.69,10.1-17.51,20.31-35,30.44-52.51,12.14-21.04,24.24-42.17,36.38-63.21,11.33-19.66,22.48-39.39,34.18-58.84,6.47-10.76,16.83-15.73,29.26-16.52,11.41-.73,22.35,1.73,33.19,4.95,4.84,1.44,4.92,1.44,7.51-3.01,4.42-7.59,8.98-15.13,13.09-22.88,8.14-15.29,20.52-21.2,37.43-20.21,11.99.71,23.22,4.48,34.31,8.74,10.1,3.87,20.18,7.88,29.81,12.8,3.95,2.02,6.96,1.57,10.71-.44,12.41-6.7,24.87-13.27,37.53-19.47,18.61-9.11,38.55-12.07,59.05-11.46,32.38.92,62.27,10.68,90.17,26.72,16.8,9.68,25.55,27.51,20.05,47.59-1.1,4.06-3.51,7.35-5.52,10.91-6.12,10.84-12.33,21.67-18.56,32.46-4.53,7.85-11.2,13.35-20,16.99l.1.05ZM660.34,738.12c3.95.65,7.12-.86,9.03-5,1.1-2.41,2.54-4.66,3.87-6.96,12.2-21.04,24.47-42.06,36.62-63.13,15.73-27.27,31.38-54.6,47.11-81.87,12.17-21.07,24.45-42.06,36.64-63.13,14.63-25.31,29.21-50.65,43.82-75.96,3.11-5.37,3.04-7.77-.79-12.83-4.84-6.41-10.65-11.88-16.7-17.09-20.05-17.25-41.7-32.38-63.71-46.96-7.77-5.16-9.19-5.08-15.99.84-.63.55-1.2,1.13-1.81,1.68-12.12,10.71-24.21,21.44-36.33,32.14-27.14,24-54.26,48-81.4,72.01-8.59,7.59-17.28,15.08-25.78,22.75-3.38,3.04-7.28,2.09-11.07-.94-3.04-2.41-3.35-5.26-.99-9.32,7.96-13.82,15.99-27.59,24-41.38,10.16-17.51,20.31-35.02,30.44-52.53,12.49-21.59,24.89-43.21,37.4-64.81,3.48-6.02,3.06-8.24-2.83-12.04-.86-.55-1.73-1.07-2.62-1.57-25.13-14.16-50.52-27.8-76.51-40.33-21.93-10.55-44.03-20.76-67.24-28.24-6.05-1.96-12.17-3.51-18.45-4.42-4.84-.71-8.53.42-11.1,5.31-4.37,8.32-9.42,16.28-14.13,24.42-12.04,20.91-24,41.85-36.07,62.74-12.17,21.07-24.45,42.06-36.62,63.13-13.9,24.08-27.72,48.21-41.59,72.29-12.75,22.14-25.1,44.55-38.53,66.27-4.29,6.96-3.25,11.57,1.33,16.86.94,1.07,1.88,2.17,2.85,3.22,7.77,8.48,16.67,15.73,25.62,22.88,6.18,4.92,9.82,4.27,13.77-2.49,10.02-17.12,19.89-34.31,29.81-51.49,10.52-18.24,21.04-36.49,31.54-54.73,8.35-14.53,16.7-29.08,25.05-43.61,4.5-7.8,9.03-15.57,13.56-23.35,1.28-2.22,2.85-4,5.76-3.87,5.31.24,9,4.29,8.64,9.68-.1,1.62-.29,3.27-.6,4.87-4.34,21.23-8.77,42.45-13.09,63.68-5.37,26.23-10.6,52.51-15.99,78.73-4.76,23.24-9.63,46.46-14.45,69.68-1.73,8.38-1.2,9.76,5.97,14.08,13.32,7.98,26.67,15.97,40.13,23.77,10.81,6.23,21.75,12.25,32.69,18.22,5.68,3.09,7.2,2.83,12.04-1.26.94-.79,1.88-1.57,2.8-2.38,14.08-12.49,28.16-25,42.27-37.48,32.95-29.18,65.91-58.34,98.89-87.5,8.27-7.33,16.7-14.5,24.87-21.93,4.21-3.82,8.32-1.83,11.52.81,3.11,2.54,3.27,5,.81,9.27-5.92,10.29-11.88,20.52-17.82,30.78-10.26,17.69-20.52,35.36-30.75,53.06-12.49,21.59-24.94,43.21-37.4,64.81-5.21,9.03-10.42,18.06-15.55,27.14-2.43,4.29-1.78,7.07,2.28,9.92,1.15.81,2.51,1.33,3.82,1.88,8.14,3.3,16.41,6.33,24.87,8.77,5.1,1.47,10.23,2.96,16.07,2.98l.03-.05ZM275.71,643.34c-10-.79-16.41,4.29-21.72,11.23-5.26,6.86-9.5,14.34-12.72,22.3-5.26,12.98-4.06,25.49,3.35,37.56,4.27,6.96,9.84,12.54,16.07,17.54,23.14,18.58,47.56,35.36,72.74,51.04,8.14,5.08,16.44,9.95,25.57,13.11,15.99,5.52,28.9,1.86,39.47-11.05,4.42-5.42,7.7-11.52,11.02-17.62,5.47-10.1,8.09-20.34,2.7-31.62,7.41-.08,12.75-3.48,17.01-8.38,7.72-8.87,13.64-18.92,17.12-30.18,2.59-8.38,1.68-16.59-2.83-24.26-5.21-8.87-13.17-15.05-21.2-21.02-25.15-18.58-51.2-35.94-77.14-53.42-8.48-5.71-17.12-11.23-27.25-13.72-8.24-2.02-15.76-.71-22.27,5.18-9.03,8.17-14.53,18.58-19.03,29.66-3.01,7.43-3.46,15.08-.92,23.64h.03ZM553.92,891.84c2.96-.1,6.39-.21,9.84-.94,12.49-2.7,21.65-10.21,29.32-19.92,13.09-16.62,23.01-35.2,32.8-53.81,3.9-7.41,7.07-15.15,8.93-23.4,2.38-10.52,0-19.87-6.75-28.14-5.68-6.96-13.3-11.41-20.99-15.7-20.02-11.12-40.96-20.36-61.54-30.34-13.95-6.75-27.95-13.53-42.95-17.8-7.17-2.04-14.42-2.75-21.83-1.36-11.86,2.2-20.15,9.63-27.2,18.64-13.14,16.8-23.3,35.52-33.14,54.36-3.98,7.59-7.28,15.52-8.9,24.05-2.54,13.56,1.52,25.02,11.05,34.68,3.46,3.51,7.38,6.49,11.57,9.06,28.82,17.67,58.97,32.56,90.64,44.42,9.21,3.46,18.64,6.18,29.13,6.23l.03-.03ZM589.88,197.91c-3.22-.21-5.86.16-7.7,3.56-4.79,8.79-9.95,17.38-14.92,26.07-2.15,3.74-1.83,5.78,1.28,8.61,1.54,1.39,3.43,2.17,5.29,3.06,13.87,6.54,27.85,12.85,41.51,19.79,65.2,33.08,128.15,69.94,187.7,112.47,1.65,1.18,3.22,2.51,5.23,3.14,3.8,1.23,6.18.39,8.24-3.11,5.16-8.82,10.16-17.75,15.44-26.49,1.49-2.49,1.47-4.58-.1-6.78-2.12-3.01-4.48-5.84-7.15-8.4-11.8-11.44-25.05-21.04-38.5-30.39-33.66-23.35-68.81-44.21-105.01-63.39-23.32-12.35-46.9-24.13-71.77-33.11-6.33-2.3-12.75-4.48-19.53-5.03h-.03ZM713.95,198.22c2.02,2.12,3.43,3.61,4.84,5.05,7.43,7.59,14.92,15.15,22.33,22.77,1.07,1.1,2.83,2.2,1.62,4.03-1.41,2.12-3.22.99-4.84.08-3.56-2.02-7.09-4.06-10.63-6.1-8.14-4.69-16.31-9.32-24.39-14.13-2.3-1.39-4.06-1.57-5.81.65-.76.97-1.75,1.73-2.54,2.67-3.48,4.32-3.06,8.17,1.41,11.57,1.62,1.23,3.48,2.12,5.26,3.14,6.94,3.93,13.9,7.8,20.78,11.8,9.37,5.44,18.69,10.94,27.95,16.52,4.82,2.91,9.27,3.64,14.03-.37,4.19-3.51,9.34-4.97,14.81-5.16,4.95-.16,5.23.16,4.95-5.71-.42-8.59-.44-17.2-.55-25.78,0-1.33-.52-3.06,1.31-3.66,2.02-.65,3.59.24,4.74,1.91.34.5.65,1.05.92,1.6,1.36,2.75,2.75,5.47,4.08,8.24,4.5,9.4,8.82,18.87,13.51,28.14,2.98,5.89,10.42,6.02,13.74.34,6.28-10.76,12.41-21.59,18.51-32.46,3.46-6.15,2.59-9.42-3.56-13.01-4.58-2.67-9.32-5.13-14.13-7.33-25.81-11.73-52.64-17.69-81.09-13.58-9.32,1.33-18.3,3.85-27.22,8.74l-.03.03Z"/>
      <path class="st2" d="M660.34,738.12c-5.84,0-10.97-1.52-16.07-2.98-8.45-2.41-16.73-5.44-24.87-8.77-1.31-.52-2.67-1.07-3.82-1.88-4.06-2.83-4.71-5.63-2.28-9.92,5.16-9.06,10.34-18.11,15.55-27.14,12.46-21.62,24.92-43.21,37.4-64.81,10.23-17.69,20.49-35.39,30.75-53.06,5.94-10.26,11.91-20.49,17.82-30.78,2.46-4.27,2.28-6.73-.81-9.27-3.22-2.64-7.33-4.63-11.52-.81-8.17,7.43-16.59,14.61-24.87,21.93-32.95,29.16-65.93,58.32-98.89,87.5-14.11,12.49-28.19,25-42.27,37.48-.92.81-1.86,1.6-2.8,2.38-4.87,4.08-6.39,4.37-12.04,1.26-10.94-5.99-21.88-11.99-32.69-18.22-13.45-7.77-26.8-15.76-40.13-23.77-7.17-4.32-7.7-5.71-5.97-14.08,4.82-23.22,9.68-46.43,14.45-69.68,5.37-26.23,10.63-52.48,15.99-78.73,4.34-21.23,8.74-42.45,13.09-63.68.34-1.6.5-3.25.6-4.87.37-5.37-3.32-9.45-8.64-9.68-2.91-.13-4.45,1.65-5.76,3.87-4.53,7.77-9.06,15.55-13.56,23.35-8.38,14.53-16.7,29.08-25.05,43.61-10.5,18.24-21.02,36.49-31.54,54.73-9.92,17.17-19.81,34.37-29.81,51.49-3.95,6.78-7.62,7.41-13.77,2.49-8.95-7.15-17.85-14.4-25.62-22.88-.97-1.05-1.91-2.15-2.85-3.22-4.58-5.29-5.63-9.89-1.33-16.86,13.43-21.72,25.78-44.13,38.53-66.27,13.87-24.11,27.69-48.21,41.59-72.29,12.17-21.07,24.45-42.06,36.62-63.13,12.07-20.89,24.03-41.83,36.07-62.74,4.69-8.14,9.76-16.1,14.13-24.42,2.57-4.92,6.26-6.02,11.1-5.31,6.28.92,12.41,2.46,18.45,4.42,23.22,7.51,45.31,17.69,67.24,28.24,25.99,12.51,51.41,26.15,76.51,40.33.89.5,1.78,1.02,2.62,1.57,5.89,3.8,6.31,6.02,2.83,12.04-12.51,21.59-24.92,43.21-37.4,64.81-10.13,17.54-20.29,35.02-30.44,52.53-8.01,13.79-16.04,27.56-24,41.38-2.36,4.08-2.04,6.91.99,9.32,3.8,3.04,7.7,3.98,11.07.94,8.53-7.67,17.2-15.15,25.78-22.75,27.14-24,54.26-48,81.4-72.01,12.12-10.71,24.21-21.44,36.33-32.14.6-.55,1.18-1.13,1.81-1.68,6.81-5.92,8.22-5.99,15.99-.84,22.01,14.61,43.66,29.71,63.71,46.96,6.05,5.21,11.86,10.71,16.7,17.09,3.82,5.05,3.87,7.46.79,12.83-14.63,25.31-29.18,50.65-43.82,75.96-12.17,21.07-24.47,42.06-36.64,63.13-15.73,27.27-31.38,54.6-47.11,81.87-12.17,21.07-24.42,42.09-36.62,63.13-1.33,2.3-2.77,4.55-3.87,6.96-1.91,4.16-5.08,5.65-9.03,5l-.03.05Z"/>
      <path class="st1" d="M275.71,643.34c-2.54-8.56-2.12-16.2.92-23.64,4.48-11.05,9.97-21.46,19.03-29.66,6.52-5.89,14.03-7.2,22.27-5.18,10.1,2.46,18.77,8.01,27.25,13.72,25.94,17.46,51.98,34.81,77.14,53.42,8.04,5.94,16.02,12.12,21.2,21.02,4.5,7.67,5.42,15.89,2.83,24.26-3.48,11.25-9.4,21.31-17.12,30.18-4.27,4.89-9.58,8.3-17.01,8.38,5.39,11.28,2.77,21.52-2.7,31.62-3.32,6.12-6.57,12.22-11.02,17.62-10.57,12.9-23.48,16.59-39.47,11.05-9.13-3.17-17.43-8.04-25.57-13.11-25.18-15.7-49.6-32.48-72.74-51.04-6.23-5-11.8-10.57-16.07-17.54-7.38-12.07-8.61-24.58-3.35-37.56,3.22-7.96,7.49-15.47,12.72-22.3,5.31-6.94,11.7-12.01,21.72-11.23h-.03ZM373.47,739.27c.16-3.06-.68-4.71-1.81-6.18-1.73-2.3-3.74-4.29-6.07-6.02-16.33-11.96-33.32-23.01-49.94-34.55-5.37-3.72-10.68-7.62-16.54-10.52-5.5-2.72-8.9-2.17-12.12,2.98-7.07,11.25-10.78,14.03,2.2,25.47,18.17,15.99,38.24,29.39,59.31,41.28,3.19,1.81,6.6,3.25,10.26,3.95,2.15.39,4.19.21,5.84-1.13,5.13-4.24,7.01-10.34,8.93-15.26l-.05-.03ZM402.84,685.43c.1-3.56-.73-5.44-2.22-6.91-1.73-1.73-3.53-3.4-5.5-4.87-17.8-13.38-36.12-25.97-54.7-38.24-3.56-2.36-7.28-4.5-11.33-6.02-5.47-2.04-7.75-1.36-10.76,3.48-1.39,2.25-2.7,4.58-3.82,6.96-1.75,3.69-1.33,7.15,1.6,10.16,1.99,2.04,3.87,4.24,6.07,6.05,15.97,13.11,33.01,24.68,50.52,35.6,4.5,2.8,9.08,5.44,14.11,7.28,2.77,1.02,5.71,1.81,8.17-.21,4.58-3.77,7.25-8.69,7.9-13.24l-.03-.03Z"/>
      <path class="st1" d="M553.92,891.84c-10.5-.03-19.92-2.77-29.13-6.23-31.67-11.86-61.82-26.75-90.64-44.42-4.19-2.57-8.11-5.55-11.57-9.06-9.53-9.66-13.58-21.12-11.05-34.68,1.6-8.53,4.92-16.46,8.9-24.05,9.84-18.85,20-37.53,33.14-54.36,7.04-9,15.34-16.44,27.2-18.64,7.43-1.39,14.66-.68,21.83,1.36,15.02,4.27,29,11.05,42.95,17.8,20.57,9.97,41.51,19.21,61.54,30.34,7.7,4.27,15.31,8.74,20.99,15.7,6.75,8.27,9.11,17.59,6.75,28.14-1.86,8.24-5.03,15.99-8.93,23.4-9.79,18.64-19.74,37.19-32.8,53.81-7.64,9.71-16.83,17.22-29.32,19.92-3.46.73-6.88.84-9.84.94l-.03.03ZM544.08,851.53c5.99.16,10.68-2.49,15.21-8.82,8.38-11.65,15.05-24.29,22.01-36.77,2.15-3.87,4.14-7.96,5.44-12.3,1.57-5.23.81-9.58-3.43-13.3-3.11-2.72-6.52-4.92-10.1-6.88-11.28-6.23-23.03-11.46-34.6-17.09-9.74-4.71-19.37-9.71-29.66-13.14-10.81-3.59-15.94-1.81-22.95,7.07-6.23,7.9-10.97,16.75-15.97,25.39-3.59,6.18-6.88,12.54-9.79,19.05-3.98,8.98-2.09,15.52,5.55,21.62.79.63,1.68,1.2,2.54,1.73,20.68,12.93,42.69,23.14,65.57,31.54,3.25,1.2,6.73,1.78,10.21,1.88l-.03.03Z"/>
      <path class="st2" d="M589.88,197.91c6.81.55,13.19,2.72,19.53,5.03,24.87,8.98,48.47,20.76,71.77,33.11,36.17,19.16,71.35,40.02,105.01,63.39,13.45,9.34,26.7,18.95,38.5,30.39,2.67,2.59,5.03,5.39,7.15,8.4,1.54,2.2,1.6,4.29.1,6.78-5.26,8.77-10.29,17.67-15.44,26.49-2.04,3.51-4.42,4.32-8.24,3.11-2.02-.65-3.59-1.96-5.23-3.14-59.55-42.53-122.5-79.39-187.7-112.47-13.66-6.94-27.64-13.24-41.51-19.79-1.86-.86-3.74-1.65-5.29-3.06-3.11-2.83-3.43-4.87-1.28-8.61,4.97-8.69,10.16-17.28,14.92-26.07,1.83-3.4,4.48-3.77,7.7-3.56h.03Z"/>
      <path class="st1" d="M713.95,198.22c8.95-4.89,17.93-7.38,27.22-8.74,28.48-4.11,55.28,1.86,81.09,13.58,4.82,2.2,9.55,4.66,14.13,7.33,6.15,3.56,7.01,6.86,3.56,13.01-6.1,10.86-12.22,21.7-18.51,32.46-3.3,5.68-10.76,5.55-13.74-.34-4.71-9.29-9-18.77-13.51-28.14-1.33-2.77-2.7-5.5-4.08-8.24-.26-.55-.58-1.07-.92-1.6-1.15-1.68-2.72-2.57-4.74-1.91-1.86.6-1.33,2.33-1.31,3.66.13,8.59.13,17.2.55,25.78.29,5.86,0,5.55-4.95,5.71-5.44.16-10.63,1.65-14.81,5.16-4.76,4-9.21,3.27-14.03.37-9.29-5.58-18.61-11.07-27.95-16.52-6.88-4-13.85-7.85-20.78-11.8-1.78-1.02-3.64-1.91-5.26-3.14-4.48-3.4-4.89-7.28-1.41-11.57.76-.94,1.78-1.7,2.54-2.67,1.75-2.2,3.48-2.04,5.81-.65,8.06,4.82,16.25,9.45,24.39,14.13,3.53,2.04,7.09,4.08,10.63,6.1,1.62.92,3.43,2.04,4.84-.08,1.2-1.83-.55-2.93-1.62-4.03-7.43-7.62-14.89-15.18-22.33-22.77-1.44-1.47-2.83-2.96-4.84-5.05l.03-.03Z"/>
      <path class="st0" d="M373.47,739.27c-1.91,4.92-3.8,10.99-8.93,15.26-1.62,1.36-3.66,1.54-5.84,1.13-3.66-.68-7.07-2.15-10.26-3.95-21.07-11.88-41.15-25.28-59.31-41.28-12.98-11.44-9.24-14.21-2.2-25.47,3.22-5.16,6.62-5.68,12.12-2.98,5.89,2.91,11.18,6.81,16.54,10.52,16.65,11.52,33.61,22.59,49.94,34.55,2.36,1.73,4.34,3.72,6.07,6.02,1.13,1.49,1.94,3.14,1.81,6.18l.05.03Z"/>
      <path class="st0" d="M402.84,685.43c-.65,4.55-3.32,9.5-7.9,13.24-2.46,2.02-5.39,1.23-8.17.21-5.03-1.83-9.61-4.48-14.11-7.28-17.51-10.94-34.55-22.51-50.52-35.6-2.2-1.81-4.08-4-6.07-6.05-2.93-2.98-3.32-6.47-1.6-10.16,1.13-2.38,2.43-4.71,3.82-6.96,3.01-4.82,5.31-5.52,10.76-3.48,4.03,1.52,7.75,3.66,11.33,6.02,18.58,12.25,36.91,24.84,54.7,38.24,1.94,1.47,3.74,3.17,5.5,4.87,1.49,1.49,2.33,3.35,2.22,6.91l.03.03Z"/>
      <path class="st0" d="M544.08,851.53c-3.51-.1-6.96-.68-10.21-1.88-22.88-8.38-44.89-18.58-65.57-31.54-.86-.55-1.73-1.1-2.54-1.73-7.64-6.1-9.53-12.64-5.55-21.62,2.88-6.52,6.2-12.88,9.79-19.05,5.03-8.64,9.74-17.48,15.97-25.39,7.01-8.9,12.14-10.68,22.95-7.07,10.29,3.43,19.92,8.4,29.66,13.14,11.57,5.63,23.32,10.86,34.6,17.09,3.59,1.99,6.99,4.16,10.1,6.88,4.24,3.72,5,8.06,3.43,13.3-1.31,4.34-3.3,8.43-5.44,12.3-6.96,12.49-13.64,25.15-22.01,36.77-4.55,6.31-9.21,8.98-15.21,8.82l.03-.03Z"/>
    </g>
  </g>
</svg>