<svg width="334" height="467" viewBox="0 0 334 467" fill="none" xmlns="http://www.w3.org/2000/svg">
<g clip-path="url(#clip0_1828_565)">
<path d="M312.229 101.981C312.229 101.981 316.842 94.3948 320.273 95.1568C323.666 95.9198 328.165 99.5418 328.165 96.7198C328.165 93.8988 321.074 92.4498 323.971 87.7608C326.907 83.0718 330.299 82.4238 330.299 82.4238C330.299 82.4238 325.534 86.3118 330.49 91.1918C335.446 96.0718 334.074 102.096 328.355 101.905C322.637 101.715 317.947 102.668 320.387 109.797C322.827 116.888 328.775 121.005 321.264 127.525C313.754 134.044 312.267 102.02 312.267 102.02L312.229 101.981Z" fill="#43C0F0"/>
<path d="M331.367 128.936C331.367 128.936 325.42 132.52 328.355 136.447C331.291 140.335 333.426 145.596 327.593 147.16C321.76 148.723 321.645 141.403 321.645 141.403C321.645 141.403 325.725 139.344 323.971 137.209C322.217 135.074 320.654 128.631 331.367 128.936Z" fill="#43C0F0"/>
<path d="M322.904 109.188C322.904 109.188 323.094 104.613 325.038 103.927C325.038 103.927 319.091 103.622 322.904 109.188Z" fill="#43C0F0"/>
<path d="M269.835 51.6592C269.835 51.6592 272.542 52.9173 270.712 55.1666C268.844 57.416 258.626 59.8559 262.82 67.328C267.014 74.839 277.116 77.927 277.116 77.927L281.577 72.475C281.577 72.475 278.375 67.214 272.618 66.146C266.861 65.079 266.785 61.9527 269.415 60.3896C272.046 58.8265 280.319 52.6886 269.797 51.6211H269.835V51.6592Z" fill="#43C0F0"/>
<path d="M285.618 70.263C285.618 70.263 287.562 65.307 291.261 64.049C294.959 62.7906 295.454 56.3477 295.454 56.3477C295.454 56.3477 297.704 66.069 295.759 67.747C293.815 69.424 285.618 70.263 285.618 70.263Z" fill="#43C0F0"/>
<path d="M244.253 104.04C244.253 104.04 239.564 102.477 240.67 98.016C241.737 93.556 244.673 92.946 242.233 88.752C242.233 88.752 245.054 91.573 243.987 96.644C242.919 101.714 246.122 99.96 246.122 99.96L244.253 104.04Z" fill="#43C0F0"/>
<path d="M21.3797 101.981C21.3797 101.981 16.7667 94.3948 13.3357 95.1568C9.90473 95.9198 5.44374 99.5418 5.44374 96.7198C5.44374 93.8988 12.5347 92.4498 9.63774 87.7608C6.73974 83.0718 3.30873 82.4238 3.30873 82.4238C3.30873 82.4238 8.07474 86.3118 3.11874 91.1918C-1.83726 96.0718 -0.465267 102.096 5.25373 101.905C11.0097 101.715 15.6617 102.668 13.2217 109.797C10.7817 116.888 4.83374 121.005 12.3447 127.525C19.8547 134.044 21.3417 102.02 21.3417 102.02H21.3797V101.981Z" fill="#43C0F0"/>
<path d="M2.28027 128.936C2.28027 128.936 8.22727 132.52 5.29227 136.447C2.35627 140.335 0.221275 145.596 6.05428 147.16C11.8873 148.723 12.0023 141.403 12.0023 141.403C12.0023 141.403 7.92228 139.344 9.67628 137.209C11.4303 135.074 12.9933 128.631 2.28027 128.936Z" fill="#43C0F0"/>
<path d="M10.7434 109.188C10.7434 109.188 10.5534 104.613 8.60938 103.927C8.60938 103.927 14.5564 103.622 10.7434 109.188Z" fill="#43C0F0"/>
<path d="M63.7742 51.6592C63.7742 51.6592 61.0672 52.9173 62.8972 55.1666C64.7652 57.416 74.9832 59.8559 70.7892 67.328C66.5952 74.839 56.4922 77.927 56.4922 77.927L52.0322 72.475C52.0322 72.475 55.2342 67.214 60.9912 66.146C66.7482 65.079 66.8242 61.9527 64.1932 60.3896C61.5632 58.8265 53.2902 52.6886 63.8122 51.6211L63.7742 51.6592Z" fill="#43C0F0"/>
<path d="M48.0291 70.263C48.0291 70.263 46.0851 65.307 42.3871 64.049C38.6891 62.7906 38.1931 56.3477 38.1931 56.3477C38.1931 56.3477 35.9441 66.069 37.8881 67.747C39.8321 69.424 48.0291 70.263 48.0291 70.263Z" fill="#43C0F0"/>
<path d="M89.3934 104.04C89.3934 104.04 94.0834 102.477 92.9774 98.016C91.9104 93.556 88.9744 92.946 91.4144 88.752C91.4144 88.752 88.5934 91.573 89.6604 96.644C90.7284 101.714 87.5254 99.96 87.5254 99.96L89.3934 104.04Z" fill="#43C0F0"/>
<path d="M321.074 168.051C321.798 167.67 322.484 167.174 323.209 166.793C330.605 162.599 331.52 154.25 328.851 148.455C328.737 148.188 328.66 147.845 328.546 147.578C326.64 143.575 323.895 140.297 320.311 137.742C319.663 137.247 319.434 136.713 319.777 135.95C323.475 126.991 321.226 118.795 316.651 110.903C314.974 108.044 313.449 105.184 312.267 102.058C309.369 94.548 311.886 88.448 316.918 82.92C318.443 81.242 320.311 79.908 322.56 78.574C313.029 74.189 303.918 75.219 294.654 78.993C294.501 76.286 295.187 73.884 295.797 71.483C296.407 69.043 297.551 66.793 298.962 64.353C296.369 64.62 294.234 65.421 292.099 66.183C286.838 68.128 281.958 70.796 278.07 74.952C277.155 75.943 276.697 75.829 275.973 74.761C272.465 69.424 267.357 66.717 261.066 66.069C260.761 66.069 260.418 65.993 260.113 66.031C259.884 66.031 259.656 66.145 259.389 66.183C259.389 66.183 259.694 66.755 259.694 66.832C259.808 67.06 259.884 67.251 259.999 67.48C260.189 67.899 260.38 68.318 260.533 68.738C260.838 69.538 261.143 70.339 261.371 71.178C261.6 71.94 261.791 72.703 261.905 73.465C262.019 74.189 262.096 74.914 262.134 75.6C262.134 76.286 262.134 76.934 262.019 77.621C261.943 78.269 261.791 78.879 261.6 79.489C261.409 80.099 261.143 80.671 260.876 81.204C260.571 81.776 260.228 82.31 259.808 82.806C259.198 83.568 258.512 84.216 257.826 84.864C257.406 85.322 256.987 85.741 256.529 86.122C255.843 86.656 255.119 87.114 254.395 87.533C254.242 87.647 254.051 87.724 253.899 87.838C249.858 90.316 246.312 93.213 244.673 97.903C244.444 99.389 244.673 101.258 243.834 102.287C243.034 103.316 241.089 102.592 239.679 102.821C234.456 103.698 230.033 105.871 227.25 110.636C225.687 113.305 225.496 116.164 225.84 119.1C226.259 122.569 226.64 126.038 225.191 129.393C224.696 130.537 224.2 131.757 223.476 132.786C218.482 140.182 221.493 148.226 225.42 152.839C228.928 156.957 233.312 159.74 238.344 161.57C239.831 162.104 240.136 162.485 239.069 163.972C231.368 174.875 224.505 186.274 219.625 198.741C218.291 202.096 217.033 205.489 216.385 209.072C216.27 209.797 215.965 210.407 215.47 210.902C212.572 214.029 209.827 217.269 207.273 220.662C206.587 221.539 206.129 221.653 205.405 220.738C204.49 219.633 203.537 218.527 202.546 217.46H202.622V140.602C202.622 140.602 204.986 54.1743 166.824 0C156.644 14.449 149.325 31.2236 144.102 48.0363C142.348 53.2212 140.861 58.5205 139.717 63.9722C139.679 64.201 139.527 64.43 139.412 64.658C139.336 65.726 139.145 66.793 138.688 67.785C138.764 67.899 138.726 67.975 138.65 68.051C138.726 68.623 138.65 69.119 138.307 69.615V70.72C138.23 71.025 138.154 71.33 138.002 71.597C138.078 71.673 138.078 71.788 138.002 71.826V72.245C137.925 72.664 137.811 73.084 137.735 73.503C137.697 73.618 137.659 73.694 137.582 73.808V74.533C130.415 110.369 131.254 140.525 131.254 140.525V217.155C131.177 217.231 131.139 217.307 131.063 217.384C129.767 218.68 128.776 221.12 127.289 221.158C125.764 221.158 125.04 218.527 123.743 217.307C119.283 213.037 116.919 207.776 115.013 201.905C110.514 188.104 102.889 175.828 94.5779 164.048C93.4349 162.409 93.8539 162.104 95.4169 161.417C100.907 159.092 106.054 156.156 109.447 151.048C113.335 145.138 114.098 138.962 110.057 132.672C107.541 128.745 106.664 124.437 107.655 119.938C109.409 111.742 103.957 104.612 94.8069 102.897C94.4259 102.821 94.0449 102.859 93.6629 102.744C92.2909 102.363 90.3849 103.24 89.5459 102.058C88.8219 100.991 89.0889 99.275 88.8979 97.826C87.2589 93.023 83.5219 90.163 79.4429 87.609C78.0329 86.732 76.6219 85.894 75.5539 84.635C71.2459 81.052 70.1029 74.609 72.7329 68.776C73.1149 67.899 73.5339 67.06 74.0299 66.031C72.3519 65.612 70.9029 66.069 69.4929 66.412C64.5369 67.556 60.4949 70.148 57.7119 74.494C56.9119 75.753 56.4539 75.753 55.3869 74.685C49.9729 69.271 43.3009 66.222 35.9819 64.353C35.6389 64.277 35.2569 64.163 34.7999 64.468C37.3919 68.814 38.7649 73.541 39.0699 78.841C32.5889 76.21 26.1459 74.838 19.3599 75.829C16.5769 76.248 13.8319 77.049 11.0869 78.345C14.9749 81.166 18.4829 83.911 20.5799 88.181C22.7139 92.527 23.1719 96.873 21.4949 101.41C20.5029 104.079 19.3599 106.671 17.8349 109.149C14.4419 114.753 11.8109 120.586 11.9629 127.373C12.0399 130.156 12.5729 132.786 13.6409 135.34C14.1369 136.522 13.9079 137.132 12.9169 137.857C9.25694 140.563 6.62594 143.995 4.75794 148.188C2.31794 153.564 2.73694 162.294 10.0949 166.488C10.3239 166.602 10.5149 166.793 10.7439 166.907C15.4709 168.813 16.6909 172.588 16.2329 177.277C16.2329 177.773 16.2329 178.306 16.2329 178.802C15.8139 186.808 19.7789 189.629 27.5559 190.392C29.3859 190.582 31.2159 190.239 33.0079 189.782C34.4949 189.4 35.3339 189.782 36.0199 191.307C39.0699 198.474 40.4799 205.984 41.3569 213.609C42.9199 227.448 42.2719 241.249 41.1279 255.05C40.4039 264.276 39.4509 273.502 38.3069 282.69C36.2099 299.579 32.7409 316.087 26.4509 331.946C23.4389 339.609 18.8259 346.395 13.8699 352.953C12.4589 354.821 11.1249 356.765 9.63794 358.557C8.41794 360.006 8.56994 361.073 10.0189 362.217C14.0979 365.457 18.1779 368.66 21.9899 372.205C25.7639 375.713 29.4619 379.258 33.2749 382.728C33.6179 383.033 33.8849 383.338 34.0369 383.643C33.6179 384.291 32.4739 385.93 30.9109 387.989H30.7589V388.179C30.6439 388.332 30.4919 388.522 30.3389 388.713C26.5649 393.25 22.5999 397.596 17.7199 400.951C16.6909 401.637 16.0809 402.552 16.6529 403.62C17.1859 404.687 18.2159 404.001 19.0159 403.696C25.1929 401.294 31.2539 398.625 37.2399 395.88L43.9109 393.326C43.9109 393.326 46.3509 395.118 57.3309 405.831C57.3309 405.831 57.4069 405.907 57.4459 405.945C57.5599 406.06 57.6359 406.136 57.7509 406.25H57.8269C58.4369 406.936 59.0469 407.546 59.6569 408.195L59.7329 408.271C59.9239 408.461 60.1139 408.69 60.3049 408.881C60.7239 409.262 61.1439 409.643 61.5629 410.025C62.9349 411.435 64.4599 411.702 66.1759 410.787C71.8559 406.403 77.9939 402.781 84.1709 399.121C91.2619 394.889 98.5809 391.153 106.359 388.294C110.629 386.731 114.937 385.32 119.321 384.062C120.693 383.681 121.494 384.062 122.485 384.939C132.779 394.775 140.709 406.365 147.342 418.869C154.128 431.603 159.999 444.756 164.879 458.328C165.87 461.034 167.129 463.779 167.014 466.753C167.243 466.677 167.052 467.325 167.319 466.867C168.997 455.964 174.067 446.242 178.375 436.292C183.941 423.444 190.499 411.13 198.771 399.807C202.813 394.241 207.349 389.133 212.344 384.405C213.106 383.681 213.754 383.833 214.555 384.062C226.221 387.112 237.277 391.649 247.685 397.787C253.632 401.294 259.618 404.763 265.298 408.766C265.87 409.148 266.366 409.643 266.937 410.063C267.357 410.291 267.852 410.444 268.195 410.787C269.492 412.007 270.75 412.045 272.084 410.787C277.726 404.382 284.169 398.778 290.346 392.869C290.498 392.754 290.612 392.602 290.765 392.526C291.909 393.25 293.395 394.012 294.959 394.813C295.073 394.813 295.149 394.927 295.225 394.965C296.14 395.423 297.055 395.842 297.97 396.262C298.237 396.414 298.466 396.567 298.733 396.719C299.572 397.1 300.448 397.52 301.325 397.901C306.053 399.922 310.78 401.904 315.507 403.887C316.194 404.153 317.032 404.535 317.528 403.658C318.024 402.819 317.528 402.057 317.032 401.408C316.88 401.218 316.613 401.103 316.422 400.989C315.279 400.189 314.211 399.35 313.144 398.473C305.976 391.725 301.745 385.511 300.334 383.261C300.601 382.956 300.944 382.613 301.44 382.156C308.531 375.446 315.622 368.698 323.399 362.751C325.877 360.844 325.839 360.463 323.971 358.023C317.337 349.255 310.666 340.486 306.815 330.04C303.155 320.204 300.372 310.139 298.428 299.808C296.598 290.01 295.378 280.136 294.31 270.223C292.595 254.173 291.337 238.085 292.023 221.958C292.48 211.551 293.929 201.257 297.97 191.497C298.695 189.744 299.533 189.286 301.325 189.744C304.947 190.697 308.569 190.544 312.153 189.134C316.003 187.609 317.757 184.749 317.871 180.746C317.947 178.535 317.871 176.286 317.871 174.075C317.947 171.368 318.977 169.157 321.531 167.86L321.074 167.975V168.051ZM291.756 97.483C293.739 91.688 297.703 87.647 303.079 84.94C303.155 84.902 303.308 84.94 303.651 84.979C303.155 85.894 302.698 86.77 302.24 87.647C300.563 91.46 300.372 95.463 300.601 99.542C300.83 103.583 302.774 107.129 304.185 111.17C302.812 110.293 301.821 109.607 301.02 108.616C297.475 106.099 294.349 103.24 292.099 99.428C291.718 98.818 291.489 98.246 291.756 97.483ZM274.105 97.064C275.248 91.307 278.527 86.77 282.149 82.386C283.445 80.823 284.665 79.222 286.724 77.773C286.343 79.794 286.038 81.395 285.733 83.034C285.466 89.287 286.953 95.081 290.079 100.495C292.557 104.841 296.293 108.006 300.182 110.941C305.176 114.715 308.302 119.519 309.217 125.771C309.789 129.736 309.141 133.472 307.235 136.98C306.739 137.895 306.205 138.39 305.176 137.628C300.639 136.255 296.102 134.769 291.451 133.816C290.803 133.663 289.545 133.777 290.307 132.329C293.51 126.267 297.246 120.548 302.24 115.745C302.469 115.402 302.698 115.058 302.965 114.677C302.24 114.296 301.592 114.677 301.097 114.906C299.19 115.745 297.284 116.583 295.378 117.498C294.501 117.918 294.196 117.651 293.853 116.85C292.214 113.114 289.087 111.437 285.237 110.789C284.703 110.712 284.093 110.789 283.712 110.255C281.386 107.129 278.451 104.612 275.592 101.982C274.067 100.571 273.685 99.046 274.105 97.026V97.064ZM257.216 99.999C258.855 97.102 260.876 94.51 263.354 92.298C265.641 90.24 267.662 87.99 269.072 85.245C269.225 84.712 269.53 84.292 269.568 83.377C270.254 86.199 270.178 88.753 269.987 91.307C269.53 96.645 271.207 101.105 275.401 104.651C277.345 106.29 279.061 108.158 280.891 109.912C281.653 110.636 281.92 111.17 280.586 111.589C279.633 111.894 278.756 112.428 277.841 112.885C272.084 118.49 267.585 119.557 258.55 114.83C258.245 114.677 257.826 114.41 257.711 114.105C255.996 109.454 254.509 104.841 257.254 99.999H257.216ZM242.919 111.704C243.224 111.704 243.567 111.704 243.453 111.704C248.028 111.78 251.535 113.724 255.043 115.63C257.788 117.117 260.533 118.49 263.582 119.328C268.729 120.777 273.228 119.748 277.231 116.278C278.794 114.944 280.357 113.686 282.416 113.229C286.304 112.39 289.926 114.83 290.231 118.452C290.346 119.748 290.002 120.701 288.744 121.425C284.398 123.98 280.09 126.648 276.163 129.889C275.706 130.27 275.287 130.575 274.638 130.384C264.231 127.754 253.937 124.742 244.978 118.49C243.567 117.498 242.385 116.278 241.432 114.83C240.06 112.733 240.441 111.894 242.919 111.665V111.704ZM217.224 237.246C218.291 225.275 221.684 213.876 226.068 202.706C232.244 186.922 241.089 172.816 251.878 159.854C252.641 158.939 253.365 158.482 254.623 158.787C255.767 159.092 256.987 159.206 258.207 159.244C259.77 159.282 259.923 159.778 259.084 161.036C255.386 166.373 252.641 172.245 249.972 178.154C244.787 189.744 242.195 201.981 240.441 214.486C237.963 231.871 237.887 249.331 239.031 266.754C241.165 299.998 250.658 330.917 269.11 358.862C275.858 369.041 284.055 377.886 292.824 386.197C291.604 386.998 290.46 387.874 289.659 388.713C284.208 384.824 279.213 380.288 274.41 375.522C256.644 357.871 242.195 337.817 231.406 315.21C225.725 303.315 222.218 290.62 219.511 277.734C216.69 264.352 216.004 250.818 217.224 237.208V237.246ZM259.313 261.036C260.189 285.969 263.659 310.559 271.055 334.501C275.82 349.865 282.111 364.504 291.375 377.733C292.938 379.945 294.539 382.118 296.217 384.214C295.759 384.481 295.264 384.748 294.73 385.053C292.557 382.956 290.422 380.821 288.287 378.686C282.225 372.739 278.565 365.229 274.829 357.833C264.231 336.864 257.826 314.6 254.09 291.459C251.688 276.514 250.544 261.455 250.811 246.32C251.192 223.026 254.395 200.151 262.134 178.078C264.04 172.626 266.213 167.288 268.805 162.142C269.301 161.15 272.313 160.617 273.037 161.417C273.38 161.837 273.037 162.218 272.885 162.637C268.996 173.388 266.404 184.482 264.269 195.729C260.151 217.345 258.512 239.152 259.274 261.112V261.036H259.313ZM217.529 281.623C217.681 281.623 217.872 281.623 218.024 281.623C218.405 285.778 220.655 289.552 220.273 293.86C219.702 300.342 213.487 304.23 207.426 301.905C206.206 301.447 206.968 300.799 207.159 300.265C208.722 296.11 210.704 292.145 213.03 288.332C214.441 286.007 216.004 283.796 217.529 281.546V281.623ZM213.411 238.39C213.754 237.971 214.174 237.589 214.555 237.17C213.716 247.12 215.127 257.071 213.831 266.907C212.267 278.916 204.528 286.159 194.425 291.192C189.355 293.708 185.847 291.192 185.619 285.473C185.466 281.889 186.496 278.573 188.249 275.485C195.683 262.446 203.766 249.903 213.411 238.39ZM184.971 217.46C186.572 219.175 188.135 220.891 189.736 222.607C190.956 223.941 192.062 225.428 194.006 225.923C194.883 226.152 195.112 227.105 195.34 227.906C196.484 231.566 195.34 238.237 192.786 241.707C192.672 237.322 192.138 233.205 190.346 229.393C188.059 224.436 185.047 220.357 181.273 217.46H184.971ZM156.606 224.665H176.774C177.803 224.665 178.489 224.932 178.947 225.847C178.985 225.961 179.061 226.076 179.176 226.152C183.293 229.812 183.102 234.616 182.721 239.495C182.721 239.724 182.493 239.915 182.378 240.105C182.912 243.384 183.331 246.548 181.844 249.789C180.014 253.754 177.384 255.126 172.961 254.745C167.433 254.25 161.791 254.631 156.187 254.745C155.043 254.745 154.281 254.516 153.823 253.411C153.48 252.61 152.946 251.848 152.413 251.161C149.63 247.807 150.468 243.918 150.811 240.105C150.316 237.208 150.163 234.196 150.735 231.451C151.269 228.935 153.518 227.029 155.158 224.97C155.501 224.513 156.111 224.741 156.606 224.741V224.665ZM138.078 227.677C138.269 226.991 138.535 226.19 139.222 226C142.272 225.008 143.797 222.302 145.855 220.167C146.732 219.252 147.571 218.375 148.448 217.46H152.184C149.515 219.518 147.19 222.187 145.169 225.313C142.233 229.812 140.899 234.882 140.709 240.258C140.709 240.563 140.709 240.906 140.67 241.211C140.67 241.325 140.556 241.402 140.327 241.707C138.23 237.132 136.782 232.671 138.192 227.715H138.078V227.677ZM119.969 238.466C129.843 250.132 138.04 262.942 145.474 276.247C147.342 279.602 148.105 283.224 147.571 287.074C147.075 290.62 144.902 292.259 141.318 291.84C140.175 291.687 139.031 291.42 138.04 290.887C128.738 285.587 121.227 278.878 119.512 267.517C118.978 264.047 118.94 260.578 118.902 257.071C118.787 250.475 119.13 243.88 118.33 237.094C119.283 237.437 119.55 238.047 119.931 238.504H119.969V238.466ZM126.603 301.828C125.116 302.095 123.629 302.476 122.104 302.629C117.948 302.972 113.679 299.007 113.107 294.432C112.878 292.526 113.069 290.658 113.602 288.79C114.289 286.426 114.822 283.986 115.47 281.432C120.007 287.151 125.306 296.91 126.564 301.828H126.603ZM87.6399 111.894C88.8979 111.704 90.1559 111.589 91.4139 111.894C92.6719 112.199 92.9389 112.924 92.4049 113.991C91.6049 115.516 90.4609 116.812 89.1269 117.918C84.2089 122.035 78.2609 124.132 72.3899 126.381C68.1969 127.983 63.8499 129.241 59.4659 130.27C58.2839 130.537 57.4839 130.308 56.5309 129.546C52.9849 126.686 49.1339 124.208 45.2459 121.921C42.8059 120.472 42.2719 118.49 43.7969 116.126C45.0929 114.105 47.0379 113.152 49.6679 113.152C51.3079 113.305 53.1759 113.762 54.5099 115.097C61.2579 121.845 68.5399 120.815 76.1639 116.85C79.8619 114.906 83.3699 112.542 87.6399 111.932V111.894ZM63.3929 91.993C63.3169 90.812 63.3929 89.592 63.3549 88.372C63.2019 87.38 63.1259 86.389 63.5449 85.436V85.512C63.5449 84.979 63.6219 84.483 63.6219 83.987C65.2989 88.867 69.5689 91.612 72.7709 95.158C77.9179 100.838 78.9859 107.205 75.7069 113.915C75.5929 114.182 75.4019 114.525 75.1349 114.639C70.5599 116.927 65.9469 119.062 60.6859 116.698C58.8179 115.859 57.2929 114.525 55.8439 113.114C55.0059 112.657 54.2429 112.009 53.3659 111.78C51.1169 111.246 51.9179 110.445 52.9849 109.416C54.8529 107.701 56.6069 105.871 58.5129 104.193C62.1729 100.914 63.6979 96.797 63.4309 91.955L63.3929 91.993ZM31.5589 88.791C30.9109 87.342 29.6909 86.199 29.3479 84.559C35.1049 87.114 39.2599 91.193 41.4329 97.14C41.6999 97.865 41.7379 98.589 41.3189 99.351C39.2219 103.011 36.1719 105.756 32.8939 108.272C32.7789 108.349 32.5119 108.272 32.3219 108.272C31.7499 109.569 30.5679 110.179 29.2719 110.903C32.7029 103.736 34.0749 96.416 31.5589 88.715V88.791ZM31.4069 112.428C33.6939 110.522 36.0959 108.73 38.2309 106.671C44.6739 100.571 47.5329 92.947 47.6099 84.178C47.2659 82.119 46.9609 80.061 46.6179 77.926C46.8849 78.078 47.1519 78.116 47.3429 78.269C52.0319 83.034 56.3399 88.105 58.5509 94.548C58.5509 94.624 58.5509 94.662 58.5889 94.738C59.9619 98.208 59.3899 100.991 56.2639 103.393C53.7859 105.299 51.4979 107.548 49.6679 110.179C49.4009 110.598 49.0199 110.712 48.5629 110.789C44.4069 111.246 41.0899 113.038 39.3369 117.079C39.0699 117.689 38.7649 118.032 38.0779 117.613C36.0199 116.355 33.6559 115.745 31.5209 114.677C31.1779 114.677 30.5679 114.525 30.5299 114.677C30.2249 115.211 31.0259 115.363 31.1019 115.821C36.1339 120.625 39.8699 126.381 43.0729 132.519C43.5299 133.434 43.0729 133.663 42.3479 133.777C37.6209 134.73 33.0839 136.255 28.4709 137.552C27.3279 138.429 26.6789 138.124 25.9929 136.865C21.8759 128.974 24.1629 118.452 31.4069 112.466V112.428ZM26.1459 173.465C25.0019 169.728 26.3359 166.64 28.5469 163.705C30.3769 161.265 32.8939 159.549 35.4479 157.491C33.7319 157.109 32.5119 158.062 31.2539 158.367C29.1569 158.863 27.1369 159.626 25.0399 160.121C21.3039 160.998 18.1779 159.854 16.3099 157.071C14.3649 154.174 14.5559 151.543 16.9959 148.112C20.3129 143.423 25.2689 141.173 30.5299 139.382C39.4129 136.37 48.6389 134.997 57.7509 133.015C67.7389 130.88 77.3459 127.754 86.3049 122.76C90.0029 120.701 93.3579 118.185 95.0359 114.067C95.4929 113 96.0269 113.648 96.4849 114.067C99.2299 116.431 99.9539 119.595 99.6489 123.026C99.3059 126.991 97.0179 129.965 94.2729 132.596C90.0029 136.675 84.7419 139.077 79.4429 141.364C78.7569 141.669 78.1089 141.936 77.0409 142.355C79.5569 142.66 81.5779 142.279 83.5989 141.822C89.5839 140.487 95.4169 138.734 100.183 134.616C100.983 133.93 101.25 134.426 101.631 134.997C104.91 139.763 104.109 145.291 99.5729 148.875C94.5399 152.839 88.6309 154.708 82.4549 155.813C72.6569 157.567 62.7449 158.672 52.8329 159.702C47.1519 160.274 41.4719 160.807 36.0959 162.98C34.1899 163.743 32.4739 164.81 30.9109 166.107C27.5559 169.004 27.2889 172.626 30.1489 175.943C30.3769 176.21 30.6439 176.476 31.1019 177.01C28.5859 177.163 27.0229 175.905 26.2599 173.426H26.1459V173.465ZM40.6709 184.787C39.2219 181.661 37.1639 178.916 34.7239 176.476C34.3419 176.095 33.7699 175.866 33.2749 175.6C29.8439 173.617 29.5009 170.3 32.5509 167.746C35.3719 165.42 38.7269 164.277 42.2339 163.552C45.9699 162.752 49.7829 162.485 53.5569 161.951C55.1959 161.722 55.9209 162.37 56.6069 163.743C60.8389 172.473 63.2019 181.814 65.4519 191.154C69.3019 207.014 71.1699 223.102 71.6659 239.381C71.8179 244.718 71.8949 250.056 71.9329 257.299C71.2459 277.238 69.1879 298.931 63.8879 320.204C63.5069 321.653 62.7829 322.034 61.4869 321.958C58.0169 321.805 55.5769 319.823 53.5569 317.269C48.4479 310.788 46.5799 303.125 46.0849 295.08C45.6649 287.951 46.8469 280.898 47.3809 273.807C47.9529 265.763 48.4479 257.719 48.7529 249.675C49.1729 238.771 49.2869 227.83 48.3719 216.926C47.4189 205.794 45.4749 194.928 40.7089 184.711V184.787H40.6709ZM19.3979 361.454C18.3299 360.501 18.2919 359.853 19.0549 358.671C24.0489 350.665 31.2539 345.023 38.8409 339.724C45.8939 334.844 53.0229 330.155 60.9149 326.685C61.2579 326.533 61.5629 326.228 62.2109 326.495C61.4099 329.24 60.6479 332.023 59.7709 334.768C55.2339 349.445 49.0579 363.361 40.3279 376.094C39.3869 377.441 38.2819 377.594 37.0109 376.552C31.0639 371.595 25.1539 366.601 19.3599 361.454H19.3979ZM38.0779 385.511L36.6299 384.786C45.4359 374.035 52.1079 362.026 57.2169 349.064C63.8119 332.289 68.1969 314.905 70.7889 297.063C73.2289 280.326 74.6009 263.514 74.2199 246.587C73.8769 232.061 72.9239 217.574 70.4079 203.201C68.4629 192.26 66.4429 181.356 63.2399 170.72C62.4019 167.937 61.4099 165.192 60.4189 162.447C60.0759 161.532 60.2669 161.417 61.1819 161.15C63.3169 160.541 64.2319 161.303 65.1849 163.247C72.4279 178.573 76.8889 194.738 79.5959 211.398C82.5689 229.85 83.2169 248.378 81.9969 267.021C80.7009 286.846 77.3079 306.327 71.5129 325.313C66.5189 341.63 59.8469 357.223 50.7359 371.748C47.3429 377.123 42.4629 381.088 38.1169 385.511H38.0779ZM44.1399 388.561L43.9499 388.408L40.2129 386.54C46.3509 380.783 52.2229 374.76 57.4459 368.126C69.0349 353.448 77.5749 337.093 83.7889 319.48C89.4699 303.353 92.8249 286.731 94.1589 269.69C95.2259 255.927 95.3789 242.126 94.3879 228.401C93.2819 212.809 90.9949 197.368 85.2759 182.652C82.3789 175.142 78.8709 167.86 74.4109 161.112C73.6739 159.969 73.9659 159.346 75.2879 159.244H75.8589C79.3669 157.91 81.3869 159.587 83.5609 162.256C98.7719 181.128 109.256 202.21 114.441 225.885C116.919 237.246 117.224 248.798 116.271 260.349C114.594 280.593 109.485 299.998 100.526 318.222C87.9069 343.879 70.6359 366.067 48.9819 384.748C47.4189 386.083 45.8559 387.341 44.2159 388.561H44.1399ZM282.797 388.294C278.413 392.259 274.372 396.567 270.292 400.837C269.644 401.523 269.225 401.752 268.31 401.065C252.793 389.323 235.294 381.508 216.766 375.827C198.962 370.375 180.777 367.783 162.134 368.241C145.283 368.66 129.004 371.824 112.992 376.933C98.7339 381.508 85.1619 387.569 72.5429 395.728C70.0259 397.329 67.6249 399.083 65.2609 400.913C64.2699 401.675 63.7739 401.599 62.9349 400.722C58.8939 396.49 55.0059 392.144 50.5829 388.332C49.6679 387.531 49.7059 387.074 50.6209 386.273C63.2019 375.56 74.1819 363.323 83.8659 349.979C92.7099 337.856 100.373 324.97 106.206 311.092C106.931 309.339 107.96 308.386 109.714 307.852C118.292 305.221 127.136 303.811 136.019 302.667C146.084 301.333 156.263 300.837 165.489 300.761C183.865 300.875 201.135 302.438 218.177 306.365C225.763 308.119 225.573 308.195 228.89 315.248C235.561 329.506 243.72 342.85 253.403 355.24C262.21 366.525 271.893 377.009 282.759 386.349C283.674 387.15 283.483 387.569 282.759 388.256H282.797V388.294ZM306.51 349.14C309.751 352.076 312.229 355.583 314.707 359.129C315.164 359.777 315.279 360.273 314.592 360.921C308.378 366.639 301.821 371.939 295.378 377.39C294.158 378.458 293.815 377.123 293.395 376.552C290.079 371.672 287.029 366.639 284.322 361.378C278.794 350.551 274.753 339.152 271.512 327.486C271.398 327.143 271.398 326.762 271.322 326.266C273.99 327.143 276.278 328.363 278.489 329.621C288.401 335.301 298.008 341.439 306.51 349.178V349.14ZM300.715 175.104C297.284 177.353 294.997 180.441 293.167 183.949C289.392 191.23 287.486 199.122 286.228 207.166C283.788 222.797 284.246 238.58 284.856 254.326C285.313 266.373 286.609 278.382 287.334 290.429C287.829 298.626 286.266 306.479 282.301 313.761C280.967 316.239 279.251 318.45 276.926 320.09C276.163 320.624 275.325 321.119 274.448 321.462C271.169 322.72 270.064 322.148 269.263 318.832C266.137 306.251 264.231 293.441 263.011 280.555C261.905 269.042 261.295 257.528 261.676 240.639C261.829 224.398 264.345 203.125 270.254 182.347C271.817 176.934 273.228 171.444 275.592 166.297C276.125 165.154 276.773 164.048 277.269 162.904C277.65 162.065 278.222 161.837 279.099 161.913C284.474 162.485 289.85 162.904 295.035 164.582C297.36 165.344 299.495 166.45 301.287 168.127C303.88 170.491 303.422 173.388 300.753 175.104H300.715ZM309.179 160.274C305.786 159.74 302.622 158.367 299.305 157.414C298.58 157.186 297.894 156.804 296.941 157.147C299.343 158.596 301.554 160.121 303.422 162.104C305.938 164.734 307.883 167.67 307.616 171.52C307.501 173.35 306.777 174.99 305.519 176.286C304.756 177.048 303.803 177.353 302.736 177.086C302.583 176.591 302.965 176.4 303.193 176.133C306.32 172.664 305.976 168.852 302.316 165.916C298.504 162.866 294.044 161.532 289.354 160.846C278.108 159.244 266.785 158.406 255.538 156.652C248.6 155.584 241.814 154.136 235.79 150.247C232.854 148.379 230.529 146.091 229.957 142.432C229.5 139.534 230.567 137.094 232.016 134.73C232.511 133.892 232.893 134.387 233.35 134.73C239.259 139.61 246.35 141.402 253.708 142.47C254.433 142.584 255.233 142.47 255.958 142.47C251.573 140.373 247.189 138.505 243.224 135.836C239.869 133.549 236.934 130.918 235.027 127.258C232.74 122.874 233.426 117.384 236.591 114.334C237.544 113.419 238.001 113.19 238.687 114.715C240.327 118.413 243.453 120.777 246.884 122.683C256.415 127.983 266.632 131.261 277.269 133.396C285.961 135.15 294.73 136.599 303.155 139.496C307.883 141.135 312.381 143.118 315.66 147.159C317.49 149.446 318.977 151.848 318.062 154.974C316.994 158.787 313.334 160.998 309.141 160.312L309.179 160.274Z" fill="#050B0F"/>
<path d="M165.68 300.837C184.056 300.951 201.326 302.514 218.367 306.441C225.954 308.195 225.763 308.271 229.08 315.324C235.752 329.583 243.91 342.926 253.594 355.316C262.401 366.601 272.084 377.085 282.949 386.426C283.864 387.226 283.674 387.645 282.949 388.332C278.565 392.297 274.524 396.605 270.445 400.875C269.797 401.561 269.377 401.79 268.462 401.103C252.946 389.361 235.447 381.546 216.919 375.865C199.115 370.413 180.929 367.821 162.287 368.278C145.436 368.698 129.157 371.862 113.145 376.971C98.8859 381.546 85.3139 387.607 72.6949 395.766C70.1789 397.367 67.7769 399.121 65.4129 400.951C64.4219 401.713 63.9269 401.637 63.0879 400.76C59.0469 396.528 55.1579 392.182 50.7359 388.37C49.8209 387.569 49.8589 387.112 50.7739 386.311C63.3549 375.598 74.3349 363.36 84.0179 350.017C92.8629 337.894 100.526 325.008 106.359 311.13C107.083 309.377 108.112 308.424 109.866 307.89C118.444 305.259 127.289 303.849 136.172 302.705C146.237 301.371 156.416 300.875 165.642 300.799H165.68V300.837Z" fill="#57C3E9"/>
<path d="M29.5391 396.338C39.5271 387.57 49.3251 378.649 57.5601 368.165C69.1501 353.487 77.6891 337.132 83.9041 319.518C89.5841 303.392 92.9391 286.77 94.2731 269.728C95.3411 255.965 95.4931 242.164 94.5021 228.44C93.3971 212.847 91.1091 197.407 85.3901 182.691C82.4931 175.18 78.9861 167.899 74.5251 161.151C73.7881 160.007 74.0801 159.384 75.4021 159.283H75.9741C79.4811 157.948 81.5021 159.626 83.6751 162.294C98.8861 181.166 109.371 202.249 114.555 225.924C117.033 237.285 117.338 248.836 116.385 260.388C114.708 280.632 109.599 300.037 100.64 318.26C88.0211 343.918 70.7511 366.106 49.0961 384.787C43.9501 389.247 38.2311 392.945 31.9791 395.728C31.2161 396.071 30.4921 396.719 29.5771 396.338H29.5391Z" fill="#CBCDD8"/>
<path d="M166.747 68.7763C166.747 69.6913 166.442 72.5133 166.442 73.4663C166.442 99.9623 167.281 126.534 167.281 153.031C167.281 179.527 167.319 153.793 167.281 154.174C167.128 155.547 167.548 156.233 168.997 156.691C171.475 157.415 172.733 159.626 172.695 162.295C172.656 164.735 171.17 166.832 168.73 167.556C167.7 167.861 167.281 168.204 167.319 169.31C167.357 170.568 168.272 170.263 168.958 170.377C172.313 170.987 174.868 174.075 174.906 177.544C174.944 181.09 172.351 184.254 168.882 184.864C168.12 184.979 167.357 184.864 167.395 186.046C167.395 187.075 167.662 187.647 168.768 187.876C172.275 188.677 174.83 190.697 176.164 194.09C176.545 195.081 177.079 195.577 178.146 195.348C179.328 195.082 178.833 194.128 178.833 193.48C178.261 170.987 178.032 148.532 177.003 126.039C176.469 114.03 175.668 102.059 173.762 90.2023C172.656 83.4163 170.369 76.9733 167.738 70.6443C167.472 70.0733 166.823 68.9673 166.709 68.7383L166.747 68.7763Z" fill="#2C2D35"/>
<path d="M303.575 396.606C302.278 395.996 300.982 395.424 299.724 394.776C290.155 389.934 282.149 383.071 274.562 375.561C256.796 357.91 242.347 337.856 231.558 315.249C225.878 303.354 222.37 290.659 219.663 277.773C216.842 264.391 216.156 250.857 217.376 237.247C218.444 225.276 221.837 213.877 226.221 202.706C232.397 186.923 241.242 172.817 252.031 159.855C252.793 158.94 253.518 158.482 254.776 158.787C255.919 159.092 257.139 159.207 258.359 159.245C259.923 159.283 260.075 159.779 259.236 161.037C255.538 166.374 252.793 172.245 250.125 178.154C244.94 189.744 242.347 201.982 240.594 214.487C238.116 231.871 238.039 249.332 239.183 266.755C241.318 299.999 250.811 330.918 269.263 358.863C277.421 371.215 287.753 381.585 298.618 391.459C300.067 392.793 301.554 394.051 303.041 395.386C303.308 395.614 303.536 395.919 303.803 396.224C303.727 396.339 303.651 396.491 303.575 396.606Z" fill="#CBCDD8"/>
<path d="M155.768 298.474C147.38 298.856 139.794 299.618 133.236 300.571C127.861 287.075 118.406 274.952 117.11 273.312C119.512 258.063 119.207 244.414 118.597 236.256C121.418 239.496 143.644 265.688 155.768 298.474Z" fill="#494C58"/>
<path d="M216.385 273.54C214.479 276.056 205.596 287.989 200.487 301.065C192.786 299.769 185.314 298.968 178.108 298.549C190.041 266.105 211.581 240.562 214.784 236.902C214.212 245.137 213.983 258.595 216.385 273.501V273.54Z" fill="#494C58"/>
<path d="M72.047 257.337C71.361 277.276 69.302 298.968 64.003 320.242C63.622 321.69 62.897 322.072 61.601 321.995C58.132 321.843 55.692 319.86 53.671 317.306C48.563 310.825 46.695 303.162 46.199 295.118C45.78 287.989 46.961 280.936 47.495 273.845C48.067 265.8 48.563 257.756 48.868 249.712C49.287 238.809 49.401 227.867 48.486 216.963C47.533 205.831 45.589 194.966 40.823 184.749C39.375 181.622 37.316 178.877 34.876 176.438C34.495 176.056 33.923 175.828 33.427 175.561C29.996 173.578 29.653 170.261 32.703 167.707C35.524 165.382 38.879 164.238 42.386 163.513C46.123 162.713 49.935 162.446 53.709 161.912C55.349 161.684 56.073 162.332 56.759 163.704C60.991 172.435 63.355 181.775 65.604 191.115C69.455 206.975 71.323 223.063 71.818 239.342C71.971 244.68 72.047 250.017 72.085 257.261V257.337H72.047Z" fill="#57C3E9"/>
<path d="M261.752 240.638C261.905 224.398 264.421 203.124 270.33 182.347C271.893 176.933 273.304 171.443 275.668 166.296C276.201 165.153 276.85 164.047 277.345 162.903C277.726 162.065 278.298 161.836 279.175 161.912C284.551 162.484 289.926 162.903 295.111 164.581C297.437 165.343 299.571 166.449 301.363 168.126C303.956 170.49 303.498 173.388 300.83 175.103C297.398 177.352 295.111 180.44 293.281 183.948C289.507 191.23 287.601 199.121 286.342 207.165C283.903 222.796 284.36 238.58 284.97 254.325C285.427 266.372 286.724 278.381 287.448 290.428C287.944 298.625 286.381 306.479 282.416 313.76C281.081 316.238 279.366 318.45 277.04 320.089C276.278 320.623 275.439 321.118 274.562 321.461C271.283 322.72 270.178 322.148 269.377 318.831C266.251 306.25 264.345 293.44 263.125 280.554C262.019 269.041 261.409 257.527 261.791 240.638H261.752Z" fill="#57C3E9"/>
<path d="M192.023 112.77C192.062 113.647 192.1 114.524 192.176 115.439C191.108 115.668 191.49 116.507 191.452 117.155C191.413 121.158 191.528 125.161 191.337 129.164C190.956 137.322 190.346 145.443 189.889 153.563C189.622 158.557 189.012 163.514 188.097 168.393C187.258 172.854 186.038 177.276 184.589 181.584C183.751 184.062 183.217 186.693 181.234 188.637V187.532C181.577 187.265 181.539 186.998 181.234 186.769C180.701 176.514 180.662 166.22 180.434 155.927C180.052 140.067 179.709 124.208 178.413 108.386C177.384 95.805 175.744 83.3 170.521 71.558C169.835 69.995 169.149 68.432 168.31 66.945C167.357 65.268 166.404 65.23 165.489 66.945C162.744 71.863 161.029 77.162 159.465 82.5C156.873 91.23 155.996 100.304 155.31 109.339C153.594 132.442 153.289 155.622 152.87 178.801C152.832 181.47 152.641 184.139 152.527 186.769C151.421 186.998 151.154 186.007 150.773 185.359C149.401 183.224 148.524 180.822 147.723 178.458C145.626 172.282 144.521 165.915 143.72 159.434C142.843 152.343 142.5 145.252 141.89 138.161C141.471 133.434 141.623 128.668 141.547 123.941C141.547 123.369 141.471 122.797 141.128 122.301C141.09 112.16 142.843 102.248 144.406 92.298C145.741 83.91 147.685 75.637 149.591 67.365C149.668 67.06 149.782 66.793 149.973 66.221C153.556 70.796 155.424 75.866 157.026 81.699C157.521 76.476 156.873 71.901 155.806 67.403C156.568 67.06 156.873 68.165 157.674 67.746C156.111 64.086 155.806 60.1972 155.653 55.813C156.682 58.1767 156.873 60.426 158.932 62.4847C157.521 54.3261 157.483 46.7013 158.932 39.0765C160.342 31.4517 163.85 24.6656 166.862 17.2695C170.064 24.2844 172.771 31.0323 175.325 37.8565C181.349 53.8687 185.237 70.453 188.478 87.227C189.812 94.013 190.727 100.876 191.718 107.7C191.871 108.653 191.833 109.606 191.871 110.559C191.795 111.36 191.566 112.16 192.062 112.885V112.77H192.023ZM166.862 56.0036C166.976 56.0036 167.09 56.0036 167.243 56.0417C167.395 55.4699 167.586 54.898 167.738 54.288C168.31 52.0768 168.958 49.9419 169.873 47.845C170.102 47.3494 170.178 46.5869 170.826 46.5107C171.589 46.4345 171.818 47.1969 172.123 47.7307C173.991 51.4668 175.897 55.1649 177.346 59.0916C178.032 60.9979 178.794 62.9041 179.481 64.81C180.091 57.1854 170.369 29.1642 166.9 27.563V56.0036H166.862Z" fill="#F9FCFC"/>
<path d="M256.11 142.47C251.726 140.373 247.342 138.505 243.377 135.837C240.022 133.549 237.086 130.919 235.18 127.259C232.893 122.874 233.579 117.385 236.743 114.335C237.696 113.42 238.154 113.191 238.84 114.716C240.479 118.414 243.605 120.778 247.037 122.684C256.568 127.983 266.785 131.262 277.422 133.397C286.114 135.15 294.882 136.599 303.308 139.497C308.035 141.136 312.534 143.118 315.812 147.159C317.681 149.447 319.129 151.849 318.214 154.975C317.147 158.787 313.487 160.999 309.293 160.312C305.9 159.779 302.736 158.406 299.419 157.453C298.695 157.224 298.009 156.843 297.055 157.186C299.457 158.635 301.668 160.16 303.537 162.142C306.053 164.773 307.997 167.708 307.73 171.559C307.616 173.389 306.891 175.028 305.633 176.324C304.871 177.087 303.918 177.392 302.85 177.125C302.698 176.629 303.079 176.439 303.308 176.172C306.434 172.703 306.091 168.89 302.431 165.955C298.619 162.905 294.158 161.57 289.469 160.884C278.222 159.283 266.899 158.444 255.653 156.69C248.714 155.623 241.928 154.174 235.904 150.286C232.969 148.418 230.643 146.13 230.071 142.47C229.614 139.573 230.681 137.133 232.13 134.769C232.626 133.93 233.007 134.426 233.464 134.769C239.374 139.649 246.465 141.441 253.823 142.508C254.547 142.623 255.348 142.508 256.072 142.508L256.11 142.47ZM305.976 153.297C302.24 148.723 297.208 145.939 291.68 143.385C293.891 143.08 295.683 144.529 297.932 143.69C297.055 143.118 296.484 142.699 295.912 142.356C290.307 139.23 284.284 137.438 278.032 136.447C267.814 134.769 258.207 131.567 249.21 126.42C247.952 125.696 246.655 125.047 245.245 124.247C245.55 125.81 246.922 126.458 247.38 127.945C244.787 127.144 242.995 125.581 241.28 123.904C239.526 122.188 238.23 120.206 237.658 117.461C236.972 118.643 236.857 119.405 236.743 120.244C236.324 124.133 238.344 126.992 240.822 129.47C246.465 135.112 253.594 138.238 260.952 140.869C268.348 143.538 276.202 144.376 283.75 146.321C287.944 147.426 292.252 148.151 296.407 149.485C299.686 150.514 302.698 152.077 305.976 153.221V153.297ZM298.619 144.186C298.619 144.186 298.542 144.186 298.466 144.148V144.338H298.619V144.224V144.186Z" fill="#57C3E9"/>
<path d="M31.1019 177.01C28.5859 177.163 27.0229 175.905 26.2599 173.427C25.1159 169.69 26.4509 166.602 28.6619 163.667C30.4919 161.227 33.0079 159.511 35.5619 157.453C33.8469 157.071 32.6269 158.024 31.3689 158.329C29.2719 158.825 27.2509 159.587 25.1539 160.083C21.4179 160.96 18.2919 159.816 16.4239 157.033C14.4799 154.136 14.6699 151.505 17.1099 148.074C20.4269 143.385 25.3829 141.135 30.6439 139.344C39.5269 136.332 48.7529 134.959 57.8649 132.977C67.8529 130.842 77.4609 127.716 86.4199 122.722C90.1179 120.663 93.4729 118.147 95.1499 114.029C95.6079 112.962 96.1409 113.61 96.5989 114.029C99.3439 116.393 100.068 119.557 99.7629 122.988C99.4199 126.953 97.1329 129.927 94.3879 132.558C90.1179 136.637 84.8569 139.039 79.5569 141.326C78.8709 141.631 78.2229 141.898 77.1559 142.317C79.6719 142.622 81.6919 142.241 83.7129 141.784C89.6979 140.449 95.5309 138.695 100.297 134.578C101.098 133.892 101.364 134.387 101.746 134.959C105.024 139.725 104.224 145.253 99.6869 148.837C94.6549 152.801 88.7449 154.669 82.5689 155.775C72.7709 157.529 62.8589 158.634 52.9469 159.664C47.2659 160.236 41.5859 160.769 36.2099 162.942C34.3039 163.705 32.5889 164.772 31.0259 166.069C27.6709 168.966 27.4039 172.588 30.2629 175.905C30.4919 176.171 30.7589 176.438 31.2159 176.972H31.1019V177.01ZM27.0609 153.564C28.0139 153.678 28.7759 153.106 29.5389 152.687C33.3509 150.781 37.2779 149.18 41.4329 148.303C48.4099 146.816 55.3489 145.177 62.3249 143.804C69.9499 142.317 77.3839 139.763 84.1709 135.874C88.6309 133.32 92.8629 130.461 95.6839 125.924C97.1329 123.636 97.2849 119.748 95.9509 117.956C94.5019 122.722 91.3379 125.733 86.5339 127.754C86.8769 126.229 88.1349 125.581 88.2499 124.17C87.2589 124.78 86.4579 125.276 85.6569 125.733C80.7769 128.554 75.6309 130.804 70.3699 132.786C67.4719 133.854 64.4599 134.654 61.4489 135.264C55.6539 136.484 49.7059 137.132 44.1779 139.382C40.9759 140.678 37.7729 141.974 35.0669 144.414C37.1249 144.033 39.1459 143.652 41.2049 143.27C40.4799 144.033 39.6799 144.376 38.8409 144.833C34.4949 147.159 30.1869 149.599 27.0609 153.564C26.7939 153.602 26.4509 153.602 26.4889 154.021C26.4889 154.06 26.5649 154.136 26.6029 154.136C27.0229 154.136 27.0229 153.831 27.0609 153.564Z" fill="#57C3E9"/>
<path d="M302.927 392.372C297.856 388.064 293.167 383.337 288.439 378.648C282.378 372.7 278.718 365.19 274.982 357.794C264.383 336.826 257.978 314.561 254.242 291.42C251.84 276.475 250.697 261.416 250.963 246.281C251.345 222.987 254.547 200.113 262.286 178.039C264.192 172.587 266.366 167.25 268.958 162.103C269.454 161.112 272.465 160.578 273.19 161.379C273.533 161.798 273.19 162.179 273.037 162.599C269.149 173.35 266.556 184.444 264.421 195.69C260.304 217.307 258.664 239.114 259.427 261.073C260.304 286.006 263.773 310.596 271.169 334.538C275.935 349.902 282.225 364.542 291.489 377.771C294.539 382.155 297.856 386.311 301.516 390.199C302.088 390.809 302.66 391.457 303.27 392.106C303.155 392.22 303.041 392.334 302.927 392.449V392.372Z" fill="#CBCDD8"/>
<path d="M30.9492 391.343C42.6912 378.991 51.1552 364.732 57.2932 349.025C63.8882 332.251 68.2732 314.866 70.8652 297.024C73.3052 280.288 74.6782 263.475 74.2962 246.548C73.9532 232.023 73.0002 217.535 70.4842 203.163C68.5402 192.221 66.5192 181.317 63.3172 170.681C62.4782 167.898 61.4872 165.153 60.4952 162.408C60.1522 161.493 60.3432 161.379 61.2582 161.112C63.3932 160.502 64.3082 161.264 65.2612 163.209C72.5042 178.534 76.9652 194.699 79.6722 211.359C82.6452 229.811 83.2942 248.34 82.0742 266.982C80.7772 286.807 77.3842 306.288 71.5892 325.274C66.5952 341.591 59.9242 357.184 50.8122 371.709C47.3812 377.161 42.3862 381.164 37.9642 385.701C36.2872 387.416 34.4572 388.979 32.6652 390.619C32.2072 391.038 31.8642 391.648 30.9492 391.343Z" fill="#CBCDD8"/>
<path d="M271.436 326.266C274.105 327.142 276.392 328.362 278.603 329.621C288.516 335.301 298.123 341.439 306.624 349.178C309.865 352.114 312.343 355.621 314.821 359.167C315.279 359.815 315.393 360.31 314.707 360.959C308.493 366.677 301.935 371.976 295.492 377.428C294.272 378.496 293.929 377.161 293.51 376.589C290.193 371.71 287.143 366.677 284.436 361.416C278.908 350.589 274.867 339.19 271.627 327.524C271.512 327.181 271.512 326.799 271.436 326.304V326.266Z" fill="#57C3E9"/>
<path d="M62.325 326.494C61.525 329.239 60.762 332.022 59.885 334.767C55.349 349.445 49.173 363.36 40.442 376.094C39.502 377.441 38.396 377.593 37.125 376.551C31.178 371.595 25.269 366.601 19.474 361.454C18.406 360.501 18.368 359.853 19.131 358.671C24.125 350.665 31.331 345.023 38.917 339.723C45.97 334.843 53.099 330.154 60.991 326.685C61.334 326.532 61.639 326.227 62.287 326.494H62.325Z" fill="#57C3E9"/>
<path d="M166.747 68.7752V73.9602C166.747 100.457 167.319 126.495 167.319 152.992C167.319 179.488 167.281 153.754 167.319 154.135C167.472 155.508 166.061 156.194 164.612 156.651C162.134 157.376 160.876 159.587 160.914 162.256C160.952 164.696 162.439 166.792 164.879 167.517C165.909 167.822 166.328 168.165 166.29 169.271C166.252 170.529 165.337 170.224 164.65 170.338C161.296 170.948 158.741 174.036 158.703 177.505C158.665 181.051 161.257 184.215 164.727 184.825C165.489 184.94 166.252 184.825 166.214 186.007C166.214 187.036 165.947 187.608 164.841 187.837C161.334 188.638 158.779 190.658 157.445 194.051C157.064 195.042 156.53 195.538 155.463 195.309C154.281 195.042 154.776 194.089 154.776 193.441C155.348 170.948 155.577 148.493 156.606 126C157.14 113.991 157.941 102.02 159.847 90.1632C160.952 83.3772 163.24 76.9342 165.87 70.6052C166.137 70.0342 166.671 68.9282 166.785 68.6992V68.7752H166.747Z" fill="#CBCDD8"/>
<path d="M214.707 237.131C213.869 247.081 215.279 257.032 213.983 266.868C212.42 278.877 204.681 286.12 194.578 291.153C189.507 293.669 186 291.153 185.771 285.434C185.619 281.85 186.648 278.534 188.402 275.446C195.836 262.407 203.918 249.864 213.564 238.351C213.907 237.931 214.326 237.55 214.707 237.131Z" fill="#CBCDD8"/>
<path d="M118.52 237.018C119.473 237.361 119.74 237.971 120.122 238.428C129.996 250.094 138.192 262.904 145.627 276.209C147.495 279.564 148.257 283.186 147.723 287.036C147.228 290.582 145.055 292.221 141.471 291.802C140.327 291.649 139.184 291.383 138.192 290.849C128.89 285.55 121.38 278.84 119.664 267.479C119.13 264.009 119.092 260.54 119.054 257.033C118.94 250.437 119.283 243.842 118.482 237.056H118.52V237.018Z" fill="#CBCDD8"/>
<path d="M168.653 434.844C168.844 428.21 169.721 421.691 170.56 415.133C172.39 400.303 177.193 386.235 181.463 372.053C181.73 371.1 182.226 371.1 182.988 371.176C189.622 371.825 196.179 373.006 203.003 374.569C195.035 383.376 188.364 392.869 182.836 403.163C177.346 413.38 172.504 423.864 168.692 434.844H168.653Z" fill="#CBCDD8"/>
<path d="M130.72 374.646C133.922 373.654 137.049 373.159 140.137 372.663C143.568 372.091 147.037 371.672 150.506 371.214C151.269 371.1 151.917 371.024 152.222 372.129C155.234 382.613 159.084 392.869 161.105 403.582C163.011 413.608 164.498 423.711 165.108 433.928V435.225C156.949 412.96 146.846 392.221 130.72 374.607V374.646Z" fill="#CBCDD8"/>
<path d="M181.234 188.601C183.255 186.694 183.751 184.026 184.589 181.548C186.038 177.24 187.296 172.817 188.097 168.357C189.012 163.439 189.622 158.521 189.889 153.526C190.308 145.368 190.918 137.247 191.337 129.127C191.528 125.124 191.375 121.121 191.452 117.118C191.452 116.508 191.109 115.631 192.176 115.402C192.786 118.262 192.71 121.197 192.862 124.095C193.587 137.324 193.777 150.591 193.892 163.858C194.044 179.603 193.51 195.31 193.243 211.399C190.117 207.968 187.22 204.727 184.246 201.448C186.343 200.495 187.182 198.322 186.419 196.264C186.038 195.234 185.161 195.349 184.361 195.349C182.264 195.272 181.234 194.243 181.234 192.222V188.601Z" fill="#CBCDD8"/>
<path d="M141.052 122.227C141.357 122.722 141.471 123.294 141.471 123.866C141.547 128.593 141.395 133.359 141.814 138.086C142.424 145.177 142.805 152.306 143.644 159.359C144.445 165.841 145.512 172.207 147.647 178.383C148.448 180.785 149.325 183.149 150.697 185.284C151.116 185.932 151.345 186.885 152.451 186.694C152.451 189.172 152.374 191.651 152.451 194.129C152.451 195.044 152.184 195.425 151.269 195.349H150.697C147.266 195.349 146.465 196.454 147.151 199.885C147.418 201.258 148.676 200.762 149.477 201.448C146.541 204.689 143.644 207.891 140.404 211.513V207.548C139.717 186.084 139.565 164.621 140.06 143.157C140.213 136.561 140.594 129.966 140.861 123.37C140.861 122.989 141.014 122.646 141.09 122.265H141.052V122.227Z" fill="#CBCDD8"/>
<path d="M49.8211 113.076C51.4601 113.229 53.3281 113.686 54.6621 115.021C61.4101 121.769 68.6921 120.739 76.3171 116.774C80.0151 114.83 83.5221 112.466 87.7921 111.856C89.0501 111.666 90.3081 111.551 91.5671 111.856C92.8251 112.161 93.0921 112.886 92.5581 113.953C91.7571 115.478 90.6131 116.774 89.2791 117.88C84.3611 121.997 78.4141 124.094 72.5431 126.343C68.3491 127.945 64.0031 129.203 59.6191 130.232C58.4371 130.499 57.6361 130.27 56.6831 129.508C53.1381 126.648 49.2871 124.17 45.3981 121.883C42.9581 120.434 42.4251 118.452 43.9501 116.088C45.2461 114.067 47.1901 113.114 49.8211 113.114V113.076Z" fill="#57C3E9"/>
<path d="M243.643 111.704C248.218 111.78 251.726 113.725 255.233 115.631C257.978 117.118 260.723 118.49 263.773 119.329C268.92 120.778 273.418 119.748 277.421 116.279C278.985 114.945 280.548 113.687 282.606 113.229C286.495 112.39 290.117 114.83 290.422 118.452C290.536 119.748 290.193 120.701 288.935 121.426C284.589 123.98 280.281 126.649 276.354 129.889C275.896 130.271 275.477 130.576 274.829 130.385C264.421 127.754 254.128 124.743 245.168 118.49C243.758 117.499 242.576 116.279 241.623 114.83C240.25 112.733 240.632 111.895 243.11 111.666C243.415 111.666 243.758 111.666 243.643 111.666V111.704Z" fill="#57C3E9"/>
<path d="M201.173 223.827L175.325 197.026C174.334 195.997 172.923 195.387 171.475 195.387C168.539 195.387 166.137 197.789 166.137 200.724C166.137 197.789 163.735 195.387 160.8 195.387C157.864 195.387 157.979 195.959 156.949 197.026L131.101 223.827C130.148 224.819 129.614 226.153 129.614 227.525V236.866C129.614 237.895 129.919 238.848 130.453 239.725L152.26 274.037C153.251 275.562 154.929 276.515 156.759 276.515H175.554C177.384 276.515 179.061 275.6 180.053 274.037L201.86 239.725C202.393 238.886 202.698 237.895 202.698 236.866V227.525C202.698 226.153 202.165 224.819 201.211 223.827H201.173Z" fill="#4B4B55"/>
<path d="M195.264 225.847L173.762 203.583C172.923 202.706 171.78 202.249 170.56 202.249C168.12 202.249 166.137 204.231 166.137 206.671C166.137 204.193 164.117 202.21 161.639 202.249C159.161 202.287 159.275 202.82 158.398 203.697L137.011 225.886C136.21 226.724 135.752 227.83 135.752 228.974V236.713C135.752 237.551 135.981 238.39 136.439 239.076L152.794 264.353L166.099 268.623L179.938 263.438L195.798 239.038C196.255 238.314 196.484 237.513 196.484 236.675V228.935C196.484 227.792 196.027 226.686 195.226 225.847H195.264Z" fill="#CDCFDB"/>
<path d="M166.137 268.622C180.181 268.622 191.566 258.296 191.566 245.557C191.566 232.819 180.181 222.492 166.137 222.492C152.093 222.492 140.708 232.819 140.708 245.557C140.708 258.296 152.093 268.622 166.137 268.622Z" fill="#2F3138"/>
<path d="M166.137 259.206C180.181 259.206 191.566 249.34 191.566 237.17C191.566 225 180.181 215.135 166.137 215.135C152.093 215.135 140.708 225 140.708 237.17C140.708 249.34 152.093 259.206 166.137 259.206Z" fill="#4B4B55"/>
<path d="M148.028 231.718V241.592H184.17V231.032L178.947 224.894L154.09 224.398L148.028 231.718Z" fill="#31509F"/>
<path d="M184.17 251.238V241.402H148.028V251.925L153.251 258.101L178.108 258.558L184.17 251.238Z" fill="#FDC406"/>
<path d="M178.68 226.114L183.331 231.909V250.933L178.795 257.262H153.48L149.325 251.505L149.134 232.214L154.052 226.114H178.642M179.671 223.941H153.023L146.961 231.452L147.152 252.229L152.375 259.435H179.9L185.504 251.658V231.185L179.71 223.98H179.671V223.941Z" fill="#030204"/>
<path d="M166.328 216.697C179.9 216.697 190.918 228.019 190.918 241.935C190.918 255.85 179.9 267.173 166.328 267.173C152.756 267.173 141.738 255.85 141.738 241.935C141.738 228.019 152.756 216.697 166.328 216.697ZM166.328 214.523C151.574 214.523 139.565 226.799 139.565 241.935C139.565 257.07 151.536 269.346 166.328 269.346C181.12 269.346 193.091 257.07 193.091 241.935C193.091 226.799 181.12 214.523 166.328 214.523Z" fill="#030204"/>
<path d="M182.226 200.646L200.106 220.509L200.373 226.076L194.921 224.36L176.011 203.62L182.226 200.646Z" fill="#494A57"/>
<path d="M177.46 202.705L198.771 225.198L193.282 225.122L173.686 204.649L177.46 202.705Z" fill="#2C2D35"/>
<path d="M176.85 196.568L174.753 202.935L186.114 198.246L185.695 196.873L176.85 196.568Z" fill="#CECCD9"/>
<path d="M184.78 197.522V198.665L182.874 199.39L179.9 200.534L182.073 202.859L199.686 221.959L199.61 225.009L194.006 224.59L175.096 204.155L177.803 197.484H184.742M186.915 195.311H176.355L172.542 204.613L192.977 226.687L201.707 227.335L201.821 221.121L183.598 201.372L186.877 200.114V195.311H186.915Z" fill="#030204"/>
<path d="M185.581 198.932L174.067 203.964" stroke="#030204" stroke-width="5.7" stroke-miterlimit="10"/>
<path d="M150.735 200.646L132.817 220.509L132.588 226.076L138.04 224.36L156.911 203.62L150.735 200.646Z" fill="#494A57"/>
<path d="M155.462 202.705L134.151 225.198L139.679 225.122L159.275 204.649L155.462 202.705Z" fill="#2C2D35"/>
<path d="M156.111 196.568L158.207 202.935L146.808 198.246L147.266 196.873L156.111 196.568Z" fill="#CECCD9"/>
<path d="M155.081 197.522L157.788 204.193L138.878 224.628L133.274 225.047L133.198 221.997L150.811 202.897L152.984 200.572L150.011 199.428L148.105 198.704V197.56H155.043M156.492 195.387H145.931V200.19L149.21 201.448L130.987 221.197L131.101 227.411L139.832 226.763L160.266 204.689L156.454 195.387H156.492Z" fill="#030204"/>
<path d="M147.38 198.932L158.894 203.964" stroke="#030204" stroke-width="5.7" stroke-miterlimit="10"/>
<path d="M63.469 88.3722C63.317 87.3802 63.24 86.3892 63.66 85.4362C63.66 84.9402 63.7359 84.4452 63.7359 83.9492C65.4129 88.8292 69.683 91.5742 72.886 95.1202C78.033 100.8 79.1 107.167 75.821 113.877C75.707 114.143 75.5159 114.487 75.2489 114.601C70.6749 116.888 66.062 119.023 60.8 116.66C58.932 115.821 57.407 114.487 55.959 113.076C55.539 112.314 55.73 111.551 56.149 110.903C57.56 108.692 58.856 106.404 60.495 104.384C63.622 100.571 64.803 96.2252 64.384 91.4222C64.308 90.4302 64.575 89.1342 63.507 88.3332L63.469 88.3722Z" fill="#57C3E9"/>
<path d="M47.7618 84.1778C47.4188 82.1188 47.1138 80.0608 46.7708 77.9258C47.0378 78.0778 47.3048 78.1158 47.4948 78.2688C52.1838 83.0338 56.4918 88.1048 58.7038 94.5478C58.7038 94.6238 58.7038 94.6618 58.7418 94.7388C60.1138 98.2078 59.5418 100.991 56.4158 103.393C53.9378 105.299 51.6508 107.548 49.8208 110.179C49.5538 110.598 49.1728 110.712 48.7148 110.789C44.5598 111.246 41.2428 113.038 39.4888 117.079C39.2218 117.689 38.9168 118.032 38.2308 117.613C36.1718 116.355 33.8088 115.745 31.6738 114.677C33.3128 113 34.7998 111.132 36.5918 109.683C42.9578 104.498 47.4568 98.2078 48.3338 89.8588C48.5248 88.0288 49.1348 85.9698 47.7618 84.2158V84.1778Z" fill="#57C3E9"/>
<path d="M301.287 114.944C299.381 115.783 297.475 116.622 295.569 117.537C294.692 117.956 294.387 117.689 294.044 116.889C292.404 113.153 289.278 111.475 285.428 110.827C284.894 110.751 284.284 110.827 283.903 110.293C281.577 107.167 278.641 104.651 275.782 102.02C274.257 100.61 273.876 99.0854 274.295 97.0644C275.439 91.3074 278.718 86.7714 282.339 82.3864C283.636 80.8234 284.856 79.2224 286.914 77.7734C286.533 79.7944 286.228 81.3954 285.923 83.0354C285.428 84.3314 285.199 85.6654 285.199 87.0384C285.275 94.2814 287.715 100.572 292.862 105.718C295.378 108.196 297.97 110.598 300.525 113.038C301.02 113.534 301.859 113.953 301.287 114.906V114.944Z" fill="#57C3E9"/>
<path d="M305.366 137.666C300.83 136.294 296.293 134.807 291.642 133.854C290.994 133.702 289.736 133.816 290.498 132.367C293.7 126.305 297.437 120.587 302.431 115.783C302.698 115.898 303.079 115.974 303.27 116.203C306.472 119.901 307.539 124.247 307.158 129.012C306.929 131.986 305.9 134.769 305.366 137.666Z" fill="#57C3E9"/>
<path d="M31.2158 115.82C36.2488 120.624 39.9847 126.381 43.1867 132.519C43.6447 133.434 43.1867 133.662 42.4627 133.777C37.7347 134.73 33.1987 136.255 28.5857 137.551C28.4327 137.132 28.3188 136.712 28.1658 136.293C26.2218 130.917 25.4978 125.504 27.9378 120.128C28.6618 118.527 29.1568 116.507 31.2158 115.82Z" fill="#57C3E9"/>
<path d="M166.785 206.061C162.134 206.061 158.017 202.134 157.979 197.636C157.979 193.137 162.096 188.905 166.671 188.791H166.862C171.398 188.791 175.668 193.061 175.706 197.56C175.706 199.695 174.83 201.791 173.228 203.393C171.627 204.994 169.187 206.099 166.785 206.099V206.061Z" fill="#57C3E9"/>
<path d="M166.862 189.859C170.788 189.859 174.601 193.595 174.601 197.56C174.601 201.525 171.017 204.994 166.785 204.994C162.706 204.994 159.084 201.563 159.046 197.636C159.046 193.709 162.706 189.973 166.709 189.859H166.862ZM166.862 187.686H166.633C161.486 187.838 156.835 192.565 156.873 197.636C156.911 202.706 161.524 207.129 166.785 207.129C172.047 207.129 172.085 206.023 173.991 204.117C175.897 202.211 176.812 199.961 176.774 197.522C176.774 192.375 172.008 187.686 166.862 187.686Z" fill="black"/>
<path d="M115.661 281.395C120.198 287.113 125.497 296.873 126.755 301.791C125.268 302.058 123.781 302.439 122.257 302.592C118.101 302.935 113.831 298.97 113.259 294.395C113.031 292.489 113.221 290.621 113.755 288.752C114.441 286.389 114.975 283.949 115.623 281.395H115.661Z" fill="#CBCDD8"/>
<path d="M218.177 281.623C218.558 285.779 220.807 289.553 220.426 293.861C219.854 300.342 213.64 304.231 207.578 301.905C206.358 301.448 207.121 300.8 207.311 300.266C208.874 296.11 210.857 292.145 213.182 288.333C214.593 286.007 216.156 283.796 217.681 281.547C217.833 281.547 218.024 281.547 218.177 281.547V281.623Z" fill="#CBCDD8"/>
<path d="M29.4238 84.5214C35.1808 87.0754 39.3748 91.1544 41.5478 97.1404C41.8148 97.8644 41.8528 98.5884 41.4328 99.3514C39.3368 103.011 36.2868 105.756 33.0078 108.272C32.8938 108.348 32.6268 108.272 32.4358 108.272C33.8468 104.307 34.8378 100.266 34.3038 96.0344C33.9988 93.4034 33.6558 90.7734 31.6738 88.7524C31.0258 87.2654 29.7668 86.1224 29.4238 84.4824V84.5214Z" fill="#57C3E9"/>
<path d="M166.824 172.512C170.293 172.512 172.695 174.609 172.657 177.62C172.657 180.556 170.217 182.691 166.938 182.729C163.431 182.729 160.952 180.556 161.029 177.43C161.105 174.456 163.431 172.512 166.824 172.512Z" fill="#57C3E9"/>
<path d="M305.366 137.666C305.9 134.769 306.93 131.985 307.158 129.012C307.54 124.246 306.472 119.9 303.27 116.202C303.079 115.973 302.736 115.935 302.431 115.783C302.66 115.44 302.888 115.096 303.155 114.715C302.507 114.792 301.859 114.868 301.287 114.944C301.859 113.991 301.058 113.572 300.563 113.076C298.009 110.636 295.416 108.234 292.9 105.756C287.753 100.609 285.275 94.3193 285.237 87.0753C285.237 85.7033 285.466 84.3683 285.961 83.0723C285.694 89.3253 287.181 95.1193 290.307 100.533C292.786 104.879 296.522 108.044 300.41 110.979C305.405 114.753 308.531 119.557 309.446 125.809C310.018 129.774 309.369 133.51 307.463 137.018C306.968 137.933 306.434 138.428 305.405 137.666H305.366Z" fill="#9ED7EC"/>
<path d="M165.604 396.796C163.278 388.409 161.257 380.136 158.474 372.016C158.093 370.91 158.322 370.491 159.466 370.529C161.41 370.605 163.888 369.69 165.184 370.758C166.442 371.787 165.565 374.341 165.565 376.209C165.604 383.072 165.565 389.934 165.565 396.796H165.604Z" fill="#CBCDD8"/>
<path d="M168.005 396.757V371.672C168.005 370.795 168.272 370.414 169.187 370.452C170.903 370.528 172.618 370.566 174.334 370.528C175.554 370.528 175.516 371.024 175.211 371.939C172.466 380.097 170.369 388.408 168.043 396.757H168.005Z" fill="#CBCDD8"/>
<path d="M31.2157 115.822C29.1567 116.508 28.6617 118.49 27.9367 120.13C25.4977 125.505 26.2217 130.919 28.1657 136.294C28.3187 136.714 28.4327 137.133 28.5857 137.552C27.4417 138.429 26.7937 138.124 26.1077 136.866C21.9897 128.974 24.2777 118.452 31.5207 112.467C33.8087 110.561 36.2097 108.769 38.3447 106.71C44.7877 100.61 47.6477 92.9848 47.7237 84.2168C49.0957 85.9708 48.4857 88.0288 48.2957 89.8588C47.4187 98.2078 42.9197 104.499 36.5537 109.684C34.7617 111.171 33.2747 113 31.6357 114.678C31.2917 114.678 30.6817 114.525 30.6437 114.678C30.3387 115.212 31.1397 115.364 31.2157 115.822Z" fill="#9ED7EC"/>
<path d="M277.993 112.847C277.612 110.178 276.087 108.043 274.448 106.099C271.017 102.058 268.882 97.6349 269.187 92.2599C269.301 90.4299 269.492 88.638 269.797 86.846C269.911 86.084 269.797 85.626 269.225 85.245C269.492 84.749 269.606 84.292 269.72 83.377C270.407 86.198 270.33 88.752 270.14 91.307C269.682 96.644 271.36 101.105 275.553 104.65C277.498 106.29 279.213 108.158 281.043 109.911C281.806 110.636 282.073 111.169 280.738 111.589C279.785 111.894 278.908 112.428 277.993 112.885V112.847Z" fill="#9ED7EC"/>
<path d="M63.4688 88.372C64.5368 89.173 64.2698 90.469 64.3458 91.46C64.7648 96.264 63.5828 100.61 60.4568 104.422C58.8178 106.443 57.5218 108.73 56.1108 110.942C55.6918 111.59 55.5008 112.352 55.9208 113.115C55.0818 112.657 54.3188 112.009 53.4418 111.78C51.1928 111.247 51.9938 110.446 53.0608 109.417C54.9288 107.701 56.6828 105.871 58.5888 104.194C62.2488 100.915 63.7738 96.798 63.5068 91.956C63.4308 90.774 63.5068 89.554 63.4688 88.334V88.372Z" fill="#9ED7EC"/>
<path d="M166.823 165.459C164.689 165.459 163.164 164.01 163.164 161.951C163.164 159.893 164.727 158.482 166.9 158.52C168.958 158.52 170.445 159.969 170.483 161.913C170.483 163.934 168.958 165.459 166.862 165.459H166.823Z" fill="#57C3E9"/>
<path d="M31.6737 88.7528C33.6937 90.7738 33.9987 93.4419 34.3037 96.0349C34.8377 100.266 33.8467 104.308 32.4357 108.273C31.8637 109.569 30.6817 110.179 29.3857 110.903C32.8167 103.736 34.1897 96.4158 31.6737 88.7148V88.7528Z" fill="#9ED7EC"/>
<path d="M192.023 112.771C191.528 112.047 191.757 111.246 191.833 110.445C192.176 111.208 192.138 111.97 192.023 112.771Z" fill="#CBCDD8"/>
<path d="M181.196 186.732C181.539 186.961 181.539 187.228 181.196 187.495V186.732Z" fill="#CBCDD8"/>
<path d="M29.4246 84.4824C29.4246 84.4824 29.3476 84.5214 29.3096 84.5594H29.4246V84.4824Z" fill="#57C3E9"/>
<path d="M166.862 56.0049V27.6406C170.331 29.2418 180.053 57.263 179.443 64.888C178.718 62.9816 177.994 61.0754 177.308 59.1692C175.859 55.2425 173.953 51.5444 172.085 47.8083C171.818 47.2745 171.551 46.512 170.788 46.5883C170.14 46.5883 170.064 47.427 169.835 47.9226C168.92 49.9813 168.272 52.1544 167.7 54.3656C167.548 54.9375 167.357 55.5475 167.205 56.1193C167.09 56.1193 166.976 56.1193 166.823 56.0812V56.0049H166.862Z" fill="#9ED7EC"/>
<path d="M305.976 153.298C302.698 152.154 299.686 150.591 296.407 149.561C292.252 148.265 287.944 147.503 283.75 146.397C276.201 144.453 268.348 143.614 260.952 140.945C253.594 138.277 246.465 135.15 240.822 129.546C238.344 127.068 236.324 124.209 236.743 120.32C236.819 119.481 236.934 118.719 237.658 117.537C238.23 120.32 239.526 122.303 241.28 123.98C242.995 125.658 244.787 127.183 247.38 128.021C246.922 126.534 245.512 125.886 245.245 124.323C246.655 125.086 247.951 125.772 249.21 126.496C258.207 131.605 267.852 134.845 278.031 136.523C284.284 137.552 290.345 139.306 295.912 142.432C296.522 142.775 297.055 143.195 297.932 143.766C295.683 144.605 293.891 143.156 291.68 143.461C297.208 146.016 302.24 148.799 305.976 153.374V153.298Z" fill="#9ED7EC"/>
<path d="M298.657 144.186V144.3H298.504V144.109C298.504 144.109 298.58 144.109 298.657 144.148V144.186Z" fill="#9ED7EC"/>
<path d="M27.0986 153.565C30.2246 149.6 34.5326 147.16 38.8786 144.835C39.6796 144.415 40.5176 144.034 41.2426 143.271C39.1836 143.653 37.1636 144.034 35.1046 144.415C37.7726 141.975 40.9756 140.679 44.2156 139.383C49.7826 137.133 55.6916 136.485 61.4866 135.265C64.5366 134.617 67.5096 133.855 70.4076 132.787C75.6686 130.843 80.8156 128.556 85.6946 125.734C86.4956 125.277 87.2966 124.743 88.2876 124.171C88.1736 125.582 86.9146 126.192 86.5716 127.755C91.3756 125.734 94.5396 122.684 95.9886 117.957C97.3226 119.749 97.1706 123.599 95.7216 125.925C92.9006 130.424 88.6686 133.321 84.2086 135.875C77.3836 139.764 69.9876 142.318 62.3636 143.805C55.3486 145.178 48.4476 146.817 41.4716 148.304C37.3156 149.181 33.3886 150.782 29.5766 152.688C25.7636 154.594 28.0516 153.641 27.0986 153.565Z" fill="#9ED7EC"/>
<path d="M27.0993 153.564C27.0993 153.831 27.0994 154.174 26.6414 154.136C26.6414 154.136 26.5273 154.06 26.5273 154.022C26.5273 153.603 26.8323 153.603 27.0993 153.564Z" fill="#9ED7EC"/>
<path d="M150.24 317.803C151.688 317.46 152.108 318.146 152.298 319.785C153.099 328.554 153.861 337.284 154.471 346.053C154.586 347.387 154.738 348.683 154.853 350.018C154.929 350.933 154.624 351.467 153.595 351.428C152.946 351.428 152.336 351.428 151.688 351.505C150.659 351.619 150.24 351.238 150.163 350.17C149.858 346.244 149.477 342.355 149.134 338.466C148.6 332.481 148.105 326.495 147.647 320.51C147.457 317.879 147.533 317.879 150.278 317.841H150.24V317.803Z" fill="#57C3E9"/>
<path d="M304.795 84.1777C304.146 84.5207 303.041 85.0927 303.041 85.0927C297.78 87.8377 293.929 91.8027 291.947 97.5207C291.68 98.2837 291.947 98.8557 292.29 99.4647C294.539 103.24 297.665 106.137 301.211 108.653C301.211 107.815 300.906 107.052 300.601 106.29C298.695 101.677 298.809 96.9487 300.105 92.2597C300.563 90.6587 300.868 88.7907 302.431 87.6847C302.812 86.9227 303.231 86.1977 303.651 85.3977C304.108 84.7107 304.795 84.1777 304.795 84.1777Z" fill="#57C3E9"/>
<path d="M304.795 84.1776C303.117 85.3216 301.821 87.7226 301.097 89.2476C300.982 89.4766 300.868 89.7436 300.792 89.9726C300.639 90.3536 300.525 90.5826 300.525 90.5826L300.601 90.5056C300.41 91.0776 300.296 91.6496 300.143 92.1836C298.847 96.8726 298.733 101.601 300.639 106.214C300.944 106.976 301.287 107.738 301.249 108.577C302.011 109.568 303.041 110.293 304.413 111.132C303.003 107.09 301.058 103.545 300.83 99.5036C300.639 95.6906 300.83 91.9166 302.164 88.3326C303.46 85.4356 304.795 84.1016 304.795 84.1016V84.1776Z" fill="#9ED7EC"/>
<path d="M274.448 106.138C271.017 102.097 268.882 97.674 269.187 92.299C269.263 90.66 269.453 88.982 269.72 87.381C270.14 85.551 269.72 83.416 269.72 83.416C269.72 83.569 269.72 83.797 269.606 84.026C269.415 84.788 269.11 85.551 268.691 86.237C267.319 88.563 265.527 90.507 263.506 92.299C261.028 94.51 259.007 97.103 257.368 100C254.661 104.842 256.148 109.455 257.826 114.106C257.94 114.411 258.359 114.64 258.664 114.83C267.7 119.52 272.198 118.452 277.955 112.886C277.574 110.217 276.049 108.082 274.41 106.138H274.448Z" fill="#57C3E9"/>
<path d="M278.07 131.109C278.07 131.109 280.014 131.491 281.501 131.948C281.501 131.948 287.067 125.276 291.222 122.227C291.222 122.227 281.501 128.441 278.031 131.109H278.07Z" fill="#CBCDD8"/>
<path d="M284.436 132.291C284.436 132.291 285.58 132.519 286.571 132.748C287.562 132.977 288.706 126.915 290.231 124.971C290.231 124.971 285.694 130.994 284.436 132.291Z" fill="#CBCDD8"/>
<path d="M55.654 131.109C55.654 131.109 53.709 131.491 52.222 131.948C52.222 131.948 46.656 125.276 42.501 122.227C42.501 122.227 52.222 128.441 55.692 131.109H55.654Z" fill="#CBCDD8"/>
<path d="M49.3253 132.291C49.3253 132.291 48.1813 132.519 47.1903 132.748C46.1993 132.977 45.0553 126.915 43.5303 124.971C43.5303 124.971 48.0673 130.994 49.3253 132.291Z" fill="#CBCDD8"/>
<path d="M167.281 154.288C167.281 154.288 174.296 146.663 174.029 118.451C173.762 90.2394 166.747 68.7754 166.747 68.7754L166.824 106.48L167.319 154.288H167.281Z" fill="#494C58"/>
<path d="M117.605 363.857L109.18 325.885L108.227 326.076L107.579 320.129L117.339 317.956L125.573 340.868L123.4 316.621L132.969 314.486L142.691 358.253L136.744 359.587L129.195 325.58L130.72 354.364L126.641 355.279L116.157 329.278L123.553 362.561L117.605 363.895V363.857Z" fill="white"/>
<path d="M159.961 351.313C160.114 353.105 159.694 354.592 158.665 355.774C157.636 356.956 156.263 357.604 154.471 357.756L149.858 358.138C148.067 358.29 146.58 357.871 145.398 356.879C144.216 355.888 143.53 354.516 143.377 352.724L140.518 319.404C140.365 317.612 140.785 316.125 141.814 314.943C142.844 313.761 144.216 313.113 146.008 312.961L150.621 312.579C152.413 312.427 153.9 312.846 155.081 313.837C156.263 314.829 156.949 316.201 157.102 317.993L159.961 351.313ZM146.885 318.87C146.656 318.87 146.58 319.022 146.58 319.213L149.363 351.885C149.363 352.114 149.477 352.19 149.706 352.19L153.518 351.847C153.747 351.847 153.823 351.733 153.823 351.504L151.04 318.832C151.04 318.603 150.888 318.527 150.697 318.527L146.885 318.87Z" fill="white"/>
<path d="M176.545 312.465L182.645 312.656L181.273 357.452L175.173 357.261L168.958 329.659L168.12 357.07L162.02 356.88L163.202 318.031H162.249L163.087 312.084L169.797 312.275L176.05 340.982L176.545 312.465Z" fill="white"/>
<path d="M187.982 319.175L188.859 313.266L206.282 315.858L205.405 321.767L199.686 320.929L193.93 359.396L187.906 358.481L193.663 320.014L187.944 319.175H187.982Z" fill="white"/>
<path d="M216.614 358.481L214.631 364.123L201.059 360.616L210.819 322.987L209.904 322.759L212.039 317.154L226.411 320.89L224.277 326.495L216.728 324.512L213.335 337.513L220.274 339.304L218.139 344.909L211.81 343.269L208.417 356.346L216.614 358.481Z" fill="white"/>
<path d="M279.785 164.506C279.785 164.506 261.676 207.434 264.307 262.332C266.937 317.231 283.293 296.796 283.598 279.564C283.903 262.332 273.685 196.835 295.874 175.905C295.874 175.905 302.012 172.817 296.827 169.576C291.642 166.336 279.823 164.506 279.823 164.506H279.785Z" fill="#7BCBE4"/>
<path d="M53.5949 164.506C53.5949 164.506 71.7039 207.434 69.0729 262.332C66.4429 317.231 50.0879 296.796 49.7829 279.564C49.4779 262.332 59.6949 196.835 37.5069 175.905C37.5069 175.905 31.3689 172.817 36.5529 169.576C41.7379 166.336 53.5569 164.506 53.5569 164.506H53.5949Z" fill="#7BCBE4"/>
</g>
<defs>
<clipPath id="clip0_1828_565">
<rect width="334" height="467" fill="white"/>
</clipPath>
</defs>
</svg>
