<svg width="238" height="210" viewBox="0 0 238 210" fill="none" xmlns="http://www.w3.org/2000/svg">
<path d="M0.200195 209.5L0.300194 84.7L237.8 0.5L237.7 125.3L0.200195 209.5ZM5.50019 88.4V202.2L232.6 121.7V7.9L5.50019 88.4Z" fill="#FFF123"/>
<path d="M17.2002 97.3V184.9L49.3002 173.5V85.9L17.2002 97.3Z" fill="#FFF123"/>
<path d="M220.8 25.1L189.2 36.4V124L220.8 112.8V25.1Z" fill="#FFF123"/>
<path d="M109.6 64.5L77.9004 75.8V106.9L109.6 147.1V64.5Z" fill="#FFF123"/>
<path d="M183.6 38.3L151.9 49.6V80.7L183.6 120.9V38.3Z" fill="#FFF123"/>
<path d="M54.9004 138.8L75.1004 164.4L107 153.1L54.9004 87.3V138.8Z" fill="#FFF123"/>
<path d="M115.101 62.5V95.3L127.601 110.9L115.101 115.4V138.5L141.901 129L149.001 138.1L181.101 126.7L127.001 58.3L115.101 62.5Z" fill="#FFF123"/>
</svg>
