<svg width="226" height="224" viewBox="0 0 226 224" fill="none" xmlns="http://www.w3.org/2000/svg">
<g clip-path="url(#clip0_692_6965)">
<path d="M96.0996 27.2999C99.5996 26.6999 103.2 26.1999 106.9 25.9999C127.1 24.7999 146.6 30.1999 163 41.1999L166 39.2999L178.1 31.5999C157.6 15.5999 132.2 7.79995 105.9 9.39995C94.2996 10.0999 83.2996 12.6999 73.0996 16.7999L94.4996 26.4999L96.0996 27.2999Z" fill="#D8FF00"/>
<path d="M118.9 198.1C98.1998 199.4 78.6998 193.6 62.7998 182.9L59.8998 184.8L47.7998 192.5C67.5998 207.8 92.8998 216.3 120 214.7C131.6 214 142.6 211.4 152.9 207.3L129.7 196.8C126.2 197.4 122.7 197.9 118.9 198.1Z" fill="#D8FF00"/>
<path d="M16.5996 150.8L26.2996 129.8L27.0996 128.1C26.4996 124.6 25.9996 121.2 25.7996 117.6C24.4996 97.4 30.2996 78.2 40.9996 62.7L39.0996 59.8L31.3996 48C16.0996 67.3 7.59958 92.1 9.19958 118.6C9.89958 130 12.4996 140.8 16.5996 150.8Z" fill="#D8FF00"/>
<path d="M209.3 73.2L203.6 85.4L202.3 88.2L198.8 95.8C199.4 99.3 199.9 102.7 200.1 106.3C201.3 126.1 196 145.2 184.9 161.2L186.8 164.1L194.5 175.9C209.8 156.6 218.3 131.8 216.7 105.3C215.9 94.1 213.4 83.3 209.3 73.2Z" fill="#D8FF00"/>
<path d="M84.5996 64.1L63.1996 77.3L50.0996 105.2L102.6 72.2L84.5996 64.1Z" fill="#D8FF00"/>
<path d="M130 155.4L172 128.5C172 128.5 184.3 101.8 184.9 100.6C185.4 99.4 111.8 146.9 111.8 146.9L130 155.4Z" fill="#D8FF00"/>
<path d="M76.5996 47.5L115.4 65.3L107 83.4L85.0996 97.3L71.9996 125.5L93.7996 111.7L124.6 125.8L151.6 108.6L151.7 108.3L168.7 71.8L168.9 71.4L91.3996 35.9L13.5996 0.0999756L48.9996 54C56.5996 45.6 66.6996 43 76.5996 47.5ZM130.6 72.3L145.1 78.9L146.5 79.5L140 93.3L138.3 96.9L123.1 106.6L110.5 100.8L120.5 94.4H120.1L130.6 72.3Z" fill="#D8FF00"/>
<path d="M46.4 149.9L66.2 107.4L40.1 124.1L35.7 133.7C35.6 133.6 35.6 133.6 35.6 133.6L31.5 142.5L18.5 170.6L0 210.3L53.8 175.4C45.8 168.3 43 159.1 46.4 149.9Z" fill="#D8FF00"/>
<path d="M149.2 177.4C149.1 177.3 148.9 177.2 148.6 177.1H148.7C148.7 177.1 161 151.1 161.6 150C161.9 149.5 146.8 158.7 130.3 168.9C119.7 164.1 108.6 159.2 108.6 159.2L87 149.5L111.8 134L93.6 125.8L60.7 146.3L57 154.1L125.2 184.8L146.5 194.4L212.4 224.1L176.8 171C169.2 179.3 159.1 181.9 149.2 177.4Z" fill="#D8FF00"/>
<path d="M179.1 73.8C178.3 75.6 168.9 96 168.9 96L194.7 79.6L226 11.6L172.6 46.6C180.9 54 183.5 64 179.1 73.8Z" fill="#D8FF00"/>
</g>
<defs>
<clipPath id="clip0_692_6965">
<rect width="226" height="224" fill="white"/>
</clipPath>
</defs>
</svg>
