<svg width="212" height="140" viewBox="0 0 212 140" fill="none" xmlns="http://www.w3.org/2000/svg">
<g clip-path="url(#clip0_1048_6958)">
<path d="M60.6004 125.5L31.9004 86.2002H71.2004L60.6004 125.5Z" fill="#EF2940"/>
<path d="M210.801 28.7004C214.101 16.5004 207.001 4.00039 194.801 0.700386C192.901 0.100386 190.901 -0.0996094 188.901 -0.0996094H9.30078L30.4008 28.7004H210.801Z" fill="white"/>
<path d="M167.3 100.601C180.6 100.601 194.5 88.1008 198.4 75.3008L207 42.8008H167.1L161.6 63.8008C160.2 68.5008 155.9 71.7008 151 71.8008H129.6L137.3 42.9008H0.400391L21.3004 71.7008H89.8004L71.6004 140.201H111.3L121.9 100.601H167.3Z" fill="white"/>
</g>
<defs>
<clipPath id="clip0_1048_6958">
<rect width="212" height="140" fill="white"/>
</clipPath>
</defs>
</svg>
