<svg xmlns="http://www.w3.org/2000/svg" xml:space="preserve" style="enable-background:new 0 0 1000 1000" viewBox="0 0 1000 1000"><path d="m820.3 497.8-34.4-46.1s20.8-58.4 26.3-73.4L574.8 59.6l50.7 176.7L452.3 3.7l57.6 200.9c-106.9-25.3-222.9 10.8-296 100l5 6.7c31.2-12.9 64.2-16.2 98.1-9.2-160.6 61.5-231.6 244-164.3 395.2h8.5c4.5-41.4 19.6-70 49.1-93.2C223.1 748.1 341 868.8 500 872.5v-19.1c-223.2-75.4-221.3-326-88-395.6-44.5 63.3-39.5 125.5-8.6 188.1l-41.8 14.7 5.8 14.7s79.1-3.4 101.2-5c12.8 9.7 27.7 37 32.1 45.4L441 753.6l9.3 12.4s93.1-24.2 117.7-31.8c35.2 29.4 63.2 65.4 91.8 109.1 22.6-13.2 43.4-29.2 61.9-47.6-41.4-63.4-89.7-102.2-144.5-128.6l-20.7 13.2c-18.3-25-39.6-47.1-63.1-65.9l-26.5 9.3c-62.3-74.7-20.1-182 40.9-174.9.2 0 .4.1.7.2v.2c1.9 24.8-18.3 34.7-38.3 49.2l11 14.7c20.1-.8 42.1.5 62.6 4.2l-38.6 28 10.7 14.3c100.9-21.2 208.5 31.8 248.1 135.3l17.1 8.4 17.5-43.9 42.8-26.3 31.5-109.7-52.6-25.6zM756 466.3l-66.4-32.6c-14.1-6.9-22.3-22-20.5-37.7l5.1-42.8 83.1 111.6c-.6.7-1 1.1-1.3 1.5z" style="fill:#fff"/></svg>