<svg width="272" height="331" viewBox="0 0 272 331" fill="none" xmlns="http://www.w3.org/2000/svg">
<g clip-path="url(#clip0_1053_6957)">
<path d="M95.9999 150.3L43.1999 -0.400024C12.6999 7.79998 -17.2001 70.1 10.5999 122.4C23.8999 147.5 62.0999 210.7 62.0999 210.7L95.9999 150.3Z" fill="#FFFF00"/>
<path d="M39.2002 194.8L24.4002 185L15.3002 160.8H8.7002L12.0002 192.7L52.2002 216.6L39.2002 194.8Z" fill="#FFFF00"/>
<path d="M232.8 194.8L247.5 185L256.6 160.8H263.2L259.9 192.7L219.8 216.6L232.8 194.8Z" fill="#FFFF00"/>
<path d="M136 258.5L89.0996 251L136 331.1L182.4 251.2L136 258.5Z" fill="#FFFF00"/>
<path d="M164.099 152.3L135.999 108.7L107.899 152.3L135.999 195.3L164.099 152.3Z" fill="#FFFF00"/>
<path d="M201.9 219.9L170.4 164.2L136 215.8L101.6 164.2L70.1 219.9L46.8 235L43.5 285.6H50.1L59.2 242.6L71.6 237.5L136 246.3L200.3 237.5L212.8 242.6L221.9 285.6H228.4L225.1 235L201.9 219.9Z" fill="#FFFF00"/>
<path d="M175.899 150.3L228.699 -0.400024C259.199 7.79998 289.099 70.1 261.299 122.4C247.999 147.5 209.799 210.7 209.799 210.7L175.899 150.3Z" fill="#FFFF00"/>
</g>
<defs>
<clipPath id="clip0_1053_6957">
<rect width="272" height="331" fill="white"/>
</clipPath>
</defs>
</svg>
